<svg width="1428" height="600" viewBox="0 0 1428 600" fill="none" xmlns="http://www.w3.org/2000/svg">
<g clip-path="url(#clip0_156_5498)">
<g opacity="0.1">
<mask id="mask0_156_5498" style="mask-type:luminance" maskUnits="userSpaceOnUse" x="-23" y="-108" width="1451" height="1040">
<path d="M1428 -107.08H-22.9932V931.036H1428V-107.08Z" fill="white"/>
</mask>
<g mask="url(#mask0_156_5498)">
<path d="M667.344 -127.78C645.781 -135.469 629.394 -118.089 612.327 -107.77C596.306 -98.084 579.519 -94.1039 572.347 -73.1381C569.431 -64.6151 568.756 -55.1475 564.43 -47.345C561.238 -41.5876 556.311 -37.2171 551.482 -32.9692C539.609 -22.5236 527.736 -12.0781 515.863 -1.6305C508.138 5.16708 500.229 12.1951 495.384 21.5714C490.54 30.9477 489.412 43.3469 495.276 52.0277C505.501 67.1634 527.447 61.9604 543.896 68.1164C565.345 76.1452 575.862 103.252 596.348 113.789C594.959 125.547 594.921 140.313 604.677 145.869C613.335 150.798 623.569 144.86 632.619 140.822C643.123 136.136 655.251 134.06 665.83 138.546C676.408 143.033 684.484 155.488 681.907 167.379C679.844 176.89 671.659 185.804 674.909 194.924C676.333 198.921 679.703 201.707 681.868 205.306C694.677 226.612 664.454 257.596 693.617 269.013C715.458 277.563 741.945 269.845 760.011 290.942C777.572 311.449 768.885 346.892 754.025 366.388C738.979 386.129 711.43 374.652 697.916 397.646C695.581 401.62 694.145 406.14 691.812 410.114C683.629 424.062 666.615 428.403 655.162 439.382C639.11 454.767 636.137 480.732 622.683 498.758C613.981 510.418 601.512 517.955 590.484 527.068C579.457 536.178 569.118 548.349 567.971 563.234C567.034 575.378 572.806 586.701 572.442 598.66C572.03 612.193 567.545 622.251 569.279 636.593C569.818 641.061 570.703 645.743 573.49 649.113C577.058 653.425 582.8 654.555 587.681 656.969C608.016 667.033 612.737 698.978 633.38 708.29C644.456 713.285 658.683 710.887 667.23 719.946C674.398 727.545 674.116 740.61 669.223 750.061C664.328 759.512 655.868 766.132 647.53 772.205C600.614 806.373 549.052 833.181 494.988 851.515C491.478 852.704 487.636 853.852 484.202 852.432C477.959 849.851 476.996 841.042 473.807 834.728C468.384 823.984 455.513 820.176 444.151 820.948C432.789 821.721 421.813 825.942 410.451 826.718C371.083 829.403 340.883 792.506 310.214 765.878C284.816 743.824 255.268 727.298 223.877 717.585C217.411 715.584 210.353 713.512 206.333 707.719C200.757 699.69 203.431 688.474 202.847 678.481C201.868 661.766 189.9 646.468 174.73 642.54C166.868 640.505 158.646 641.294 150.568 640.852C116.166 638.964 78.8894 615.478 49.9779 635.578C42.574 640.725 36.2573 648.59 27.5494 650.097C20.9368 651.241 14.3512 648.413 8.17192 645.641C-19.9096 633.047 -47.9892 620.453 -76.0708 607.86" stroke="#EBDEF3" stroke-width="3" stroke-miterlimit="10"/>
<path d="M1461.03 478.067C1441.53 479.499 1424.49 465.2 1406.2 457.801C1384.37 448.968 1360.36 449.99 1337.13 447.689C1279.51 441.986 1224.24 415.298 1166.38 416.525C1120.34 417.501 1076.07 436.251 1035.85 460.334C1016.26 472.064 996.999 485.454 982.916 504.196C961.31 532.95 954.16 573.511 964.487 608.747C974.814 643.985 1002.31 672.848 1035.36 683.153C1068.4 693.451 1103.72 685.85 1138.09 687.386C1172.46 688.923 1211.38 704.889 1221.11 740.303C1222.91 746.889 1223.62 753.919 1226.67 759.955C1231.6 769.701 1241.58 774.995 1251.03 779.467C1269.84 788.362 1290.26 796.561 1310.48 792.616C1329.41 788.92 1345.1 775.163 1362.68 766.736C1396.94 750.304 1439.45 755.829 1469.07 780.563" stroke="#EBDEF3" stroke-width="3" stroke-miterlimit="10"/>
<path d="M1138.38 -132.525C1121.28 -113.058 1103.09 -94.1454 1090.89 -70.8147C1078.69 -47.4841 1073.2 -18.3525 1083.2 6.15749C1093.19 30.6612 1117.93 51.0353 1113.63 77.3827C1112.25 85.8869 1107.8 93.5648 1106.55 102.092C1104.36 117.068 1112.69 132.033 1124.04 141.059C1135.39 150.082 1149.36 154.301 1163.03 158.125C1184.38 164.099 1206.68 169.572 1228.33 165.014C1249.99 160.457 1270.86 143.143 1273.58 119.642C1274.85 108.653 1272.14 97.5637 1272.5 86.4973C1272.86 75.431 1277.8 63.0276 1287.79 60.2538C1296.08 57.9533 1305.52 62.9715 1313.13 58.7817C1324.24 52.6713 1320.93 34.6849 1326.24 22.566C1333.13 6.85925 1353.69 4.28264 1368.86 10.285C1384.04 16.2874 1396.66 28.2092 1411.71 34.5541C1430.63 42.5289 1452.88 40.8078 1470.54 30.001" stroke="#EBDEF3" stroke-width="3" stroke-miterlimit="10"/>
<path d="M1446.58 510.738C1413.57 495.169 1377.22 490.186 1341.45 485.371C1313.84 481.655 1286.24 477.938 1258.63 474.222C1225.5 469.762 1192.04 465.296 1158.82 468.879C1125.19 472.507 1092.38 484.484 1063.67 503.609C1046.33 515.157 1030.06 529.836 1020.8 549.35C1011.54 568.863 1010.51 593.925 1022.23 611.851C1029.18 622.477 1039.83 629.713 1050.97 634.783C1078.7 647.413 1109.66 647.938 1139.53 652.101C1169.4 656.266 1200.91 665.605 1220.19 690.443C1231.04 704.418 1237.18 722.361 1249.49 734.87C1275.65 761.471 1317.78 753.842 1352.02 741.775C1386.26 729.706 1424.57 715.106 1456.79 732.422" stroke="#EBDEF3" stroke-miterlimit="10"/>
<path d="M1301.69 569.656C1293.59 569.975 1285.2 571.354 1278.51 576.27C1271.82 581.185 1267.35 590.424 1269.7 598.75C1272.1 607.239 1280.52 612.133 1288.63 613.877C1296.73 615.621 1305.19 615.142 1313.18 617.403C1328.39 621.707 1341.04 635.642 1356.78 635.615C1384.19 635.57 1390.32 598.887 1370.05 583.02C1354.79 571.084 1319.25 568.964 1301.69 569.656Z" stroke="#EBDEF3" stroke-miterlimit="10"/>
<path d="M1340.84 537.937C1312.75 528.997 1286.93 526.738 1258.19 533.621C1229.4 540.518 1200.36 571.898 1217.95 604.763C1230.24 627.709 1254.7 633.822 1276.25 642.033C1293.38 648.561 1305.62 661.01 1321.59 669.138C1344.99 681.048 1373.86 677.009 1396.18 664.189C1414.66 653.573 1437.92 627.024 1431.11 602.367C1424.79 579.458 1397.96 562.748 1379.29 553.237C1366.92 546.937 1353.95 542.108 1340.84 537.937Z" stroke="#EBDEF3" stroke-miterlimit="10"/>
<path d="M1452.07 557.601C1409.86 536.926 1366.87 517.349 1321.69 506.063C1276.5 494.776 1228.7 492.062 1183.92 505.076C1166.58 510.115 1149.41 517.758 1136.42 531.075C1123.43 544.392 1115.24 564.212 1118.64 583.141C1122.03 601.964 1136.06 616.801 1151.73 626.005C1167.4 635.208 1184.95 639.907 1201.75 646.449C1218.54 652.991 1235.32 661.982 1246.1 677.265C1250.1 682.924 1253.17 689.321 1257.54 694.653C1269.21 708.89 1288.49 713.368 1306.08 711.614C1323.68 709.861 1340.37 702.84 1357.34 697.554C1391.16 687.021 1426.8 683.298 1461.87 686.633" stroke="#EBDEF3" stroke-miterlimit="10"/>
<path d="M1150.9 -119.779C1133.77 -107.259 1118.77 -90.4663 1111.03 -69.8244C1103.29 -49.1845 1103.63 -24.4296 1114.85 -5.71859C1121.29 5.03422 1130.92 13.4035 1136.54 24.6754C1143.69 38.9931 1143.49 56.1179 1142.36 72.3125C1141.7 81.7407 1140.88 91.7481 1144.89 100.165C1148.74 108.252 1156.39 113.382 1164 117.338C1174.94 123.018 1187.03 127.175 1199.11 125.771C1213.39 124.112 1226.6 114.203 1232.96 100.385C1237.76 89.9584 1238.7 78.0553 1241.37 66.7814C1244.03 55.5095 1249.25 43.8369 1259.06 38.8997C1265.01 35.9078 1271.92 35.7812 1277.89 32.8371C1297.46 23.1805 1296.39 -9.14853 1313.28 -23.4995C1324.67 -33.1789 1341.25 -31.8646 1354.85 -26.3813C1368.45 -20.8979 1380.67 -11.8559 1394.46 -6.95187C1417.03 1.07277 1443.06 -3.12953 1462.42 -17.9268" stroke="#EBDEF3" stroke-miterlimit="10"/>
<path d="M1196.37 -119.735C1185.38 -113.577 1175.25 -105.673 1166.4 -96.3628C1153.45 -82.7448 1142.8 -63.3362 1147.57 -44.567C1151.37 -29.6057 1164.08 -18.7615 1168.13 -3.87491C1170.29 4.07499 1169.79 12.5647 1171.12 20.7222C1172.45 28.8797 1176.39 37.4754 1183.7 40.1454C1186.64 41.2209 1189.87 41.2084 1192.89 40.4444C1207.67 36.7071 1213.78 18.0522 1224.91 6.96925C1234.35 -2.42156 1247.44 -6.22729 1258.05 -14.0505C1273.93 -25.7688 1283.14 -46.0287 1285.57 -66.5502C1288 -87.0717 1284.31 -107.919 1278.61 -127.681" stroke="#EBDEF3" stroke-miterlimit="10"/>
<path d="M-49.3379 115.266C-42.0539 126.716 -31.5893 135.374 -20.852 143.081C14.4826 168.444 55.3851 185.781 97.7986 188.852C140.212 191.922 184.096 180.042 217.84 152.295C233.743 139.219 247.324 122.823 264.533 111.815C291.851 94.3413 324.995 92.3336 356.261 86.0966C387.529 79.8596 420.975 66.3911 435.725 36.1549C442.214 22.8566 444.549 7.1914 453.145 -4.64936C465.351 -21.4606 487.147 -26.6159 501.552 -41.2866C515.021 -55.0022 520.483 -75.3119 530.883 -91.82C543.027 -111.096 562.32 -125.027 583.533 -129.836" stroke="#EBDEF3" stroke-miterlimit="10"/>
<path d="M-49.5215 89.5887C-43.139 99.5111 -34.081 107.081 -24.7733 113.837C5.84841 136.063 41.3262 151.332 78.1562 154.388C114.986 157.444 152.966 147.472 182.8 124.405C187.656 120.651 192.361 116.632 196.921 112.357C205.946 103.896 214.254 94.8395 223.966 87.7949C227.848 84.992 231.876 82.5545 236.059 80.4326C253.67 71.4591 274.079 68.1848 294.062 64.7113C297.717 64.076 301.358 63.4303 304.977 62.7347C321.018 59.6453 337.667 54.7496 351.643 46.1311C362.154 39.6408 371.121 31.0286 377.138 19.7048C383.312 8.10489 385.943 -5.60863 393.676 -16.2369C404.657 -31.3249 423.4 -36.8975 435.658 -50.4739C440.568 -55.9095 444.203 -62.3645 447.403 -69.1497C451.671 -78.1875 455.188 -87.8337 460.06 -96.4376C470.006 -114.067 485.957 -127.224 504.419 -132.506" stroke="#EBDEF3" stroke-miterlimit="10"/>
<path d="M-49.7031 63.9099C-44.2203 72.3041 -36.5687 78.7882 -28.6947 84.5892C-2.78574 103.678 27.2672 116.877 58.5139 119.918C89.7586 122.96 121.878 114.929 147.758 96.5068C152.136 93.3904 156.46 90.1161 160.538 86.3748C168.617 78.9668 175.387 70.5227 183.394 63.7625C186.58 61.0738 189.908 58.6986 193.412 56.6057C208.183 47.7028 226.301 44.1691 244.009 41.0755C247.247 40.5108 250.478 39.9502 253.69 39.3605C267.941 36.7403 282.702 32.8536 295.279 25.6428C304.711 20.2197 312.856 12.8948 318.547 3.24238C324.405 -6.6571 327.331 -18.4211 334.203 -27.8347C343.959 -41.1994 359.649 -47.1914 369.76 -59.6696C373.809 -64.6608 376.777 -70.4826 379.327 -76.5743C382.728 -84.6737 385.43 -93.288 389.23 -101.066C396.98 -117.048 409.59 -129.433 425.3 -135.184" stroke="#EBDEF3" stroke-miterlimit="10"/>
<path d="M-49.8872 38.2332C-45.304 45.0993 -39.0589 50.4975 -32.6185 55.3434C-11.4223 71.2952 13.2059 82.4238 38.8691 85.453C64.5304 88.4822 90.8495 82.4487 112.713 68.6147C116.621 66.1419 120.558 63.6069 124.153 60.4011C131.284 54.0458 136.525 46.2288 142.822 39.7385C145.314 37.1702 147.943 34.8593 150.762 32.7852C162.718 23.9902 178.522 20.1575 193.953 17.446C196.776 16.9497 199.595 16.4784 202.4 15.9926C214.863 13.8416 227.734 10.964 238.913 5.16088C247.267 0.804946 254.585 -5.23482 259.954 -13.2159C265.497 -21.4149 268.718 -31.2293 274.727 -39.4283C283.259 -51.0677 295.894 -57.4791 303.859 -68.8631C307.047 -73.4121 309.348 -78.6027 311.25 -83.9967C313.786 -91.1577 315.688 -98.7339 318.4 -105.689C323.983 -120.013 333.221 -131.638 346.18 -137.858" stroke="#EBDEF3" stroke-miterlimit="10"/>
<path d="M-50.0708 12.5543C-46.3872 17.8903 -41.5486 22.2026 -36.5398 26.0976C-20.0565 38.9121 -0.853111 47.9708 19.2267 50.9875C39.3046 54.0022 59.9145 50.0677 77.6727 40.7205C81.1261 38.9038 84.6588 37.0954 87.7716 34.4254C93.9567 29.1227 97.6693 21.941 102.254 15.7123C104.056 13.2665 105.981 11.0096 108.116 8.96455C117.238 0.238135 130.746 -3.85204 143.902 -6.18365C146.307 -6.60928 148.715 -6.99547 151.114 -7.37542C161.788 -9.05925 172.773 -10.9278 182.549 -15.3191C189.823 -18.6078 196.318 -23.3603 201.363 -29.6721C206.591 -36.1728 210.108 -44.0355 215.254 -51.0199C222.561 -60.936 232.144 -67.7648 237.961 -78.0546C240.288 -82.1614 241.921 -86.7166 243.173 -91.4172C244.843 -97.6397 245.934 -104.186 247.57 -110.311C250.96 -122.993 256.855 -133.839 267.06 -140.531" stroke="#EBDEF3" stroke-miterlimit="10"/>
<path d="M-50.2544 -13.1224C-47.4704 -9.31462 -44.0403 -6.09023 -40.4631 -3.1482C-28.6946 6.5312 -14.914 13.5177 -0.419555 16.5199C14.073 19.5222 29.0878 17.884 42.6266 12.8263C45.6446 11.6989 48.7556 10.584 51.3848 8.44964C56.6238 4.19959 58.8177 -2.34055 61.681 -8.3118C62.7934 -10.6309 64.0084 -12.8421 65.4652 -14.854C71.7432 -23.5223 82.9661 -27.8595 93.8466 -29.8112C95.8355 -30.1683 97.832 -30.4673 99.8267 -30.7414C108.713 -31.958 117.807 -32.8155 126.184 -35.7991C132.381 -38.0206 138.05 -41.4879 142.772 -46.1263C147.682 -50.9265 151.496 -56.8396 155.781 -62.6095C161.863 -70.8023 168.393 -78.0483 172.063 -87.2419C173.529 -90.9065 174.495 -94.8285 175.096 -98.8356C175.901 -104.12 176.172 -109.638 176.741 -114.931C177.927 -125.972 180.488 -136.04 187.941 -143.201" stroke="#EBDEF3" stroke-miterlimit="10"/>
<path d="M-84.972 530.145C-66.3974 555.581 -44.646 583.018 -14.742 586.818C9.73139 589.928 33.4658 576.069 58.1056 575.515C81.778 574.983 104.139 586.693 127.571 590.335C160.284 595.415 194.027 584.239 221.447 564.432C268.49 530.45 298.102 470.308 297.755 409.451C297.632 387.792 293.993 365.898 297.819 344.633C300.688 328.692 307.614 313.974 312.401 298.572C321.36 269.746 322.693 238.239 316.206 208.661C314.401 200.429 311.851 192.053 306.502 185.843C296.711 174.476 279.871 173.365 266.199 178.302C252.527 183.239 240.952 193.045 228.771 201.336C179.679 234.751 119.301 243.992 61.201 241.839C43.1642 241.171 24.9397 239.437 7.88186 233.115C-15.1077 224.592 -34.7329 208.239 -53.8937 192.163C-62.1586 185.228 -72.4548 182.637 -82.7607 184.747C-93.0666 186.856 -102.183 193.245 -110.225 200.476C-141.534 228.634 -160.267 272.229 -159.897 316.064C-159.747 334.063 -156.56 351.877 -152.629 369.376C-140.071 425.293 -118.031 484.873 -84.972 530.145Z" stroke="#EBDEF3" stroke-miterlimit="10"/>
<path d="M26.1259 266.326C7.59963 260.326 -8.84495 248.72 -24.8813 236.991C-31.7532 231.964 -40.1264 230.144 -48.5209 231.881C-56.9347 233.625 -64.4548 238.588 -71.1525 244.206C-97.4736 266.15 -114.075 300.073 -114.998 335.506C-115.334 349.967 -113.206 364.476 -110.271 378.985C-99.7003 422.785 -82.6599 469.745 -56.5691 505.448C-41.8057 525.648 -24.3435 547.06 -0.649747 550.372C18.7433 553.081 37.6565 542.816 57.2217 542.233C76.5566 541.587 94.7076 549.585 113.601 551.345C139.921 553.843 166.899 543.813 189.368 527.857C226.636 501.223 251.175 455.51 252.494 408.141C252.955 391.293 250.655 374.278 253.843 357.751C256.29 345.258 261.684 333.698 265.389 321.643C272.363 298.902 273.201 274.241 267.877 251.151C266.395 244.727 264.335 238.206 260.152 233.318C252.51 224.388 239.521 223.184 228.859 226.554C218.218 229.94 209.108 237.012 199.51 242.983C160.952 267.113 113.489 273.637 67.9281 272.343C53.7702 271.942 39.5331 270.668 26.1259 266.326Z" stroke="#EBDEF3" stroke-miterlimit="10"/>
<path d="M44.3676 299.54C30.2678 296.083 17.0599 289.198 4.13057 281.819C-1.34064 278.696 -7.79853 277.65 -14.2816 279.018C-20.8052 280.397 -26.7156 283.953 -32.0823 287.938C-53.3674 303.744 -67.9702 327.913 -70.1003 354.95C-70.9612 365.869 -69.8546 377.077 -67.9141 388.598C-59.3339 420.279 -47.2907 454.622 -28.1685 480.755C-17.2164 495.719 -4.04336 511.108 13.4401 513.929C27.7508 516.24 41.8487 509.625 56.3354 508.953C71.3367 508.255 85.274 512.478 99.6272 512.36C119.554 512.277 139.808 503.455 157.288 491.284C184.843 472.097 204.246 440.715 207.233 406.831C208.278 394.791 207.273 382.645 209.866 370.871C211.859 361.818 215.755 353.424 218.378 344.714C223.37 328.061 223.71 310.243 219.547 293.645C218.39 289.03 216.815 284.36 213.801 280.795C208.309 274.305 199.165 272.985 191.518 274.805C183.905 276.618 177.251 280.951 170.25 284.628C142.182 299.371 107.679 303.281 74.6546 302.843C64.3758 302.712 54.1008 301.925 44.3676 299.54Z" stroke="#EBDEF3" stroke-miterlimit="10"/>
<path d="M62.6114 332.753C52.8646 331.916 43.0056 329.645 33.1446 326.649C29.0915 325.418 24.5315 325.158 19.958 326.155C15.3264 327.168 11.0121 329.3 6.98997 331.669C-9.31339 341.274 -21.7842 355.749 -25.2008 374.394C-26.5531 381.769 -26.499 389.675 -25.5548 398.208C-18.9635 417.773 -11.9194 439.498 0.234145 456.059C7.3769 465.786 16.2589 475.15 27.5322 477.483C36.7605 479.395 46.041 476.374 55.4493 475.669C66.115 474.867 75.8367 475.336 85.6551 473.368C99.1822 470.659 112.686 463.039 125.209 454.707C142.991 442.877 157.319 425.916 161.972 405.519C163.602 398.287 163.927 391.016 165.889 383.986C167.454 378.378 169.824 373.146 171.366 367.783C174.373 357.215 174.218 346.244 171.217 336.133C170.385 333.324 169.298 330.511 167.452 328.268C164.109 324.216 158.82 322.796 154.179 323.055C149.599 323.31 145.409 324.905 140.992 326.273C123.468 331.696 101.869 332.925 81.3834 333.343C74.9816 333.482 68.6204 333.268 62.6114 332.753Z" stroke="#EBDEF3" stroke-miterlimit="10"/>
<path d="M16.8066 407.821C21.4092 415.269 23.4541 424.375 28.639 431.366C34.6984 439.538 44.9385 443.89 54.5692 442.389C69.4545 440.067 79.892 425.791 93.1347 418.134C101.078 413.541 110.396 411.121 116.714 404.209C141.613 376.971 103.444 355.926 80.8554 365.965C58.7849 375.775 17.1317 372.008 16.8066 407.821Z" stroke="#EBDEF3" stroke-miterlimit="10"/>
<path d="M544.492 128.271C554.577 140.843 560.457 156.67 569.668 169.991C578.879 183.312 593.628 194.588 608.796 191.393C613.008 190.506 617.158 188.525 621.418 189.092C628.731 190.064 633.376 198.033 635.553 205.588C640.941 224.291 637.806 244.443 638.907 263.982C640.008 283.521 647.683 305.372 664.946 311.696C672.485 314.459 681.317 314.015 687.541 319.353C698.938 329.13 692.619 349.357 682.433 360.568C667.956 376.501 648.207 385.635 632.349 399.975C610.079 420.117 596.695 449.334 576.439 471.792C553.351 497.39 521.288 513.435 488.174 515.96C455.061 518.485 421.206 507.464 394.98 485.624C378.216 471.666 364.737 453.725 352.135 435.406C347.639 428.87 343.111 421.967 341.784 413.969C340.614 406.912 342.057 399.683 343.649 392.721C348.465 371.674 354.714 351.005 362.33 330.934C366.652 319.546 371.472 308.123 372.66 295.892C373.898 283.15 371.114 270.41 368.763 257.851C362.321 223.423 359.695 185.064 377.601 155.673C408.458 105.024 503.582 77.2747 544.492 128.271Z" stroke="#EBDEF3" stroke-miterlimit="10"/>
<path d="M414.1 201.161C434.683 162.215 502.583 141.368 534.414 175.576C542.215 183.96 547.172 194.675 554.314 203.802C561.521 212.944 572.355 220.815 583.346 219.194C586.416 218.741 589.444 217.53 592.514 218.124C598.202 219.225 601.98 225.321 604.016 231.148C608.162 243.014 607.986 255.949 608.046 268.843C608.061 271.67 608.096 274.448 608.179 277.177C608.668 293.34 611.934 309.074 621.474 314.663C625.693 317.134 630.48 317.713 634.131 321.84C640.792 329.373 636.74 342.8 629.65 350.821C619.568 362.225 606.078 369.172 595.238 379.616C588.059 386.53 582.22 394.797 576.605 403.297C570.312 412.829 564.289 422.671 556.965 431.243C541.164 449.732 519.245 461.573 496.315 464.619C472.921 467.727 448.053 461.575 428.813 445.956C416.259 435.817 406.646 422.048 398.185 408.141C395.167 403.208 392.182 398.034 391.356 392.131C390.627 386.922 391.66 381.601 392.792 376.458C394.163 370.227 395.69 364.038 397.336 357.896C399.799 348.705 402.525 339.628 405.531 330.696C408.375 322.239 411.508 313.762 412.19 304.747C412.902 295.356 410.906 285.965 409.19 276.695C404.483 251.275 402.389 223.317 414.1 201.161Z" stroke="#EBDEF3" stroke-miterlimit="10"/>
<path d="M450.599 246.652C460.837 219.299 501.523 205.472 524.337 222.881C529.839 227.079 533.863 232.708 538.961 237.612C544.144 242.601 551.089 247.05 557.895 246.99C559.826 246.974 561.73 246.565 563.608 247.152C567.679 248.423 570.583 252.606 572.477 256.703C576.338 265.049 577.317 274.556 577.439 284.146C577.468 286.306 577.472 288.378 577.449 290.369C577.294 303.161 576.035 312.639 578 317.626C578.838 319.752 580.248 320.833 580.718 324.322C583.671 328.482 580.86 336.239 576.865 341.066C571.179 347.941 563.949 352.704 558.125 359.248C554.27 363.575 551.118 368.595 548.092 373.719C544.695 379.479 541.437 385.406 537.49 390.684C528.98 402.062 517.169 409.783 504.454 413.269C490.736 417.029 474.924 415.636 462.642 406.277C454.318 399.932 448.579 390.346 444.232 380.864C442.704 377.529 441.251 374.089 440.924 370.281C440.636 366.922 441.257 363.508 441.932 360.18C442.746 356.152 443.642 352.143 444.548 348.157C445.904 342.188 447.285 336.276 448.728 330.442C450.096 324.919 451.537 319.386 451.717 313.585C451.905 307.543 450.694 301.502 449.611 295.52C446.645 279.128 445.037 261.507 450.599 246.652Z" stroke="#EBDEF3" stroke-miterlimit="10"/>
<path d="M487.096 292.14C487.723 307.685 493.163 322.941 491.757 338.425C491.296 343.491 490.105 348.508 490.279 353.594C490.453 358.681 492.337 364.108 496.472 366.604C501.74 369.785 508.722 366.905 512.591 361.924C516.46 356.941 518.004 350.407 519.577 344.145C521.15 337.883 523.017 331.374 527.306 326.807C536.809 316.687 547.334 316.486 546.835 299.454C546.56 290.086 541.948 281.179 534.702 276.186C519.589 265.77 486.106 267.559 487.096 292.14Z" stroke="#EBDEF3" stroke-miterlimit="10"/>
<path d="M298.293 556.459C286.571 574.113 276.2 592.799 267.314 612.268C263.831 619.896 260.513 627.942 260.459 636.436C260.332 656.351 277.304 670.862 292.607 682.127C318.507 701.195 344.408 720.263 370.307 739.332C383.972 749.391 398.373 759.758 414.843 761.736C431.837 763.777 450.079 756.743 465.614 764.41C472.192 767.658 477.514 773.255 483.837 777.044C505.687 790.137 533.114 778.94 554.343 764.722C563.125 758.842 572.518 750.745 572.711 739.639C572.92 727.62 562.107 718.785 551.608 714.595C541.108 710.405 529.353 708.402 520.978 700.419C505.126 685.31 509.355 658.371 506.165 635.877C502.048 606.855 483.521 582.017 461.188 565.067C438.024 547.486 405.059 527.012 378.168 516.705C345.53 504.2 316.187 529.51 298.293 556.459Z" stroke="#EBDEF3" stroke-miterlimit="10"/>
<path d="M329.836 595.596C324.328 605.971 318.903 616.385 314.976 627.265C313.436 631.527 311.913 635.979 312.317 640.592C313.335 652.24 324.305 659.947 333.953 666.157C350.183 676.638 366.291 687.602 382.164 698.993C390.54 705.001 399.199 711.377 408.847 713.478C418.455 715.569 428.687 713.015 437.763 717.519C441.626 719.435 444.892 722.442 448.67 724.464C461.729 731.448 477.756 725.332 490.227 716.971C495.98 713.109 501.67 707.945 502.508 701.156C503.429 693.686 498.488 687.619 493.312 683.844C488.16 680.086 482.055 677.389 477.379 671.734C468.624 661.145 469.108 644.77 465.424 631.262C462.903 622.02 458.131 613.715 452.143 606.75C446.747 600.471 440.049 594.911 432.746 590.395C416.928 580.585 395.461 570.044 377.945 565.86C357.128 560.884 339.819 576.79 329.836 595.596Z" stroke="#EBDEF3" stroke-miterlimit="10"/>
<path d="M618.772 -68.07C611.373 -56.6361 608.617 -42.1544 600.4 -31.385C590.158 -17.9621 573.354 -12.6553 560.929 -1.55573C558.478 0.634695 556.143 3.13656 554.897 6.2862C551.832 14.0285 556.329 23.0393 562.386 28.3773C576.944 41.2085 599.762 41.0008 611.776 56.5726C616.965 63.2954 619.3 72.0613 624.034 79.1599C640.153 103.321 674.784 98.8572 699.269 112.733C712.359 120.151 722.522 133.308 726.89 148.487C733.843 172.651 727.991 203.555 746.159 219.659C751.216 224.141 757.529 226.676 763.875 228.458C784.605 234.279 807.083 232.672 826.912 223.952C839.545 218.396 850.958 210.135 862.382 202.11C884.537 186.547 907.926 171.332 934.111 167.093C969.02 161.441 1006.8 175.64 1038.95 159.986C1068.8 145.456 1084.63 104.336 1073.06 71.4343C1065.17 49.0151 1046.91 31.7221 1041.04 8.6012C1035.29 -14.0505 1042.53 -38.2262 1052.72 -58.9989C1062.91 -79.7737 1076.15 -98.9498 1083.75 -120.966C1085.06 -124.768 1086.19 -129.049 1084.71 -132.784C1083.83 -135.033 1082.11 -136.764 1080.41 -138.39C1041.01 -176.142 988.576 -196.427 935.868 -200.102C883.16 -203.779 830.187 -191.587 781.178 -170.449C763.577 -162.858 746.987 -153.845 734.476 -138.228C724.361 -125.604 714.909 -116.243 700.25 -109.632C673.281 -97.4715 636.901 -96.0887 618.772 -68.07Z" stroke="#EBDEF3" stroke-miterlimit="10"/>
<path d="M797.762 -141.492C783.953 -135.535 770.847 -128.54 760.77 -116.602C752.677 -106.968 745.064 -99.7865 733.543 -94.6624C712.229 -85.201 683.834 -83.8037 669.204 -62.3375C663.203 -53.5654 660.698 -42.4866 654.12 -34.1692C645.898 -23.788 632.79 -19.4549 623.024 -10.7202C621.097 -8.99694 619.252 -7.04114 618.242 -4.58911C615.808 1.324 619.093 8.21918 623.535 12.355C634.21 22.3002 651.123 22.5099 659.997 34.5749C663.828 39.7842 665.532 46.5278 669.05 52.0215C681.021 70.7242 707.027 67.9773 725.632 78.9253C736.171 85.1976 744.788 95.1905 749.063 106.446C751.199 112.087 752.383 118.168 753.447 124.223C755.734 137.409 757.651 150.516 767.99 158.794C772.209 162.157 777.361 164.128 782.525 165.637C798.933 170.371 816.376 169.904 831.764 164.2C841.557 160.546 850.408 154.899 859.29 149.407C870.633 142.402 882.415 135.472 895.074 130.754C901.65 128.306 908.46 126.438 915.535 125.472C943.131 121.708 973.126 131.826 998.224 118.924C1021.22 107.104 1033.42 75.2504 1025.11 49.5383C1019.45 32.0149 1005.78 18.4239 1002.1 0.45614C998.415 -17.5552 1005.2 -36.3929 1013.64 -52.6871C1022.2 -69.0728 1032.52 -84.3975 1037.87 -102.565C1038.77 -105.623 1039.57 -109.032 1038.38 -112.051C1037.67 -113.857 1036.33 -115.277 1035 -116.623C1005.04 -146.77 964.816 -163.643 923.649 -166.625C922.654 -166.697 921.658 -166.764 920.662 -166.822C878.766 -169.245 836.688 -158.286 797.762 -141.492Z" stroke="#EBDEF3" stroke-miterlimit="10"/>
<path d="M814.348 -112.539C804.33 -108.216 794.684 -103.264 787.067 -94.98C780.977 -88.3568 775.223 -83.3323 766.84 -79.6968C751.176 -72.9325 730.798 -71.4957 719.637 -56.6071C715.046 -50.4822 712.778 -42.8209 707.839 -36.9555C701.635 -29.616 692.225 -26.2546 685.119 -19.8847C683.716 -18.6286 682.36 -17.2188 681.586 -15.4644C679.785 -11.3805 681.857 -6.60305 684.683 -3.66726C691.476 3.39194 702.486 4.01896 708.218 12.5751C710.693 16.2687 711.767 20.9922 714.065 24.883C721.889 38.1294 739.27 37.0975 751.996 45.1201C759.982 50.2463 767.053 57.073 771.236 64.4041C773.32 68.0791 774.78 71.9616 776.094 75.8047C778.953 84.1657 781.579 92.4291 789.818 97.927C793.192 100.18 797.187 101.594 801.173 102.814C813.245 106.512 825.671 107.168 836.614 104.446C843.571 102.717 849.855 99.6627 856.198 96.702C864.303 92.9357 872.749 89.1653 881.972 86.6427C886.764 85.3346 891.761 84.3318 896.958 83.8501C917.241 81.9753 939.449 88.0213 957.497 77.8602C973.651 68.7642 982.216 46.1623 977.165 27.6423C973.725 15.0126 964.688 5.07576 963.164 -7.691C961.56 -21.1242 967.824 -34.5886 974.565 -46.3754C981.438 -58.3988 988.91 -69.8119 991.998 -84.1649C992.493 -86.4716 992.961 -89.015 992.052 -91.3217C991.516 -92.6837 990.557 -93.7986 989.593 -94.8596C968.233 -118.385 938.578 -131.837 907.68 -133.44C906.941 -133.48 906.202 -133.515 905.463 -133.542C874.376 -134.715 843.19 -124.988 814.348 -112.539Z" stroke="#EBDEF3" stroke-miterlimit="10"/>
<path d="M830.936 -83.5836C824.71 -80.8928 818.544 -77.9715 813.365 -73.3561C809.295 -69.7289 805.383 -66.8782 800.138 -64.7293C790.124 -60.662 777.735 -59.2003 770.069 -50.8746C766.875 -47.4073 764.859 -43.1531 761.559 -39.7398C757.372 -35.444 751.659 -33.0522 747.213 -29.0492C746.337 -28.2603 745.472 -27.3986 744.932 -26.3418C743.775 -24.0829 744.623 -21.4253 745.834 -19.6917C748.744 -15.5184 753.849 -14.4741 756.442 -9.42676C757.56 -7.24671 758.001 -4.54761 759.081 -2.2596C762.756 5.52835 771.513 6.21351 778.361 11.3086C783.796 15.2887 789.331 18.9387 793.411 22.3583C795.444 24.0629 797.166 25.7467 798.745 27.3828C802.15 30.9124 805.526 34.3195 811.651 37.056C814.187 38.1896 817.02 39.0408 819.825 39.9876C827.571 42.6016 834.956 44.4058 841.468 44.6882C845.577 44.8667 849.307 44.4204 853.109 43.9927C857.974 43.4632 863.088 42.8549 868.87 42.5268C871.881 42.3607 875.061 42.2216 878.381 42.2237C891.349 42.2362 905.78 44.2563 916.771 36.7923C926.09 30.4639 931.01 17.0701 929.22 5.74221C928.005 -1.99176 923.753 -8.38449 924.229 -15.8402C924.803 -24.8303 930.491 -32.7657 935.488 -40.0678C940.72 -47.7104 945.386 -55.1683 946.125 -65.7695C946.233 -67.3163 946.35 -69.0043 945.723 -70.5967C945.361 -71.5165 944.783 -72.32 944.187 -73.1007C931.354 -89.9203 912.338 -99.9817 891.707 -100.26C891.225 -100.266 890.744 -100.27 890.262 -100.268C869.987 -100.183 849.692 -91.6892 830.936 -83.5836Z" stroke="#EBDEF3" stroke-miterlimit="10"/>
<path d="M808.275 -37.2192C804.613 -33.4861 802.533 -27.3861 804.721 -22.5008C809.028 -18.2673 815.791 -19.2494 821.388 -21.0412C826.985 -22.833 833.045 -25.1646 838.469 -22.8392C846.727 -19.2971 848.621 -7.27158 855.765 -1.58893C861.801 3.21132 871.274 1.9552 876.039 -4.27765C880.413 -9.99768 880.722 -18.4459 885.286 -23.9936C893.601 -34.1007 906.119 -34.6882 898.775 -51.3438C894.354 -61.3699 886.093 -68.236 875.729 -67.0816C866.042 -66.002 856.4 -58.4819 847.522 -54.6305C835.463 -49.3984 817.956 -47.0854 808.275 -37.2192Z" stroke="#EBDEF3" stroke-miterlimit="10"/>
<path d="M1441.37 78.2173C1421.22 68.405 1400.44 60.0751 1379.23 53.3045C1368.01 49.7209 1352.24 48.8469 1348.3 60.6835C1346.86 65.0186 1347.69 69.85 1346.8 74.3513C1344.46 86.1526 1331.7 91.6276 1320.55 93.1121C1317.86 93.4713 1315.03 93.7579 1312.77 95.3586C1308.82 98.1491 1307.91 103.844 1307.48 108.894C1305.9 127.538 1305.74 147.333 1296.53 163.233C1282.61 187.273 1253.01 194.123 1226.65 194.833C1198.24 195.599 1169.72 191.814 1142.34 183.644C1122.72 177.789 1102.4 169.619 1082.57 174.575C1071.97 177.222 1062.48 183.457 1052.15 187.143C1035.86 192.96 1018.28 192.207 1001.14 193.34C949.594 196.749 899.225 218.311 859.644 253.916C846.445 265.788 834.143 279.624 827.656 296.745C819.956 317.067 821.225 340.284 827.11 361.293C832.998 382.3 843.205 401.564 853.331 420.621C860.483 434.084 870.42 449.34 884.856 448.981C890.546 448.839 896.336 446.14 901.761 447.982C909.906 450.75 912.369 461.606 917.84 468.645C926.707 480.049 943.53 480.373 956.09 474.136C968.65 467.899 978.304 456.663 988.74 446.907C1044.27 394.992 1123.09 384.296 1196.73 383.648C1215.15 383.486 1233.9 383.86 1251.45 389.85C1262.19 393.51 1272.25 399.203 1283.05 402.639C1301.65 408.558 1321.44 407.52 1340.83 408.405C1383.64 410.359 1426.04 422.079 1464.4 442.559" stroke="#EBDEF3" stroke-miterlimit="10"/>
<path d="M1435.12 108.593C1425.84 100.007 1416.14 91.1689 1404.31 87.7618C1392.48 84.3547 1377.89 88.1251 1372.2 99.7604C1371.04 102.131 1370.22 104.82 1368.34 106.581C1365.52 109.22 1361.35 108.923 1357.62 109.174C1344.82 110.034 1332.94 119.885 1328.95 132.961C1323.92 149.393 1330.47 169.007 1322.07 183.763C1316.88 192.867 1307.21 197.719 1297.88 201.429C1264.83 214.582 1229.04 219.727 1193.93 216.368C1160.64 213.183 1127.19 202.501 1094.34 209.12C1082.31 211.543 1070.78 216.237 1058.85 219.138C1043.99 222.75 1028.68 223.55 1013.6 225.829C985.548 230.069 958.184 239.501 933.078 253.584C910.278 266.374 888.705 283.76 876.421 308.019C864.138 332.278 863.003 364.395 878.691 386.276C881.229 389.818 884.344 393.167 888.335 394.434C893.717 396.141 899.56 393.743 905.085 394.801C918.256 397.324 923.499 417.391 936.676 419.876C942.709 421.014 948.683 418.018 954.142 415.041C993.979 393.315 1032.98 367.819 1076.73 358.046C1097.92 353.31 1119.67 352.417 1141.31 351.537C1179.22 349.996 1217.81 348.53 1254.48 358.978C1266.87 362.508 1278.93 367.37 1291.47 370.219C1317.89 376.219 1345.33 373.053 1372.21 375.833C1397.04 378.401 1421.4 386.112 1443.55 398.416" stroke="#EBDEF3" stroke-miterlimit="10"/>
<path d="M955.875 289.551C948.179 294.033 940.365 299.093 935.546 306.939C930.727 314.785 929.821 326.174 935.732 333.106C938.901 336.82 943.716 339.028 945.724 343.579C947.318 347.193 946.754 351.514 948.028 355.272C950.054 361.247 956.421 364.482 962.345 364.426C968.269 364.37 973.874 361.719 979.258 359.067C1011.8 343.051 1044.29 325.075 1079.73 319.615C1110.31 314.902 1141.71 319.783 1172.21 314.428C1183.38 312.466 1196.21 307.191 1198.76 295.352C1205.7 263.228 1159.96 239.761 1136.11 241.254C1097.92 243.643 1059.38 247.974 1022.62 259.801C999.51 267.24 977.091 277.197 955.875 289.551Z" stroke="#EBDEF3" stroke-miterlimit="10"/>
<path d="M1444.28 143.098C1435.71 144.412 1427.67 139.024 1419.98 134.747C1412.29 130.47 1402.56 127.256 1395.36 132.43C1390.71 135.775 1388.37 141.87 1383.96 145.568C1380.39 148.554 1375.68 149.802 1372.49 153.242C1368.22 157.847 1367.83 164.975 1366.8 171.37C1364.3 186.759 1356.48 201.085 1345.2 210.951C1333.15 221.486 1317.92 226.67 1303.18 231.94C1288.43 237.211 1273.3 243.097 1262.06 254.606C1250.81 266.114 1244.45 284.79 1250.97 299.93C1257.41 314.9 1273.68 321.662 1288.77 324.816C1315.13 330.33 1342.3 329.199 1368.95 332.791C1395.6 336.382 1423.15 345.705 1440.82 367.412" stroke="#EBDEF3" stroke-miterlimit="10"/>
<path d="M1440.69 196.592C1437.37 190.654 1430.32 187.645 1423.96 188.86C1417.6 190.074 1412.16 195.13 1409.5 201.446C1407.89 205.275 1407.23 209.489 1405.69 213.351C1400.09 227.395 1384.96 233.289 1371.81 239.136C1361 243.94 1350.56 249.667 1340.6 256.244C1332.79 261.399 1324.47 268.614 1324.37 278.451C1324.29 285.511 1328.8 291.939 1334.5 295.481C1340.19 299.023 1346.9 300.129 1353.46 300.626C1369.42 301.834 1385.6 299.837 1401.36 302.831C1416.97 305.797 1431.73 313.749 1443.28 325.41" stroke="#EBDEF3" stroke-miterlimit="10"/>
<path d="M1435.25 240.309C1426.33 243.328 1417.42 246.349 1408.5 249.37C1405.37 250.428 1402.17 251.533 1399.6 253.725C1395.57 257.166 1393.68 262.915 1393.69 268.444C1393.69 271.895 1394.43 275.524 1396.63 278.042C1401.28 283.37 1409.34 281.287 1416.01 279.844C1428.81 277.073 1444.22 279.469 1451.29 291.258" stroke="#EBDEF3" stroke-miterlimit="10"/>
<path d="M1023.1 290.205C1020.74 291.353 1018.28 292.659 1016.85 294.982C1015.41 297.306 1015.52 300.945 1017.72 302.409C1019.34 303.48 1021.42 303.059 1023.28 302.6C1045.88 297.011 1068.66 290.996 1091.92 289.898C1099.25 289.551 1127.24 295.931 1120.08 284.065C1114.68 275.098 1093.23 272.756 1084.56 272.976C1063.87 273.504 1041.79 281.132 1023.1 290.205Z" stroke="#EBDEF3" stroke-miterlimit="10"/>
<path d="M718.603 448.333C692.015 473.644 676.985 511.106 648.931 534.519C634.19 546.821 614.869 556.891 610.543 576.385C608.198 586.951 611.038 598.023 614.73 608.137C617.463 615.623 620.706 622.969 625.231 629.381C645.737 658.437 687.701 662.696 707.063 692.643C713.807 703.076 717.309 716.036 725.94 724.723C734.414 733.25 746.538 736.24 758.142 736.784C769.746 737.328 781.395 735.775 792.972 736.772C821.846 739.257 850.226 757.407 878.207 749.362C895.226 744.468 908.682 730.528 919.547 715.644C929.307 702.273 937.862 687.073 939.597 670.191C942.904 638.022 921.112 608.228 921.168 575.864C921.183 566.354 923.105 556.949 923.313 547.442C923.522 537.935 921.712 527.77 915.523 520.962C909.897 514.772 901.154 511.88 897.23 504.329C896.126 502.201 895.476 499.809 894.191 497.801C888.23 488.491 874.947 493.25 864.444 492.521C828.271 490.013 830.908 437.993 805.855 421.18C780.963 404.477 737.07 430.754 718.603 448.333Z" stroke="#EBDEF3" stroke-miterlimit="10"/>
<path d="M735.205 492.685C728.776 499.059 723.467 506.413 718.377 514.039C709.218 527.782 700.588 542.226 688.256 552.769C678.194 561.357 665.011 568.437 661.814 581.795C660.084 589.029 661.81 596.603 664.104 603.535C665.803 608.67 667.844 613.711 670.744 618.129C683.847 638.213 712.08 641.327 724.392 662.66C727.65 668.304 730.608 674.563 734.39 679.428C736.367 681.984 738.521 684.241 741.069 686.084C743.468 687.822 746.122 689.093 748.931 690.029C754.638 691.917 761.052 692.419 767.359 692.685C775.68 693.059 784.01 692.168 792.285 693.023C806.71 694.518 820.953 701.264 835.111 703.303C841.205 704.179 847.283 704.181 853.335 702.545C865.572 699.242 875.425 689.687 883.448 679.299C890.747 669.913 896.925 659.262 898.31 647.469C901.044 624.777 885.65 603.573 884.607 580.896C884.303 574.285 885.296 567.758 885.112 561.187C884.922 554.609 883.376 547.614 878.917 542.887C874.829 538.568 868.669 536.475 865.74 531.31C864.916 529.854 864.401 528.22 863.453 526.854C859.009 520.445 849.603 523.416 842.044 522.743C816.457 520.463 816.557 485.279 798.242 473.806C782.737 464.181 758.287 475.133 742.754 486.384C739.86 488.487 737.279 490.628 735.205 492.685Z" stroke="#EBDEF3" stroke-miterlimit="10"/>
<path d="M751.804 537.038C748.43 540.717 745.851 544.861 743.338 549.163C738.819 556.949 734.21 564.984 727.58 571.018C722.196 575.89 715.152 579.983 713.082 587.206C711.969 591.109 712.577 595.181 713.479 598.933C714.142 601.715 714.993 604.443 716.257 606.878C722.012 617.957 736.029 620.349 741.723 632.68C743.806 637.193 746.712 641.711 750.28 644.356C752.139 645.735 754.077 646.752 756.202 647.448C758.196 648.106 760.307 648.436 762.476 648.584C766.908 648.885 771.733 648.407 776.579 648.588C781.619 648.777 786.63 648.561 791.602 649.279C800.279 650.533 808.83 654.642 817.422 655.965C821.105 656.529 824.795 656.577 828.469 655.73C835.923 654.015 842.147 648.822 847.353 642.957C852.168 637.532 855.96 631.446 857.026 624.746C859.129 611.521 850.212 598.937 848.049 585.929C847.432 582.225 847.49 578.569 846.914 574.929C846.328 571.281 845.053 567.451 842.317 564.808C839.775 562.351 836.188 561.066 834.257 558.286C833.712 557.503 833.331 556.629 832.725 555.905C829.79 552.396 824.269 553.585 819.656 552.961C804.655 550.932 802.246 532.497 790.64 526.428C780.607 521.182 766.105 526.744 756.418 533.22C754.64 534.418 753.033 535.699 751.804 537.038Z" stroke="#EBDEF3" stroke-miterlimit="10"/>
<path d="M770.073 580.062C769.419 580.35 768.74 580.724 768.404 581.392C767.966 582.256 768.233 583.309 768.297 584.289C768.771 591.485 758.307 595.53 759.05 602.701C759.423 606.311 762.803 608.88 766.165 609.289C769.528 609.696 772.857 608.448 776.015 607.142C779.172 605.836 782.409 604.428 785.792 604.497C790.629 604.594 794.97 607.68 799.728 608.631C803.63 609.411 807.78 608.687 811.25 606.619C823.671 599.219 809.968 587.941 801.983 584.964C792.788 581.536 779.45 575.913 770.073 580.062Z" stroke="#EBDEF3" stroke-miterlimit="10"/>
</g>
</g>
</g>
<defs>
<clipPath id="clip0_156_5498">
<rect width="1428" height="600" rx="8" fill="white"/>
</clipPath>
</defs>
</svg>
