<svg width="1428" height="613" viewBox="0 0 1428 613" fill="none" xmlns="http://www.w3.org/2000/svg">
<g clip-path="url(#clip0_156_4535)">
<g opacity="0.1">
<mask id="mask0_156_4535" style="mask-type:luminance" maskUnits="userSpaceOnUse" x="-23" y="-36" width="1451" height="1050">
<path d="M1427.7 -35.4482H-22.9883V1013.56H1427.7V-35.4482Z" fill="white"/>
</mask>
<g mask="url(#mask0_156_4535)">
<path d="M667.205 -56.3657C645.646 -64.1347 629.262 -46.5722 612.199 -36.145C596.181 -26.3578 579.397 -22.3359 572.227 -1.15011C569.312 7.46225 568.637 17.0292 564.312 24.9136C561.121 30.7314 556.194 35.1477 551.366 39.4402C539.496 49.9954 527.625 60.5505 515.755 71.1077C508.031 77.9766 500.124 85.0784 495.281 94.553C490.437 104.028 489.31 116.557 495.172 125.329C505.395 140.623 527.337 135.366 543.782 141.586C565.227 149.699 575.742 177.091 596.224 187.739C594.835 199.62 594.796 214.541 604.55 220.155C613.206 225.136 623.438 219.135 632.487 215.055C642.988 210.32 655.114 208.222 665.69 212.755C676.267 217.289 684.34 229.875 681.764 241.89C679.702 251.502 671.518 260.508 674.768 269.725C676.191 273.764 679.561 276.579 681.725 280.215C694.532 301.745 664.315 333.054 693.472 344.591C715.308 353.23 741.79 345.432 759.852 366.75C777.409 387.472 768.724 423.287 753.867 442.988C738.824 462.936 711.281 451.338 697.77 474.573C695.435 478.589 694 483.156 691.667 487.172C683.485 501.266 666.476 505.653 655.025 516.748C638.976 532.294 636.003 558.532 622.553 576.747C613.852 588.529 601.386 596.145 590.361 605.353C579.336 614.559 568.999 626.858 567.852 641.899C566.916 654.17 572.686 665.612 572.322 677.697C571.91 691.372 567.426 701.535 569.159 716.028C569.699 720.543 570.583 725.274 573.37 728.679C576.937 733.036 582.678 734.178 587.558 736.618C607.889 746.787 612.609 779.067 633.247 788.476C644.321 793.524 658.545 791.101 667.091 800.255C674.257 807.933 673.975 821.136 669.083 830.686C664.189 840.237 655.731 846.925 647.394 853.062C600.489 887.589 548.937 914.678 494.884 933.204C491.375 934.406 487.534 935.566 484.101 934.131C477.859 931.523 476.896 922.622 473.708 916.242C468.286 905.384 455.418 901.536 444.058 902.317C432.698 903.097 421.725 907.363 410.365 908.147C371.005 910.86 340.811 873.576 310.15 846.669C284.757 824.384 255.215 807.684 223.83 797.869C217.366 795.847 210.309 793.753 206.29 787.9C200.715 779.786 203.389 768.453 202.804 758.355C201.826 741.464 189.86 726.006 174.694 722.036C166.833 719.98 158.613 720.778 150.537 720.331C116.142 718.424 78.8731 694.691 49.9676 715.002C42.5652 720.203 36.2499 728.15 27.5438 729.673C20.9326 730.829 14.3484 727.972 8.17037 725.171C-19.9053 712.444 -47.979 699.718 -76.0547 686.993" stroke="#EBDEF3" stroke-width="3.89373" stroke-miterlimit="10"/>
<path d="M1460.72 555.838C1441.23 557.285 1424.19 542.836 1405.9 535.359C1384.08 526.434 1360.07 527.466 1336.85 525.142C1279.24 519.378 1223.98 492.41 1166.14 493.65C1120.1 494.636 1075.84 513.584 1035.64 537.918C1016.05 549.772 996.79 563.302 982.71 582.241C961.109 611.297 953.96 652.283 964.285 687.889C974.61 723.496 1002.1 752.663 1035.15 763.076C1068.18 773.482 1103.49 765.801 1137.85 767.353C1172.22 768.906 1211.13 785.04 1220.85 820.826C1222.66 827.48 1223.37 834.584 1226.41 840.683C1231.34 850.531 1241.32 855.881 1250.77 860.4C1269.57 869.388 1289.99 877.673 1310.2 873.687C1329.13 869.953 1344.82 856.051 1362.39 847.535C1396.64 830.932 1439.15 836.515 1468.76 861.508" stroke="#EBDEF3" stroke-width="3.89373" stroke-miterlimit="10"/>
<path d="M1138.14 -61.1597C1121.05 -41.4887 1102.86 -22.3778 1090.66 1.19759C1078.46 24.773 1072.97 54.2103 1082.97 78.9774C1092.96 103.738 1117.69 124.326 1113.4 150.95C1112.01 159.543 1107.57 167.302 1106.32 175.918C1104.13 191.051 1112.46 206.174 1123.8 215.294C1135.15 224.412 1149.12 228.675 1162.78 232.54C1184.13 238.576 1206.42 244.106 1228.07 239.501C1249.72 234.896 1270.59 217.4 1273.31 193.653C1274.59 182.548 1271.87 171.343 1272.23 160.16C1272.6 148.978 1277.53 136.444 1287.52 133.641C1295.8 131.317 1305.24 136.388 1312.86 132.154C1323.96 125.979 1320.65 107.804 1325.96 95.558C1332.85 79.6865 1353.4 77.0829 1368.58 83.1482C1383.75 89.2136 1396.36 101.26 1411.42 107.672C1430.33 115.73 1452.58 113.991 1470.23 103.071" stroke="#EBDEF3" stroke-width="3.89373" stroke-miterlimit="10"/>
<path d="M1446.27 588.852C1413.27 573.119 1376.93 568.084 1341.17 563.218C1313.57 559.463 1285.97 555.707 1258.37 551.952C1225.25 547.445 1191.79 542.933 1158.57 546.554C1124.96 550.219 1092.15 562.322 1063.45 581.647C1046.11 593.316 1029.85 608.149 1020.59 627.869C1011.33 647.586 1010.3 672.911 1022.02 691.025C1028.96 701.763 1039.62 709.075 1050.75 714.198C1078.47 726.96 1109.43 727.491 1139.29 731.698C1169.16 735.906 1200.66 745.343 1219.93 770.442C1230.78 784.563 1236.93 802.694 1249.23 815.335C1275.38 842.215 1317.51 834.507 1351.74 822.313C1385.97 810.117 1424.27 795.364 1456.49 812.861" stroke="#EBDEF3" stroke-width="1.29791" stroke-miterlimit="10"/>
<path d="M1340.56 616.336C1312.48 607.302 1286.66 605.02 1257.93 611.974C1229.15 618.944 1200.11 650.653 1217.7 683.863C1229.98 707.05 1254.44 713.227 1275.98 721.524C1293.11 728.121 1305.35 740.7 1321.32 748.914C1344.71 760.948 1373.57 756.868 1395.89 743.912C1414.37 733.185 1437.62 706.358 1430.81 681.442C1424.49 658.292 1397.67 641.408 1379 631.797C1366.64 625.431 1353.66 620.551 1340.56 616.336Z" stroke="#EBDEF3" stroke-width="1.29791" stroke-miterlimit="10"/>
<path d="M1451.76 636.206C1409.57 615.314 1366.59 595.532 1321.41 584.127C1276.23 572.722 1228.45 569.98 1183.67 583.131C1166.34 588.222 1149.16 595.945 1136.18 609.402C1123.19 622.859 1115 642.886 1118.41 662.014C1121.8 681.035 1135.82 696.027 1151.49 705.328C1167.15 714.628 1184.7 719.376 1201.49 725.987C1218.28 732.598 1235.06 741.682 1245.84 757.126C1249.84 762.845 1252.91 769.309 1257.28 774.696C1268.95 789.083 1288.22 793.608 1305.81 791.835C1323.4 790.064 1340.09 782.969 1357.06 777.627C1390.86 766.984 1426.5 763.222 1461.56 766.592" stroke="#EBDEF3" stroke-width="1.29791" stroke-miterlimit="10"/>
<path d="M1150.66 -48.28C1133.53 -35.629 1118.54 -18.6602 1110.8 2.19827C1103.06 23.0547 1103.4 48.0693 1114.61 66.9766C1121.06 77.8423 1130.68 86.2994 1136.31 97.6895C1143.45 112.157 1143.25 129.462 1142.12 145.826C1141.46 155.354 1140.64 165.466 1144.65 173.971C1148.5 182.143 1156.15 187.327 1163.76 191.324C1174.7 197.064 1186.78 201.264 1198.86 199.846C1213.14 198.17 1226.35 188.156 1232.7 174.194C1237.5 163.657 1238.45 151.63 1241.11 140.237C1243.77 128.847 1248.99 117.052 1258.8 112.063C1264.74 109.04 1271.66 108.912 1277.62 105.937C1297.19 96.1789 1296.12 63.5107 1313.01 49.0092C1324.4 39.2283 1340.97 40.5563 1354.57 46.0972C1368.17 51.638 1380.38 60.7749 1394.17 65.7304C1416.73 73.8393 1442.75 69.5929 1462.12 54.6403" stroke="#EBDEF3" stroke-width="1.29791" stroke-miterlimit="10"/>
<path d="M1196.12 -48.236C1185.13 -42.0133 1175 -34.0262 1166.15 -24.6186C1153.21 -10.8578 1142.56 8.75451 1147.33 27.7206C1151.12 42.8389 1163.84 53.7968 1167.88 68.8396C1170.04 76.8729 1169.55 85.4517 1170.87 93.6948C1172.2 101.938 1176.15 110.624 1183.45 113.322C1186.39 114.409 1189.62 114.396 1192.64 113.624C1207.42 109.847 1213.52 90.9968 1224.66 79.7976C1234.09 70.3082 1247.18 66.4626 1257.78 58.5572C1273.67 46.716 1282.87 26.2436 1285.3 5.50679C1287.73 -15.23 1284.04 -36.2962 1278.34 -56.2651" stroke="#EBDEF3" stroke-width="1.29791" stroke-miterlimit="10"/>
<path d="M1312.11 -49.0334C1312.02 -18.5472 1329.64 11.1671 1355.25 23.7279C1370.02 30.9702 1386.51 32.7053 1402.68 33.8928C1420.18 35.1789 1438.82 35.6593 1453.98 26.0965" stroke="#EBDEF3" stroke-width="1.29791" stroke-miterlimit="10"/>
<path d="M1223.51 -47.6171C1223.66 -36.4682 1214.85 -27.9691 1209.88 -18.2071C1206.64 -11.827 1204.99 -4.64548 1203.77 2.52134C1202.09 12.3694 1201.93 24.3869 1209.4 30.2739C1214.43 34.2392 1221.59 33.8489 1227.1 30.725C1232.61 27.601 1236.72 22.1798 1240.06 16.4899C1253.21 -5.92108 1256.33 -34.922 1248.29 -60.0164" stroke="#EBDEF3" stroke-width="1.29791" stroke-miterlimit="10"/>
<path d="M-49.3267 189.23C-42.0442 200.801 -31.5818 209.549 -20.8467 217.337C14.4804 242.967 55.3744 260.485 97.779 263.588C140.184 266.691 184.058 254.686 217.795 226.648C233.695 213.435 247.273 196.867 264.479 185.743C291.79 168.086 324.928 166.058 356.187 159.755C387.449 153.453 420.888 139.843 435.635 109.289C442.122 95.8516 444.457 80.0221 453.051 68.0571C465.254 51.0694 487.045 45.8601 501.448 31.0355C514.914 17.176 520.374 -3.34684 530.773 -20.0282C542.914 -39.5062 562.203 -53.5839 583.412 -58.4429" stroke="#EBDEF3" stroke-width="1.29791" stroke-miterlimit="10"/>
<path d="M-49.5107 163.284C-43.1296 173.311 -34.0735 180.96 -24.7678 187.787C5.84754 210.246 41.3179 225.675 78.1402 228.763C114.963 231.852 152.934 221.775 182.762 198.466C187.617 194.673 192.321 190.611 196.88 186.291C205.903 177.742 214.209 168.59 223.919 161.472C227.801 158.639 231.828 156.176 236.01 154.032C253.617 144.964 274.022 141.656 294.001 138.146C297.655 137.504 301.295 136.851 304.914 136.149C320.951 133.027 337.597 128.08 351.57 119.371C362.079 112.812 371.044 104.11 377.059 92.6671C383.232 80.9455 385.862 67.0881 393.593 56.3483C404.572 41.102 423.311 35.471 435.567 21.752C440.476 16.2594 444.11 9.73669 447.31 2.88037C451.577 -6.2523 455.093 -15.9997 459.963 -24.6939C469.907 -42.5081 485.855 -55.8033 504.314 -61.1406" stroke="#EBDEF3" stroke-width="1.29791" stroke-miterlimit="10"/>
<path d="M-49.6924 137.336C-44.2107 145.818 -36.5608 152.37 -28.6883 158.232C-2.78485 177.521 27.2618 190.858 58.5019 193.932C89.7401 197.005 121.853 188.89 147.727 170.275C152.104 167.125 156.427 163.817 160.505 160.036C168.582 152.551 175.35 144.018 183.356 137.187C186.542 134.47 189.869 132.07 193.371 129.955C208.14 120.959 226.254 117.388 243.958 114.262C247.196 113.691 250.426 113.125 253.637 112.529C267.885 109.881 282.643 105.954 295.218 98.6671C304.647 93.1871 312.79 85.7853 318.481 76.0316C324.338 66.0283 327.262 54.1409 334.133 44.6285C343.887 31.1235 359.574 25.0687 369.682 12.4596C373.731 7.41594 376.698 1.53311 379.247 -4.62248C382.648 -12.8068 385.35 -21.5115 389.149 -29.3707C396.897 -45.5212 409.505 -58.0359 425.211 -63.8474" stroke="#EBDEF3" stroke-width="1.29791" stroke-miterlimit="10"/>
<path d="M-49.8765 111.39C-45.2942 118.328 -39.0505 123.783 -32.6113 128.68C-11.4197 144.799 13.2034 156.044 38.8612 159.105C64.5171 162.166 90.8307 156.069 112.69 142.09C116.597 139.591 120.533 137.03 124.127 133.79C131.257 127.368 136.496 119.469 142.792 112.911C145.284 110.316 147.912 107.98 150.731 105.885C162.684 96.9974 178.485 93.1244 193.913 90.3844C196.735 89.883 199.553 89.4067 202.358 88.9158C214.818 86.7423 227.687 83.8344 238.863 77.9705C247.215 73.5688 254.532 67.4657 259.9 59.4009C265.441 51.1158 268.662 41.1985 274.67 32.9135C283.2 21.152 295.832 14.6733 303.796 3.16987C306.983 -1.42689 309.283 -6.67192 311.185 -12.1226C313.72 -19.3586 315.622 -27.0143 318.334 -34.0426C323.916 -48.5169 333.152 -60.2637 346.107 -66.5493" stroke="#EBDEF3" stroke-width="1.29791" stroke-miterlimit="10"/>
<path d="M-50.0601 85.4415C-46.3772 90.8334 -41.5397 95.191 -36.5319 99.1269C-20.0521 112.076 -0.852695 121.229 19.2229 124.278C39.2966 127.324 59.9021 123.348 77.6566 113.903C81.1093 112.067 84.6412 110.24 87.7534 107.542C93.9372 102.184 97.6491 94.9266 102.233 88.6326C104.034 86.1611 105.959 83.8806 108.094 81.814C117.214 72.9961 130.719 68.863 143.872 66.5069C146.276 66.0768 148.684 65.6866 151.083 65.3026C161.754 63.6011 172.737 61.7129 182.51 57.2756C189.783 53.9524 196.277 49.15 201.321 42.772C206.547 36.2031 210.064 28.2579 215.209 21.2002C222.515 11.1801 232.095 4.2797 237.911 -6.11808C240.238 -10.268 241.871 -14.871 243.122 -19.6209C244.791 -25.9087 245.882 -32.5237 247.519 -38.7129C250.908 -51.5276 256.801 -62.4876 267.004 -69.2495" stroke="#EBDEF3" stroke-width="1.29791" stroke-miterlimit="10"/>
<path d="M-50.2441 59.4951C-47.4608 63.3429 -44.0313 66.6011 -40.4549 69.574C-28.6888 79.3549 -14.9112 86.4148 -0.419754 89.4485C14.0697 92.4822 29.0815 90.8269 42.6173 85.7161C45.6348 84.5769 48.7451 83.4503 51.3737 81.2935C56.6117 76.9989 58.8051 70.3901 61.6678 64.3562C62.78 62.0127 63.9947 59.7783 65.4512 57.7454C71.7278 48.9861 82.9484 44.6034 93.8267 42.6312C95.8151 42.2704 97.8112 41.9683 99.8054 41.6913C108.689 40.4619 117.782 39.5954 126.158 36.5806C132.353 34.3357 138.02 30.832 142.742 26.145C147.651 21.2944 151.463 15.3193 155.748 9.48888C161.829 1.2101 168.357 -6.11198 172.027 -15.402C173.493 -19.105 174.458 -23.0682 175.059 -27.1173C175.864 -32.4568 176.135 -38.0333 176.704 -43.3812C177.889 -54.5384 180.45 -64.7117 187.901 -71.9478" stroke="#EBDEF3" stroke-width="1.29791" stroke-miterlimit="10"/>
<path d="M-50.4277 33.549C-36.153 51.0087 -13.7833 60.2568 7.58435 57.5315C10.1801 57.2 12.8532 56.6629 15.0003 55.0474C20.9365 50.5786 19.9887 40.8879 22.8146 33.6749C26.2267 24.9639 35.1823 20.3399 43.7858 18.7538C52.3874 17.1677 61.2695 17.8349 69.8073 15.8858C90.8752 11.0772 107.332 -11.2667 107.001 -34.6155C106.81 -48.2506 101.869 -63.2745 108.802 -74.6499" stroke="#EBDEF3" stroke-width="1.29791" stroke-miterlimit="10"/>
<path d="M-84.9541 608.462C-66.3833 634.165 -44.6365 661.89 -14.7388 665.73C9.72948 668.873 33.4589 654.868 58.0935 654.308C81.761 653.771 104.117 665.604 127.545 669.284C160.251 674.418 193.986 663.124 221.4 643.109C268.434 608.771 298.039 547.997 297.693 486.502C297.569 464.616 293.931 442.492 297.757 421.004C300.625 404.896 307.55 390.023 312.335 374.46C321.293 345.331 322.626 313.494 316.14 283.605C314.335 275.287 311.786 266.823 306.438 260.548C296.649 249.061 279.813 247.939 266.144 252.928C252.474 257.917 240.902 267.826 228.724 276.203C179.642 309.969 119.276 319.307 61.1883 317.132C43.1553 316.456 24.9346 314.704 7.88034 308.316C-15.1044 299.703 -34.7254 283.179 -53.8823 266.934C-62.1454 259.927 -72.4395 257.309 -82.7432 259.44C-93.047 261.572 -102.161 268.027 -110.202 275.335C-141.504 303.788 -160.233 347.84 -159.864 392.136C-159.713 410.323 -156.527 428.324 -152.597 446.006C-140.042 502.51 -118.007 562.715 -84.9541 608.462Z" stroke="#EBDEF3" stroke-width="1.29791" stroke-miterlimit="10"/>
<path d="M26.1202 341.876C7.59783 335.812 -8.84331 324.084 -24.8763 312.233C-31.7468 307.153 -40.1182 305.314 -48.5109 307.07C-56.923 308.832 -64.4414 313.846 -71.1378 319.523C-97.4533 341.697 -114.051 375.977 -114.974 411.782C-115.31 426.394 -113.183 441.055 -110.248 455.716C-99.6796 499.976 -82.6427 547.429 -56.5574 583.506C-41.7972 603.918 -24.3386 625.555 -0.649819 628.901C18.7391 631.639 37.6484 621.267 57.2095 620.677C76.5404 620.024 94.6875 628.106 113.577 629.885C139.891 632.409 166.864 622.274 189.329 606.15C226.588 579.237 251.122 533.045 252.441 485.179C252.902 468.153 250.602 450.96 253.789 434.26C256.236 421.636 261.629 409.954 265.333 397.773C272.306 374.794 273.144 349.873 267.82 326.541C266.339 320.05 264.279 313.46 260.097 308.521C252.457 299.498 239.47 298.281 228.81 301.686C218.172 305.108 209.064 312.254 199.468 318.288C160.918 342.671 113.465 349.263 67.9136 347.956C53.7588 347.551 39.5246 346.263 26.1202 341.876Z" stroke="#EBDEF3" stroke-width="1.29791" stroke-miterlimit="10"/>
<path d="M44.3582 375.438C30.2613 371.944 17.0562 364.987 4.12958 357.531C-1.34048 354.376 -7.79701 353.318 -14.2787 354.701C-20.801 356.094 -26.7101 359.688 -32.0757 363.714C-53.3564 379.686 -67.9561 404.109 -70.0857 431.429C-70.9465 442.463 -69.8401 453.788 -67.9 465.43C-59.3216 497.444 -47.2809 532.147 -28.1627 558.555C-17.2129 573.675 -4.04263 589.226 13.4372 592.077C27.7449 594.412 41.8398 587.728 56.3234 587.048C71.3216 586.343 85.256 590.61 99.6062 590.491C119.529 590.407 139.779 581.492 157.255 569.194C184.804 549.806 204.203 518.094 207.189 483.855C208.234 471.688 207.23 459.415 209.822 447.517C211.814 438.37 215.71 429.887 218.332 421.086C223.323 404.258 223.663 386.253 219.501 369.481C218.344 364.817 216.77 360.099 213.756 356.497C208.265 349.938 199.123 348.604 191.477 350.444C183.866 352.275 177.214 356.654 170.214 360.37C142.152 375.268 107.657 379.218 74.6389 378.776C64.3622 378.643 54.0894 377.848 44.3582 375.438Z" stroke="#EBDEF3" stroke-width="1.29791" stroke-miterlimit="10"/>
<path d="M62.5986 409C52.8538 408.154 42.9969 405.859 33.138 402.832C29.0857 401.587 24.5267 401.325 19.9541 402.332C15.3235 403.356 11.0102 405.511 6.98886 407.905C-9.31108 417.61 -21.7793 432.237 -25.1952 451.078C-26.5472 458.53 -26.493 466.519 -25.5491 475.142C-18.9591 494.911 -11.9165 516.865 0.234449 533.599C7.37571 543.428 16.2559 552.89 27.5267 555.248C36.7531 557.181 46.0317 554.128 55.438 553.415C66.1015 552.605 75.8211 553.079 85.6375 551.09C99.1618 548.352 112.663 540.652 125.183 532.233C142.961 520.279 157.286 503.14 161.938 482.529C163.568 475.222 163.893 467.874 165.855 460.77C167.42 455.104 169.789 449.817 171.331 444.397C174.336 433.719 174.182 422.633 171.182 412.415C170.35 409.577 169.263 406.734 167.418 404.468C164.075 400.373 158.787 398.938 154.147 399.2C149.568 399.458 145.379 401.069 140.963 402.452C123.442 407.932 101.848 409.174 81.3666 409.596C74.9662 409.736 68.6064 409.52 62.5986 409Z" stroke="#EBDEF3" stroke-width="1.29791" stroke-miterlimit="10"/>
<path d="M16.8032 484.856C21.4048 492.381 23.4493 501.583 28.6331 508.647C34.6912 516.905 44.9292 521.302 54.5579 519.786C69.44 517.44 79.8753 503.014 93.1153 495.277C101.057 490.636 110.373 488.189 116.69 481.205C141.584 453.681 103.423 432.416 80.8386 442.56C58.7726 452.473 17.1282 448.667 16.8032 484.856Z" stroke="#EBDEF3" stroke-width="1.29791" stroke-miterlimit="10"/>
<path d="M544.378 202.372C554.461 215.076 560.339 231.069 569.548 244.53C578.757 257.991 593.504 269.385 608.669 266.156C612.88 265.26 617.029 263.259 621.288 263.832C628.599 264.813 633.243 272.866 635.419 280.5C640.806 299.399 637.673 319.763 638.773 339.507C639.874 359.251 647.547 381.331 664.806 387.722C672.344 390.514 681.174 390.065 687.397 395.459C698.791 405.339 692.474 425.778 682.29 437.107C667.816 453.207 648.071 462.436 632.216 476.927C609.951 497.28 596.57 526.803 576.318 549.498C553.235 575.364 521.179 591.578 488.072 594.129C454.965 596.68 421.118 585.544 394.897 563.475C378.137 549.37 364.661 531.241 352.061 512.73C347.566 506.125 343.04 499.149 341.713 491.068C340.543 483.937 341.986 476.631 343.578 469.597C348.392 448.329 354.64 427.443 362.255 407.162C366.576 395.654 371.394 384.111 372.582 371.751C373.82 358.876 371.036 346.003 368.686 333.312C362.245 298.522 359.62 259.761 377.522 230.062C408.373 178.881 503.476 150.841 544.378 202.372Z" stroke="#EBDEF3" stroke-width="1.29791" stroke-miterlimit="10"/>
<path d="M414.014 276.027C434.592 236.673 502.479 215.607 534.303 250.174C542.102 258.645 547.057 269.473 554.199 278.696C561.404 287.934 572.235 295.887 583.224 294.249C586.294 293.791 589.321 292.568 592.39 293.168C598.077 294.28 601.855 300.44 603.889 306.329C608.034 318.319 607.858 331.39 607.918 344.419C607.934 347.276 607.969 350.083 608.052 352.84C608.541 369.173 611.806 385.072 621.344 390.72C625.563 393.216 630.348 393.802 633.998 397.973C640.658 405.584 636.607 419.152 629.518 427.257C619.439 438.781 605.951 445.801 595.114 456.354C587.936 463.341 582.098 471.695 576.485 480.284C570.193 489.916 564.172 499.861 556.848 508.523C541.051 527.206 519.136 539.171 496.212 542.249C472.823 545.39 447.96 539.173 428.724 523.39C416.172 513.145 406.561 499.231 398.102 485.179C395.085 480.194 392.1 474.966 391.275 469.001C390.545 463.737 391.578 458.36 392.71 453.163C394.081 446.867 395.607 440.613 397.253 434.407C399.716 425.119 402.441 415.946 405.447 406.921C408.29 398.375 411.422 389.809 412.104 380.7C412.816 371.21 410.82 361.721 409.104 352.353C404.398 326.667 402.306 298.415 414.014 276.027Z" stroke="#EBDEF3" stroke-width="1.29791" stroke-miterlimit="10"/>
<path d="M450.505 321.995C460.741 294.356 501.418 280.383 524.227 297.975C529.728 302.217 533.751 307.905 538.848 312.86C544.03 317.902 550.974 322.398 557.778 322.337C559.709 322.32 561.612 321.907 563.49 322.501C567.56 323.784 570.463 328.012 572.357 332.151C576.218 340.585 577.196 350.192 577.318 359.883C577.347 362.065 577.351 364.159 577.328 366.171C577.173 379.097 575.914 388.674 577.879 393.713C578.717 395.862 580.127 396.955 580.597 400.48C583.548 404.684 580.738 412.522 576.744 417.4C571.059 424.347 563.831 429.159 558.009 435.772C554.154 440.145 551.003 445.218 547.978 450.396C544.581 456.216 541.324 462.205 537.378 467.539C528.869 479.036 517.061 486.838 504.349 490.361C490.633 494.16 474.824 492.752 462.546 483.295C454.222 476.883 448.486 467.197 444.139 457.615C442.611 454.245 441.159 450.769 440.832 446.921C440.543 443.527 441.164 440.078 441.839 436.714C442.654 432.644 443.549 428.593 444.455 424.565C445.81 418.533 447.191 412.56 448.634 406.665C450.002 401.084 451.443 395.493 451.623 389.631C451.81 383.526 450.6 377.42 449.516 371.376C446.551 354.812 444.944 337.006 450.505 321.995Z" stroke="#EBDEF3" stroke-width="1.29791" stroke-miterlimit="10"/>
<path d="M486.995 367.961C487.621 383.669 493.06 399.085 491.654 414.732C491.194 419.851 490.002 424.92 490.176 430.06C490.351 435.2 492.235 440.684 496.368 443.206C501.635 446.42 508.616 443.51 512.484 438.477C516.353 433.442 517.896 426.839 519.469 420.512C521.041 414.184 522.908 407.607 527.196 402.991C536.697 392.766 547.219 392.562 546.72 375.352C546.446 365.886 541.835 356.885 534.591 351.84C519.48 341.314 486.004 343.122 486.995 367.961Z" stroke="#EBDEF3" stroke-width="1.29791" stroke-miterlimit="10"/>
<path d="M298.231 635.052C286.511 652.892 276.142 671.774 267.258 691.447C263.776 699.155 260.459 707.285 260.405 715.868C260.277 735.992 277.246 750.655 292.546 762.039C318.44 781.307 344.336 800.575 370.229 819.843C383.891 830.008 398.29 840.484 414.756 842.483C431.746 844.545 449.984 837.437 465.516 845.185C472.093 848.467 477.414 854.123 483.735 857.952C505.581 871.182 533.002 859.867 554.227 845.5C563.007 839.558 572.397 831.376 572.591 820.154C572.8 808.008 561.989 799.081 551.492 794.848C540.995 790.614 529.242 788.589 520.869 780.522C505.02 765.255 509.248 738.033 506.058 715.303C501.942 685.977 483.42 660.879 461.091 643.75C437.932 625.984 404.974 605.296 378.088 594.881C345.457 582.245 316.121 607.82 298.231 635.052Z" stroke="#EBDEF3" stroke-width="1.29791" stroke-miterlimit="10"/>
<path d="M618.641 3.97109C611.245 15.5249 608.488 30.1585 600.274 41.041C590.034 54.6046 573.233 59.9672 560.811 71.1832C558.36 73.3966 556.026 75.9247 554.78 79.1074C551.716 86.9309 556.211 96.0363 562.268 101.43C576.823 114.396 599.635 114.186 611.647 129.921C616.835 136.715 619.169 145.573 623.902 152.746C640.019 177.16 674.642 172.65 699.122 186.671C712.209 194.167 722.369 207.462 726.737 222.801C733.689 247.217 727.838 278.446 746.002 294.718C751.058 299.248 757.37 301.81 763.714 303.61C784.439 309.493 806.914 307.869 826.738 299.057C839.368 293.443 850.779 285.095 862.2 276.986C884.351 261.259 907.735 245.885 933.915 241.601C968.816 235.89 1006.59 250.238 1038.73 234.419C1068.57 219.737 1084.41 178.186 1072.83 144.939C1064.95 122.285 1046.69 104.81 1040.82 81.4466C1035.07 58.5573 1042.31 34.128 1052.5 13.1373C1062.69 -7.85543 1075.92 -27.2327 1083.52 -49.4801C1084.83 -53.3216 1085.96 -57.6477 1084.49 -61.422C1083.6 -63.6942 1081.88 -65.4439 1080.18 -67.0866C1040.79 -105.235 988.368 -125.733 935.671 -129.446C882.974 -133.162 830.012 -120.842 781.014 -99.4821C763.416 -91.8118 746.83 -82.7043 734.321 -66.923C724.209 -54.1671 714.758 -44.7071 700.102 -38.027C673.139 -25.7389 636.767 -24.3416 618.641 3.97109Z" stroke="#EBDEF3" stroke-width="1.29791" stroke-miterlimit="10"/>
<path d="M797.595 -70.2213C783.788 -64.2021 770.685 -57.1339 760.61 -45.0703C752.519 -35.3355 744.908 -28.0784 733.389 -22.9005C712.079 -13.3399 683.69 -11.9279 669.064 9.76351C663.064 18.6276 660.559 29.8227 653.982 38.2273C645.762 48.7174 632.657 53.096 622.893 61.9223C620.966 63.6637 619.121 65.64 618.112 68.1178C615.678 74.0929 618.963 81.0604 623.404 85.2397C634.077 95.2892 650.986 95.5011 659.858 107.693C663.688 112.957 665.392 119.771 668.909 125.322C680.878 144.221 706.878 141.446 725.48 152.508C736.016 158.847 744.631 168.944 748.906 180.318C751.041 186.018 752.225 192.163 753.289 198.281C755.575 211.605 757.492 224.85 767.828 233.215C772.047 236.614 777.198 238.605 782.36 240.13C798.765 244.914 816.204 244.441 831.589 238.678C841.38 234.986 850.229 229.279 859.11 223.73C870.45 216.651 882.23 209.648 894.886 204.881C901.46 202.408 908.269 200.519 915.342 199.544C942.932 195.74 972.921 205.964 998.014 192.927C1021.01 180.983 1033.21 148.795 1024.9 122.813C1019.23 105.106 1005.57 91.3722 1001.89 73.216C998.206 55.0156 1004.99 35.9803 1013.43 19.5151C1021.98 2.95754 1032.3 -12.5279 1037.65 -30.8856C1038.55 -33.976 1039.35 -37.4209 1038.16 -40.4714C1037.45 -42.2967 1036.11 -43.7317 1034.78 -45.0913C1004.83 -75.5545 964.613 -92.6051 923.455 -95.6178C922.46 -95.6913 921.464 -95.7584 920.468 -95.8171C878.582 -98.2655 836.512 -87.1922 797.595 -70.2213Z" stroke="#EBDEF3" stroke-width="1.29791" stroke-miterlimit="10"/>
<path d="M814.177 -40.9641C804.161 -36.5961 794.517 -31.5923 786.902 -23.2212C780.813 -16.5285 775.06 -11.4513 766.679 -7.77769C751.018 -0.942353 730.644 0.509472 719.486 15.5544C714.896 21.7435 712.629 29.4852 707.69 35.4121C701.487 42.8286 692.079 46.2253 684.975 52.662C683.572 53.9313 682.216 55.3558 681.443 57.1287C679.642 61.2555 681.713 66.083 684.539 69.0496C691.331 76.1828 702.338 76.8164 708.07 85.4624C710.544 89.1947 711.617 93.9677 713.915 97.8994C721.737 111.285 739.114 110.242 751.838 118.349C759.822 123.529 766.892 130.427 771.074 137.835C773.157 141.549 774.618 145.472 775.931 149.355C778.79 157.804 781.414 166.154 789.652 171.71C793.026 173.986 797.02 175.415 801.005 176.648C813.074 180.385 825.498 181.048 836.438 178.298C843.394 176.55 849.676 173.464 856.019 170.472C864.121 166.666 872.566 162.856 881.787 160.307C886.578 158.985 891.574 157.972 896.769 157.485C917.048 155.591 939.251 161.7 957.296 151.432C973.447 142.241 982.01 119.402 976.96 100.688C973.52 87.9255 964.486 77.8843 962.961 64.9836C961.358 51.4095 967.621 37.8038 974.36 25.8934C981.232 13.7438 988.702 2.21097 991.789 -12.2926C992.285 -14.6235 992.753 -17.1936 991.844 -19.5245C991.308 -20.9008 990.349 -22.0274 989.385 -23.0995C968.029 -46.8721 938.381 -60.4652 907.489 -62.0849C906.75 -62.1247 906.011 -62.1604 905.272 -62.1877C874.193 -63.373 843.013 -53.5438 814.177 -40.9641Z" stroke="#EBDEF3" stroke-width="1.29791" stroke-miterlimit="10"/>
<path d="M830.761 -11.7052C824.536 -8.98619 818.372 -6.03428 813.194 -1.37039C809.124 2.29484 805.213 5.17542 799.969 7.34686C789.958 11.4569 777.571 12.9339 769.907 21.3469C766.714 24.8506 764.698 29.1494 761.398 32.5986C757.213 36.9394 751.501 39.3563 747.056 43.4013C746.18 44.1985 745.315 45.0692 744.776 46.1371C743.619 48.4197 744.466 51.1052 745.677 52.857C748.586 57.0741 753.691 58.1294 756.282 63.2296C757.4 65.4326 757.841 68.16 758.921 70.472C762.596 78.3416 771.35 79.034 778.197 84.1825C783.631 88.2044 789.165 91.8927 793.244 95.3482C795.277 97.0706 796.998 98.7721 798.577 100.425C801.981 103.992 805.356 107.435 811.48 110.2C814.016 111.346 816.848 112.206 819.652 113.162C827.397 115.804 834.78 117.627 841.291 117.912C845.399 118.093 849.128 117.642 852.929 117.21C857.794 116.675 862.906 116.06 868.688 115.728C871.697 115.56 874.877 115.42 878.196 115.422C891.162 115.435 905.589 117.476 916.578 109.934C925.895 103.539 930.814 90.0045 929.025 78.5577C927.81 70.7426 923.558 64.2828 924.034 56.7489C924.609 47.6644 930.295 39.6458 935.292 32.2671C940.522 24.5443 945.187 17.0082 945.926 6.29576C946.034 4.73273 946.151 3.02705 945.524 1.41787C945.162 0.48845 944.584 -0.323485 943.988 -1.11234C931.158 -18.1084 912.146 -28.2754 891.519 -28.5565C891.038 -28.5628 890.556 -28.567 890.075 -28.5649C869.804 -28.4789 849.513 -19.8959 830.761 -11.7052Z" stroke="#EBDEF3" stroke-width="1.29791" stroke-miterlimit="10"/>
<path d="M808.105 35.1454C804.443 38.9176 802.364 45.0816 804.552 50.0182C808.857 54.2961 815.619 53.3037 821.215 51.4931C826.811 49.6826 832.869 47.3265 838.293 49.6763C846.548 53.2555 848.442 65.4072 855.585 71.1495C861.62 76.0001 871.09 74.7308 875.854 68.4325C880.227 62.6525 880.537 54.1157 885.1 48.5098C893.413 38.2966 905.928 37.7029 898.585 20.8726C894.166 10.7413 885.906 3.80311 875.545 4.96961C865.86 6.06058 856.219 13.6596 847.343 17.5514C835.287 22.8384 817.784 25.1756 808.105 35.1454Z" stroke="#EBDEF3" stroke-width="1.29791" stroke-miterlimit="10"/>
<path d="M1441.07 151.793C1420.92 141.878 1400.15 133.461 1378.94 126.619C1367.72 122.998 1351.95 122.115 1348.02 134.075C1346.58 138.456 1347.41 143.338 1346.52 147.887C1344.18 159.812 1331.42 165.344 1320.27 166.844C1317.58 167.207 1314.76 167.497 1312.49 169.114C1308.55 171.934 1307.64 177.689 1307.21 182.791C1305.62 201.631 1305.47 221.634 1296.26 237.701C1282.34 261.994 1252.75 268.915 1226.39 269.632C1197.98 270.407 1169.48 266.582 1142.1 258.326C1122.49 252.41 1102.17 244.154 1082.34 249.162C1071.75 251.837 1062.25 258.137 1051.93 261.861C1035.64 267.74 1018.07 266.978 1000.93 268.124C949.394 271.569 899.036 293.357 859.463 329.336C846.268 341.332 833.968 355.313 827.483 372.614C819.784 393.149 821.053 416.609 826.937 437.839C832.823 459.067 843.028 478.532 853.152 497.79C860.303 511.393 870.237 526.809 884.671 526.446C890.359 526.304 896.148 523.576 901.572 525.437C909.715 528.234 912.178 539.205 917.648 546.317C926.512 557.841 943.333 558.168 955.89 551.866C968.447 545.564 978.099 534.209 988.532 524.351C1044.05 471.892 1122.85 461.083 1196.48 460.428C1214.9 460.265 1233.64 460.642 1251.19 466.695C1261.92 470.394 1271.99 476.147 1282.78 479.619C1301.38 485.6 1321.17 484.551 1340.54 485.445C1383.35 487.419 1425.74 499.262 1464.09 519.957" stroke="#EBDEF3" stroke-width="1.29791" stroke-miterlimit="10"/>
<path d="M1434.82 182.487C1425.55 173.812 1415.84 164.881 1404.01 161.438C1392.19 157.995 1377.6 161.805 1371.91 173.562C1370.75 175.958 1369.93 178.675 1368.05 180.454C1365.23 183.121 1361.06 182.821 1357.33 183.075C1344.53 183.943 1332.66 193.898 1328.67 207.112C1323.64 223.715 1330.19 243.535 1321.79 258.446C1316.61 267.646 1306.93 272.549 1297.61 276.298C1264.57 289.589 1228.78 294.788 1193.68 291.393C1160.39 288.175 1126.95 277.38 1094.11 284.069C1082.08 286.517 1070.56 291.261 1058.63 294.192C1043.77 297.842 1028.47 298.65 1013.39 300.954C985.341 305.238 957.983 314.769 932.882 329C910.087 341.924 888.518 359.493 876.237 384.006C863.957 408.519 862.821 440.973 878.506 463.084C881.044 466.664 884.158 470.048 888.148 471.328C893.529 473.052 899.371 470.629 904.895 471.699C918.064 474.248 923.305 494.525 936.48 497.037C942.511 498.186 948.484 495.159 953.942 492.15C993.77 470.197 1032.76 444.433 1076.5 434.558C1097.69 429.772 1119.44 428.87 1141.07 427.98C1178.98 426.424 1217.55 424.942 1254.22 435.5C1266.6 439.066 1278.66 443.98 1291.2 446.858C1317.61 452.922 1345.05 449.722 1371.92 452.531C1396.75 455.127 1421.1 462.919 1443.25 475.352" stroke="#EBDEF3" stroke-width="1.29791" stroke-miterlimit="10"/>
<path d="M955.675 365.344C947.981 369.873 940.168 374.986 935.35 382.915C930.532 390.843 929.627 402.351 935.536 409.356C938.704 413.109 943.518 415.34 945.526 419.938C947.12 423.591 946.555 427.957 947.83 431.755C949.855 437.793 956.221 441.061 962.143 441.005C968.066 440.948 973.669 438.269 979.052 435.59C1011.59 419.406 1044.07 401.241 1079.5 395.723C1110.08 390.961 1141.47 395.893 1171.96 390.482C1183.14 388.5 1195.96 383.169 1198.51 371.206C1205.45 338.745 1159.72 315.031 1135.87 316.54C1097.69 318.955 1059.16 323.331 1022.41 335.281C999.3 342.799 976.886 352.861 955.675 365.344Z" stroke="#EBDEF3" stroke-width="1.29791" stroke-miterlimit="10"/>
<path d="M1443.97 217.354C1435.4 218.682 1427.37 213.238 1419.68 208.916C1411.99 204.594 1402.26 201.346 1395.07 206.574C1390.42 209.954 1388.08 216.114 1383.66 219.851C1380.1 222.867 1375.39 224.128 1372.2 227.605C1367.94 232.258 1367.54 239.461 1366.51 245.923C1364.01 261.473 1356.2 275.949 1344.92 285.919C1332.87 296.565 1317.65 301.803 1302.9 307.128C1288.16 312.455 1273.04 318.403 1261.79 330.032C1250.55 341.661 1244.18 360.533 1250.7 375.832C1257.15 390.959 1273.42 397.792 1288.5 400.979C1314.85 406.551 1342.02 405.408 1368.66 409.037C1395.31 412.667 1422.85 422.087 1440.52 444.022" stroke="#EBDEF3" stroke-width="1.29791" stroke-miterlimit="10"/>
<path d="M1440.39 271.409C1437.06 265.409 1430.02 262.369 1423.66 263.596C1417.31 264.824 1411.86 269.932 1409.21 276.315C1407.6 280.183 1406.93 284.442 1405.39 288.345C1399.8 302.536 1384.67 308.492 1371.52 314.4C1360.72 319.255 1350.27 325.041 1340.31 331.688C1332.51 336.897 1324.19 344.188 1324.09 354.128C1324.01 361.261 1328.53 367.757 1334.22 371.336C1339.91 374.915 1346.62 376.033 1353.18 376.535C1369.13 377.756 1385.31 375.737 1401.06 378.763C1416.67 381.761 1431.43 389.796 1442.98 401.579" stroke="#EBDEF3" stroke-width="1.29791" stroke-miterlimit="10"/>
<path d="M1434.95 315.585C1426.03 318.636 1417.12 321.689 1408.21 324.741C1405.08 325.811 1401.87 326.927 1399.3 329.143C1395.27 332.619 1393.39 338.429 1393.39 344.016C1393.39 347.503 1394.14 351.17 1396.33 353.715C1400.99 359.098 1409.04 356.994 1415.71 355.536C1428.51 352.735 1443.92 355.156 1450.98 367.069" stroke="#EBDEF3" stroke-width="1.29791" stroke-miterlimit="10"/>
<path d="M1022.89 366.005C1020.53 367.165 1018.06 368.485 1016.63 370.832C1015.2 373.18 1015.3 376.858 1017.51 378.337C1019.13 379.42 1021.21 378.994 1023.06 378.53C1045.66 372.882 1068.43 366.804 1091.69 365.694C1099.02 365.344 1127 371.791 1119.85 359.801C1114.44 350.74 1093 348.373 1084.33 348.596C1063.65 349.128 1041.58 356.837 1022.89 366.005Z" stroke="#EBDEF3" stroke-width="1.29791" stroke-miterlimit="10"/>
<path d="M718.453 525.792C691.87 551.369 676.843 589.223 648.794 612.883C634.057 625.314 614.74 635.489 610.415 655.187C608.071 665.864 610.91 677.053 614.601 687.272C617.334 694.838 620.576 702.26 625.1 708.739C645.601 738.101 687.557 742.404 706.915 772.666C713.658 783.208 717.159 796.304 725.787 805.082C734.259 813.699 746.381 816.72 757.983 817.27C769.585 817.819 781.231 816.25 792.805 817.257C821.674 819.768 850.048 838.109 878.023 829.979C895.038 825.034 908.491 810.948 919.354 795.908C929.112 782.396 937.665 767.037 939.4 749.978C942.706 717.471 920.919 687.365 920.975 654.661C920.99 645.052 922.911 635.548 923.12 625.941C923.329 616.334 921.518 606.062 915.33 599.183C909.706 592.929 900.965 590.006 897.042 582.376C895.938 580.225 895.288 577.808 894.003 575.779C888.044 566.372 874.763 571.181 864.262 570.444C828.098 567.91 830.734 515.344 805.685 498.354C780.799 481.476 736.915 508.028 718.453 525.792Z" stroke="#EBDEF3" stroke-width="1.29791" stroke-miterlimit="10"/>
<path d="M735.051 570.61C728.623 577.051 723.315 584.482 718.226 592.188C709.07 606.075 700.441 620.671 688.112 631.324C678.052 640.002 664.872 647.156 661.675 660.655C659.945 667.964 661.671 675.618 663.965 682.623C665.663 687.811 667.704 692.905 670.603 697.37C683.704 717.664 711.93 720.811 724.24 742.368C727.497 748.071 730.455 754.396 734.236 759.312C736.213 761.894 738.366 764.175 740.913 766.038C743.312 767.794 745.966 769.078 748.774 770.024C754.48 771.931 760.892 772.439 767.198 772.708C775.517 773.085 783.846 772.185 792.119 773.05C806.541 774.56 820.78 781.377 834.935 783.437C841.028 784.322 847.106 784.324 853.156 782.671C865.39 779.333 875.241 769.678 883.263 759.182C890.561 749.697 896.737 738.934 898.121 727.017C900.855 704.088 885.464 682.661 884.421 659.746C884.118 653.066 885.11 646.47 884.926 639.83C884.736 633.183 883.191 626.115 878.733 621.338C874.646 616.974 868.487 614.859 865.558 609.639C864.734 608.169 864.22 606.517 863.272 605.137C858.829 598.66 849.425 601.663 841.868 600.983C816.285 598.679 816.386 563.126 798.074 551.533C782.573 541.806 758.128 552.873 742.598 564.242C739.704 566.368 737.124 568.531 735.051 570.61Z" stroke="#EBDEF3" stroke-width="1.29791" stroke-miterlimit="10"/>
<path d="M751.646 615.428C748.273 619.146 745.695 623.333 743.182 627.68C738.664 635.548 734.056 643.667 727.428 649.764C722.045 654.688 715.002 658.823 712.932 666.122C711.82 670.067 712.428 674.181 713.329 677.972C713.992 680.783 714.843 683.54 716.106 686.001C721.861 697.196 735.875 699.613 741.567 712.073C743.65 716.634 746.555 721.2 750.122 723.872C751.981 725.266 753.919 726.294 756.043 726.996C758.037 727.661 760.147 727.995 762.316 728.144C766.747 728.448 771.571 727.966 776.416 728.148C781.455 728.339 786.465 728.121 791.436 728.847C800.111 730.114 808.66 734.266 817.25 735.602C820.933 736.173 824.622 736.221 828.295 735.365C835.748 733.632 841.97 728.385 847.175 722.458C851.99 716.976 855.781 710.827 856.846 704.057C858.949 690.692 850.034 677.976 847.872 664.832C847.255 661.089 847.313 657.395 846.736 653.717C846.15 650.031 844.875 646.16 842.14 643.489C839.599 641.007 836.013 639.708 834.082 636.899C833.537 636.108 833.156 635.225 832.55 634.493C829.616 630.947 824.096 632.149 819.484 631.518C804.486 629.468 802.078 610.84 790.475 604.707C780.444 599.405 765.944 605.026 756.26 611.57C754.482 612.78 752.875 614.075 751.646 615.428Z" stroke="#EBDEF3" stroke-width="1.29791" stroke-miterlimit="10"/>
</g>
</g>
</g>
<defs>
<clipPath id="clip0_156_4535">
<rect width="1428" height="613" rx="8" fill="white"/>
</clipPath>
</defs>
</svg>
