<svg width="39" height="39" viewBox="0 0 39 39" fill="none" xmlns="http://www.w3.org/2000/svg">
<g clip-path="url(#clip0_156_3710)">
<path d="M4.57588 22.9292C4.57588 22.6761 4.78116 22.4709 5.0342 22.4709H16.9471C17.2001 22.4709 17.4054 22.6761 17.4054 22.9292C17.4054 23.1822 17.2001 23.3875 16.9471 23.3875H5.0342C4.78116 23.3875 4.57588 23.1822 4.57588 22.9292ZM5.0342 26.1762H16.9471C17.2001 26.1762 17.4054 25.971 17.4054 25.7179C17.4054 25.4649 17.2001 25.2596 16.9471 25.2596H5.0342C4.78116 25.2596 4.57588 25.4649 4.57588 25.7179C4.57588 25.971 4.78116 26.1762 5.0342 26.1762ZM5.0342 28.965H10.564C10.817 28.965 11.0223 28.7597 11.0223 28.5066C11.0223 28.2536 10.817 28.0483 10.564 28.0483H5.0342C4.78116 28.0483 4.57588 28.2536 4.57588 28.5066C4.57588 28.7597 4.78116 28.965 5.0342 28.965ZM21.7452 7.80625C21.7452 6.75889 22.5974 5.90668 23.6447 5.90668C24.6927 5.90728 25.5449 6.7595 25.5449 7.80625C25.5449 8.85422 24.692 9.70636 23.6441 9.70636C22.5968 9.70636 21.7452 8.85415 21.7452 7.80625ZM22.6618 7.80625C22.6618 8.34875 23.1022 8.7897 23.6441 8.7897C24.1866 8.7897 24.6282 8.34867 24.6282 7.80625C24.6282 7.26497 24.1866 6.82394 23.6441 6.82333C23.1029 6.82333 22.6618 7.26436 22.6618 7.80625ZM26.1088 7.80625C26.1094 6.75889 26.9623 5.90668 28.0089 5.90668C29.0563 5.90728 29.9085 6.7595 29.9085 7.80625C29.9085 8.85422 29.0563 9.70636 28.0084 9.70636C26.961 9.70636 26.1088 8.85415 26.1088 7.80625ZM27.0255 7.80678C27.0255 8.34867 27.4665 8.7897 28.0084 8.7897C28.5509 8.7897 28.9919 8.34867 28.9919 7.80625C28.9919 7.26497 28.5508 6.82394 28.0084 6.82333C27.467 6.82333 27.026 7.26436 27.0255 7.80678ZM30.473 7.80625C30.473 6.75889 31.3252 5.90668 32.3726 5.90668C33.4206 5.90728 34.2727 6.7595 34.2727 7.80625C34.2727 8.85422 33.4199 9.70636 32.372 9.70636C31.3246 9.70636 30.473 8.85415 30.473 7.80625ZM31.3897 7.80625C31.3897 8.34875 31.8301 8.7897 32.372 8.7897C32.9145 8.7897 33.356 8.34867 33.356 7.80625C33.356 7.26497 32.9144 6.82394 32.372 6.82333C31.8307 6.82333 31.3897 7.26436 31.3897 7.80625ZM21.8818 18.4659V32.967C21.8818 33.22 21.6765 33.4253 21.4235 33.4253H7.28287L0.849625 38.7963C0.712896 38.9098 0.523381 38.9347 0.362049 38.8595C0.200945 38.7837 0.0976562 38.622 0.0976562 38.4442V18.4658C0.0976562 18.2128 0.302939 18.0075 0.555982 18.0075H21.4235C21.6765 18.0076 21.8818 18.2129 21.8818 18.4659ZM20.9652 18.9242H1.01431V37.4643L6.82333 32.6149C6.90567 32.5463 7.00949 32.5086 7.11697 32.5086H20.9652V18.9242ZM38.9025 0.555982V20.5343C38.9025 20.7122 38.7993 20.8739 38.6381 20.9497C38.477 21.0248 38.2875 21.0001 38.1505 20.8865L31.7179 15.5161H17.5773C17.3242 15.5161 17.1189 15.3108 17.1189 15.0577V0.555982C17.1189 0.302939 17.3242 0.0976562 17.5773 0.0976562H38.4442C38.6972 0.0976562 38.9025 0.302939 38.9025 0.555982ZM37.9859 1.01431H18.0356V14.5993H31.8838C31.9912 14.5993 32.095 14.637 32.1774 14.7056L37.9859 19.5544V1.01431Z" fill="white"/>
</g>
<defs>
<clipPath id="clip0_156_3710">
<rect width="39" height="39" fill="white"/>
</clipPath>
</defs>
</svg>
