<svg width="39" height="39" viewBox="0 0 39 39" fill="none" xmlns="http://www.w3.org/2000/svg">
<path d="M19.4042 18.6191H19.4036C17.76 18.6191 16.4233 17.2815 16.4233 15.6373C16.4239 13.9941 17.7612 12.6573 19.4042 12.6573C21.0477 12.6576 22.3851 13.9947 22.3851 15.6379C22.3851 16.4349 22.0754 17.1839 21.5126 17.7467C20.9499 18.3094 20.2009 18.6191 19.4042 18.6191ZM19.4042 13.574C18.2667 13.574 17.3405 14.4996 17.3399 15.6376C17.3399 16.776 18.2655 17.7025 19.4036 17.7025H19.4042C19.9562 17.7025 20.4748 17.4879 20.8645 17.0985C21.2536 16.7088 21.4684 16.1903 21.4684 15.6379C21.4684 14.5002 20.5423 13.5743 19.4042 13.574ZM14.7147 24.4768C14.5739 24.3948 14.4874 24.2441 14.4874 24.0809C14.4874 21.3722 16.6937 19.1685 19.4054 19.1685C22.1141 19.1685 24.3181 21.3721 24.3181 24.0809C24.3181 24.2438 24.2316 24.3945 24.0907 24.4768C20.9809 26.2908 17.8276 26.2905 14.7147 24.4768ZM15.4124 23.8189C18.0973 25.2989 20.713 25.2983 23.3931 23.8189C23.2576 21.7373 21.521 20.0852 19.4054 20.0852C17.2874 20.0852 15.5484 21.7373 15.4124 23.8189ZM22.3714 38.8048H16.4335C16.1804 38.8048 15.9751 38.5996 15.9751 38.3465V33.0549C14.6306 32.7207 13.3547 32.1928 12.1736 31.4821L8.43246 35.2226C8.25345 35.4016 7.96339 35.4016 7.78438 35.2226L3.58244 31.0207C3.40344 30.8417 3.40344 30.5516 3.58244 30.3726L7.32248 26.6326C6.60578 25.4515 6.0776 24.1754 5.74877 22.8296H0.458326C0.205283 22.8296 0 22.6243 0 22.3713V16.4336C0 16.1806 0.205283 15.9753 0.458326 15.9753H5.75052C6.08469 14.6305 6.61225 13.3545 7.32362 12.173L3.58244 8.43238C3.49652 8.34646 3.44815 8.22976 3.44815 8.10834C3.44815 7.98693 3.49652 7.87023 3.58244 7.78431L7.78438 3.58236C7.96339 3.40336 8.25345 3.40336 8.43246 3.58236L12.1736 7.32294C13.3547 6.61218 14.6306 6.0843 15.9751 5.75014V0.458326C15.9751 0.205283 16.1804 0 16.4335 0H22.3714C22.6244 0 22.8297 0.205283 22.8297 0.458326V5.74877C24.1754 6.0776 25.4519 6.60578 26.633 7.32217L30.373 3.58244C30.552 3.40344 30.8421 3.40344 31.0211 3.58244L35.223 7.78438C35.3089 7.87031 35.3573 7.987 35.3573 8.10842C35.3573 8.22984 35.3089 8.34653 35.223 8.43246L31.4824 12.173C32.2022 13.3681 32.7303 14.644 33.0562 15.9754H38.3466C38.5996 15.9754 38.8049 16.1807 38.8049 16.4337V22.3714C38.8049 22.6244 38.5996 22.8297 38.3466 22.8297H33.0562C32.7279 24.1751 32.1998 25.4513 31.4831 26.6327L35.2231 30.3727C35.4021 30.5517 35.4021 30.8418 35.2231 31.0208L31.0211 35.2227C30.8421 35.4017 30.5521 35.4017 30.3731 35.2227L26.633 31.483C25.452 32.1994 24.1755 32.7276 22.8298 33.0564V38.3465C22.8297 38.5996 22.6244 38.8048 22.3714 38.8048ZM16.8918 37.8882H21.913V32.6917C21.913 32.476 22.0634 32.2893 22.2747 32.2439C23.7672 31.9213 25.1721 31.3398 26.451 30.5159C26.6324 30.3989 26.8705 30.4243 27.0233 30.5771L30.697 34.2505L34.2508 30.6967L30.5771 27.023C30.4243 26.8705 30.3992 26.632 30.5156 26.4507C31.3403 25.1715 31.9216 23.7664 32.2432 22.2747C32.2892 22.0637 32.4754 21.913 32.6914 21.913H37.8882V16.892H32.6914C32.4754 16.892 32.2892 16.7414 32.2432 16.5304C31.9258 15.0569 31.3439 13.6512 30.515 12.3526C30.3992 12.1712 30.4249 11.934 30.5771 11.7818L34.2508 8.10834L30.697 4.55454L27.0233 8.22801C26.8705 8.38112 26.6324 8.40587 26.451 8.28918C25.1721 7.4653 23.7673 6.88373 22.2747 6.56122C22.0635 6.51589 21.913 6.32905 21.913 6.11333V0.916652H16.8918V6.1134C16.8918 6.32851 16.7426 6.51445 16.5326 6.56099C15.0395 6.89104 13.6334 7.47284 12.3527 8.29047C12.1725 8.40595 11.9344 8.38119 11.7822 8.22809L8.10842 4.55462L4.55462 8.10842L8.22839 11.7819C8.38058 11.9341 8.40625 12.1713 8.29047 12.3527C7.47292 13.6334 6.89104 15.0397 6.56099 16.5329C6.51445 16.7427 6.32821 16.8921 6.1134 16.8921H0.916652V21.9131H6.1134C6.32943 21.9131 6.51567 22.0638 6.5616 22.2748C6.88388 23.7668 7.46515 25.1718 8.28986 26.4508C8.40625 26.6322 8.38119 26.8706 8.22839 27.023L4.55462 30.6968L8.10842 34.2506L11.7822 30.5771C11.9344 30.4243 12.1725 30.3996 12.3527 30.5148C13.6334 31.3323 15.0394 31.9142 16.5326 32.2442C16.7427 32.2908 16.8918 32.4767 16.8918 32.6918V37.8882ZM19.4024 28.8963C14.1675 28.8963 9.90828 24.637 9.90828 19.4018C9.90828 14.1716 14.1675 9.91666 19.4024 9.91666C24.6379 9.91666 28.8972 14.1717 28.8972 19.4018C28.8972 24.637 24.6379 28.8963 19.4024 28.8963ZM19.4024 10.8333C14.673 10.8333 10.8249 14.6772 10.8249 19.4019C10.8249 24.1316 14.673 27.9797 19.4024 27.9797C24.1325 27.9797 27.9805 24.1316 27.9805 19.4019C27.9805 14.6771 24.1325 10.8333 19.4024 10.8333Z" fill="white"/>
</svg>
