<svg width="39" height="43" viewBox="0 0 39 43" fill="none" xmlns="http://www.w3.org/2000/svg">
<path d="M16.1503 31.9825C16.1503 33.8308 17.6531 35.335 19.5007 35.3353H19.5013C21.3545 35.3353 22.8531 33.8379 22.8531 31.9832C22.8531 30.1359 21.3496 28.6325 19.5013 28.6321C17.6537 28.6321 16.1503 30.1353 16.1503 31.9825ZM21.8481 31.9832C21.8481 33.2817 20.8003 34.3304 19.5013 34.3304H19.5006C18.2071 34.33 17.1551 33.277 17.1551 31.9825C17.1551 30.6891 18.2078 29.6371 19.5013 29.6371C20.7955 29.6374 21.8481 30.6898 21.8481 31.9832ZM1.60878 26.1852H37.3911C37.6686 26.1852 37.8936 25.9601 37.8936 25.6827V0.552271C37.8936 0.274858 37.6686 0.0498047 37.3911 0.0498047H1.60878C1.33137 0.0498047 1.10631 0.274858 1.10631 0.552271V25.6828C1.10631 25.9601 1.33145 26.1852 1.60878 26.1852ZM2.11125 1.05474H36.8887V25.1803H2.11125V1.05474ZM5.8706 36.2319C2.63334 36.2319 0 38.8597 0 42.0894C0 42.3668 0.225054 42.5919 0.502467 42.5919H11.2322C11.5096 42.5919 11.7347 42.3668 11.7347 42.0894C11.7347 38.8597 9.10394 36.2319 5.8706 36.2319ZM1.03107 41.5869C1.2836 39.1466 3.3576 37.2369 5.8706 37.2369C8.38035 37.2369 10.451 39.1466 10.7035 41.5869H1.03107ZM19.5033 36.2319C16.266 36.2319 13.6327 38.8597 13.6327 42.0894C13.6327 42.3668 13.8577 42.5919 14.1351 42.5919H24.8649C25.1423 42.5919 25.3673 42.3668 25.3673 42.0894C25.3673 38.8597 22.7366 36.2319 19.5033 36.2319ZM14.6637 41.5869C14.9163 39.1466 16.9903 37.2369 19.5033 37.2369C22.013 37.2369 24.0837 39.1466 24.3362 41.5869H14.6637ZM33.1359 36.2319C29.8986 36.2319 27.2653 38.8597 27.2653 42.0894C27.2653 42.3668 27.4904 42.5919 27.7678 42.5919H38.4975C38.7749 42.5919 39 42.3668 39 42.0894C39 38.8597 36.3693 36.2319 33.1359 36.2319ZM28.2964 41.5869C28.5489 39.1466 30.6229 37.2369 33.1359 37.2369C35.6457 37.2369 37.7163 39.1466 37.9688 41.5869H28.2964ZM18.5893 19.6058C21.6544 19.6058 24.1517 17.1065 24.155 14.0348C24.155 13.9013 24.102 13.7734 24.0078 13.6792C23.9136 13.5847 23.786 13.5316 23.6525 13.5316H19.0858V8.96527C19.0858 8.83182 19.0328 8.70389 18.9386 8.60969C18.8444 8.51583 18.7168 8.4628 18.5833 8.4628H18.5827C15.5109 8.46639 13.0117 10.963 13.0117 14.0285C13.0118 17.1039 15.5137 19.6058 18.5893 19.6058ZM18.081 9.49588V14.0341C18.081 14.3115 18.306 14.5366 18.5834 14.5366H23.122C22.8688 16.8193 20.9316 18.6008 18.5893 18.6008C16.0678 18.6008 14.0168 16.5497 14.0168 14.0286C14.0167 11.6863 15.7983 9.74907 18.081 9.49588ZM20.4166 12.7033H25.4858C25.7632 12.7033 25.9882 12.4727 25.9882 12.1953C25.9882 9.12619 23.4916 6.62956 20.4173 6.62956H20.4166C20.1392 6.62956 19.9141 6.85461 19.9141 7.13202V12.2009C19.9141 12.4783 20.1392 12.7033 20.4166 12.7033ZM20.9191 7.66104C23.0381 7.89169 24.7255 9.57964 24.9564 11.6984H20.9191V7.66104ZM2.51759 31.9825C2.51759 33.8308 4.0204 35.335 5.86801 35.3353H5.86868C7.72189 35.3353 9.22044 33.8379 9.22044 31.9832C9.22044 30.1359 7.71696 28.6325 5.86868 28.6321C4.02107 28.6321 2.51759 30.1353 2.51759 31.9825ZM8.21542 31.9832C8.21542 32.6109 7.97141 33.2008 7.52848 33.6437C7.08556 34.0866 6.49608 34.3303 5.86868 34.3303H5.86801C4.57456 34.3299 3.52253 33.2769 3.52253 31.9825C3.52253 30.689 4.57523 29.637 5.86868 29.637C7.1628 29.6374 8.21542 30.6898 8.21542 31.9832ZM29.7829 31.9822C29.7816 33.8316 31.2748 35.3345 33.1333 35.3352H33.134C34.9872 35.3352 36.4857 33.8378 36.4857 31.9831C36.4857 30.1358 34.9823 28.6324 33.134 28.632C31.2864 28.6321 29.7829 30.1353 29.7829 31.9822ZM35.4807 31.9832C35.4807 33.2817 34.433 34.3304 33.1339 34.3304H33.1332C31.838 34.3304 30.7878 33.2849 30.7878 31.9825C30.7878 30.6891 31.8405 29.6371 33.1339 29.6371C34.4281 29.6374 35.4807 30.6898 35.4807 31.9832ZM33.3715 4.06954H5.62851C5.3511 4.06954 5.12605 4.29459 5.12605 4.57201V21.6627C5.12605 21.9401 5.3511 22.1652 5.62851 22.1652H33.3715C33.6489 22.1652 33.874 21.9401 33.874 21.6627V4.57201C33.874 4.29459 33.6489 4.06954 33.3715 4.06954ZM32.869 21.1603H6.13098V5.07447H32.8689L32.869 21.1603Z" fill="white"/>
</svg>
