<svg width="331" height="431" viewBox="0 0 331 431" fill="none" xmlns="http://www.w3.org/2000/svg">
<g opacity="0.6">
<g opacity="0.28">
<path d="M1.84 133.48C2.8562 133.48 3.68 132.656 3.68 131.64C3.68 130.624 2.8562 129.8 1.84 129.8C0.823796 129.8 0 130.624 0 131.64C0 132.656 0.823796 133.48 1.84 133.48Z" fill="#C8C7E5"/>
</g>
<g opacity="0.28">
<path d="M36.3602 131.64C36.3602 132.65 35.5402 133.48 34.5202 133.48C33.5002 133.48 32.6802 132.66 32.6802 131.64C32.6802 130.62 33.5002 129.8 34.5202 129.8C35.5402 129.8 36.3602 130.62 36.3602 131.64Z" fill="#C8C7E5"/>
</g>
<g opacity="0.28">
<path d="M69.0399 131.64C69.0399 132.65 68.2199 133.48 67.1999 133.48C66.1799 133.48 65.3599 132.66 65.3599 131.64C65.3599 130.62 66.1799 129.8 67.1999 129.8C68.2199 129.8 69.0399 130.62 69.0399 131.64Z" fill="#C8C7E5"/>
</g>
<g opacity="0.28">
<path d="M101.72 131.64C101.72 132.65 100.9 133.48 99.88 133.48C98.86 133.48 98.04 132.66 98.04 131.64C98.04 130.62 98.86 129.8 99.88 129.8C100.9 129.8 101.72 130.62 101.72 131.64Z" fill="#C8C7E5"/>
</g>
<g opacity="0.28">
<path d="M132.57 133.48C133.586 133.48 134.41 132.656 134.41 131.64C134.41 130.624 133.586 129.8 132.57 129.8C131.554 129.8 130.73 130.624 130.73 131.64C130.73 132.656 131.554 133.48 132.57 133.48Z" fill="#C8C7E5"/>
</g>
<g opacity="0.28">
<path d="M165.25 133.48C166.266 133.48 167.09 132.656 167.09 131.64C167.09 130.624 166.266 129.8 165.25 129.8C164.234 129.8 163.41 130.624 163.41 131.64C163.41 132.656 164.234 133.48 165.25 133.48Z" fill="#C8C7E5"/>
</g>
<g opacity="0.28">
<path d="M199.77 131.64C199.77 132.65 198.95 133.48 197.93 133.48C196.91 133.48 196.09 132.66 196.09 131.64C196.09 130.62 196.91 129.8 197.93 129.8C198.95 129.8 199.77 130.62 199.77 131.64Z" fill="#C8C7E5"/>
</g>
<g opacity="0.28">
<path d="M232.45 131.64C232.45 132.65 231.63 133.48 230.61 133.48C229.59 133.48 228.77 132.66 228.77 131.64C228.77 130.62 229.59 129.8 230.61 129.8C231.63 129.8 232.45 130.62 232.45 131.64Z" fill="#C8C7E5"/>
</g>
<g opacity="0.28">
<path d="M263.29 133.48C264.306 133.48 265.13 132.656 265.13 131.64C265.13 130.624 264.306 129.8 263.29 129.8C262.274 129.8 261.45 130.624 261.45 131.64C261.45 132.656 262.274 133.48 263.29 133.48Z" fill="#C8C7E5"/>
</g>
<g opacity="0.28">
<path d="M295.97 133.48C296.986 133.48 297.81 132.656 297.81 131.64C297.81 130.624 296.986 129.8 295.97 129.8C294.954 129.8 294.13 130.624 294.13 131.64C294.13 132.656 294.954 133.48 295.97 133.48Z" fill="#C8C7E5"/>
</g>
<g opacity="0.28">
<path d="M328.66 133.48C329.676 133.48 330.5 132.656 330.5 131.64C330.5 130.624 329.676 129.8 328.66 129.8C327.644 129.8 326.82 130.624 326.82 131.64C326.82 132.656 327.644 133.48 328.66 133.48Z" fill="#C8C7E5"/>
</g>
<g opacity="0.28">
<path d="M3.68 164.65C3.68 165.66 2.86 166.49 1.84 166.49C0.82 166.49 0 165.67 0 164.65C0 163.63 0.82 162.81 1.84 162.81C2.86 162.81 3.68 163.63 3.68 164.65Z" fill="#C8C7E5"/>
</g>
<g opacity="0.28">
<path d="M36.3602 164.65C36.3602 165.66 35.5402 166.49 34.5202 166.49C33.5002 166.49 32.6802 165.67 32.6802 164.65C32.6802 163.63 33.5002 162.81 34.5202 162.81C35.5402 162.81 36.3602 163.63 36.3602 164.65Z" fill="#C8C7E5"/>
</g>
<g opacity="0.28">
<path d="M69.0399 164.65C69.0399 165.66 68.2199 166.49 67.1999 166.49C66.1799 166.49 65.3599 165.67 65.3599 164.65C65.3599 163.63 66.1799 162.81 67.1999 162.81C68.2199 162.81 69.0399 163.63 69.0399 164.65Z" fill="#C8C7E5"/>
</g>
<g opacity="0.28">
<path d="M101.72 164.65C101.72 165.66 100.9 166.49 99.88 166.49C98.86 166.49 98.04 165.67 98.04 164.65C98.04 163.63 98.86 162.81 99.88 162.81C100.9 162.81 101.72 163.63 101.72 164.65Z" fill="#C8C7E5"/>
</g>
<g opacity="0.28">
<path d="M134.4 164.65C134.4 165.66 133.58 166.49 132.56 166.49C131.54 166.49 130.72 165.67 130.72 164.65C130.72 163.63 131.54 162.81 132.56 162.81C133.58 162.81 134.4 163.63 134.4 164.65Z" fill="#C8C7E5"/>
</g>
<g opacity="0.28">
<path d="M167.08 164.65C167.08 165.66 166.26 166.49 165.24 166.49C164.22 166.49 163.4 165.67 163.4 164.65C163.4 163.63 164.22 162.81 165.24 162.81C166.26 162.81 167.08 163.63 167.08 164.65Z" fill="#C8C7E5"/>
</g>
<g opacity="0.28">
<path d="M199.77 164.65C199.77 165.66 198.95 166.49 197.93 166.49C196.91 166.49 196.09 165.67 196.09 164.65C196.09 163.63 196.91 162.81 197.93 162.81C198.95 162.81 199.77 163.63 199.77 164.65Z" fill="#C8C7E5"/>
</g>
<g opacity="0.28">
<path d="M232.45 164.65C232.45 165.66 231.63 166.49 230.61 166.49C229.59 166.49 228.77 165.67 228.77 164.65C228.77 163.63 229.59 162.81 230.61 162.81C231.63 162.81 232.45 163.63 232.45 164.65Z" fill="#C8C7E5"/>
</g>
<g opacity="0.28">
<path d="M265.13 164.65C265.13 165.66 264.31 166.49 263.29 166.49C262.27 166.49 261.45 165.67 261.45 164.65C261.45 163.63 262.27 162.81 263.29 162.81C264.31 162.81 265.13 163.63 265.13 164.65Z" fill="#C8C7E5"/>
</g>
<g opacity="0.28">
<path d="M297.81 164.65C297.81 165.66 296.99 166.49 295.97 166.49C294.95 166.49 294.13 165.67 294.13 164.65C294.13 163.63 294.95 162.81 295.97 162.81C296.99 162.81 297.81 163.63 297.81 164.65Z" fill="#C8C7E5"/>
</g>
<g opacity="0.28">
<path d="M330.49 164.65C330.49 165.66 329.67 166.49 328.65 166.49C327.63 166.49 326.81 165.67 326.81 164.65C326.81 163.63 327.63 162.81 328.65 162.81C329.67 162.81 330.49 163.63 330.49 164.65Z" fill="#C8C7E5"/>
</g>
<g opacity="0.28">
<path d="M3.68 99.5202C3.68 100.53 2.86 101.36 1.84 101.36C0.82 101.36 0 100.54 0 99.5202C0 98.5002 0.82 97.6802 1.84 97.6802C2.86 97.6802 3.68 98.5002 3.68 99.5202Z" fill="#C8C7E5"/>
</g>
<g opacity="0.28">
<path d="M36.3602 99.5202C36.3602 100.53 35.5402 101.36 34.5202 101.36C33.5002 101.36 32.6802 100.54 32.6802 99.5202C32.6802 98.5002 33.5002 97.6802 34.5202 97.6802C35.5402 97.6802 36.3602 98.5002 36.3602 99.5202Z" fill="#C8C7E5"/>
</g>
<g opacity="0.28">
<path d="M69.0399 99.5202C69.0399 100.53 68.2199 101.36 67.1999 101.36C66.1799 101.36 65.3599 100.54 65.3599 99.5202C65.3599 98.5002 66.1799 97.6802 67.1999 97.6802C68.2199 97.6802 69.0399 98.5002 69.0399 99.5202Z" fill="#C8C7E5"/>
</g>
<g opacity="0.28">
<path d="M101.72 99.5202C101.72 100.53 100.9 101.36 99.88 101.36C98.86 101.36 98.04 100.54 98.04 99.5202C98.04 98.5002 98.86 97.6802 99.88 97.6802C100.9 97.6802 101.72 98.5002 101.72 99.5202Z" fill="#C8C7E5"/>
</g>
<g opacity="0.28">
<path d="M134.4 99.5202C134.4 100.53 133.58 101.36 132.56 101.36C131.54 101.36 130.72 100.54 130.72 99.5202C130.72 98.5002 131.54 97.6802 132.56 97.6802C133.58 97.6802 134.4 98.5002 134.4 99.5202Z" fill="#C8C7E5"/>
</g>
<g opacity="0.28">
<path d="M167.08 99.5202C167.08 100.53 166.26 101.36 165.24 101.36C164.22 101.36 163.4 100.54 163.4 99.5202C163.4 98.5002 164.22 97.6802 165.24 97.6802C166.26 97.6802 167.08 98.5002 167.08 99.5202Z" fill="#C8C7E5"/>
</g>
<g opacity="0.28">
<path d="M199.77 99.5202C199.77 100.53 198.95 101.36 197.93 101.36C196.91 101.36 196.09 100.54 196.09 99.5202C196.09 98.5002 196.91 97.6802 197.93 97.6802C198.95 97.6802 199.77 98.5002 199.77 99.5202Z" fill="#C8C7E5"/>
</g>
<g opacity="0.28">
<path d="M232.45 99.5202C232.45 100.53 231.63 101.36 230.61 101.36C229.59 101.36 228.77 100.54 228.77 99.5202C228.77 98.5002 229.59 97.6802 230.61 97.6802C231.63 97.6802 232.45 98.5002 232.45 99.5202Z" fill="#C8C7E5"/>
</g>
<g opacity="0.28">
<path d="M265.13 99.5202C265.13 100.53 264.31 101.36 263.29 101.36C262.27 101.36 261.45 100.54 261.45 99.5202C261.45 98.5002 262.27 97.6802 263.29 97.6802C264.31 97.6802 265.13 98.5002 265.13 99.5202Z" fill="#C8C7E5"/>
</g>
<g opacity="0.28">
<path d="M297.81 99.5202C297.81 100.53 296.99 101.36 295.97 101.36C294.95 101.36 294.13 100.54 294.13 99.5202C294.13 98.5002 294.95 97.6802 295.97 97.6802C296.99 97.6802 297.81 98.5002 297.81 99.5202Z" fill="#C8C7E5"/>
</g>
<g opacity="0.28">
<path d="M330.49 99.5202C330.49 100.53 329.67 101.36 328.65 101.36C327.63 101.36 326.81 100.54 326.81 99.5202C326.81 98.5002 327.63 97.6802 328.65 97.6802C329.67 97.6802 330.49 98.5002 330.49 99.5202Z" fill="#C8C7E5"/>
</g>
<g opacity="0.28">
<path d="M3.68 66.9601C3.68 67.9701 2.86 68.8001 1.84 68.8001C0.82 68.8001 0 67.9801 0 66.9601C0 65.9401 0.82 65.1201 1.84 65.1201C2.86 65.1201 3.68 65.9401 3.68 66.9601Z" fill="#C8C7E5"/>
</g>
<g opacity="0.28">
<path d="M36.3602 66.9601C36.3602 67.9701 35.5402 68.8001 34.5202 68.8001C33.5002 68.8001 32.6802 67.9801 32.6802 66.9601C32.6802 65.9401 33.5002 65.1201 34.5202 65.1201C35.5402 65.1201 36.3602 65.9401 36.3602 66.9601Z" fill="#C8C7E5"/>
</g>
<g opacity="0.28">
<path d="M69.0399 66.9601C69.0399 67.9701 68.2199 68.8001 67.1999 68.8001C66.1799 68.8001 65.3599 67.9801 65.3599 66.9601C65.3599 65.9401 66.1799 65.1201 67.1999 65.1201C68.2199 65.1201 69.0399 65.9401 69.0399 66.9601Z" fill="#C8C7E5"/>
</g>
<g opacity="0.28">
<path d="M101.72 66.9601C101.72 67.9701 100.9 68.8001 99.88 68.8001C98.86 68.8001 98.04 67.9801 98.04 66.9601C98.04 65.9401 98.86 65.1201 99.88 65.1201C100.9 65.1201 101.72 65.9401 101.72 66.9601Z" fill="#C8C7E5"/>
</g>
<g opacity="0.28">
<path d="M134.4 66.9601C134.4 67.9701 133.58 68.8001 132.56 68.8001C131.54 68.8001 130.72 67.9801 130.72 66.9601C130.72 65.9401 131.54 65.1201 132.56 65.1201C133.58 65.1201 134.4 65.9401 134.4 66.9601Z" fill="#C8C7E5"/>
</g>
<g opacity="0.28">
<path d="M167.08 66.9601C167.08 67.9701 166.26 68.8001 165.24 68.8001C164.22 68.8001 163.4 67.9801 163.4 66.9601C163.4 65.9401 164.22 65.1201 165.24 65.1201C166.26 65.1201 167.08 65.9401 167.08 66.9601Z" fill="#C8C7E5"/>
</g>
<g opacity="0.28">
<path d="M199.77 66.9601C199.77 67.9701 198.95 68.8001 197.93 68.8001C196.91 68.8001 196.09 67.9801 196.09 66.9601C196.09 65.9401 196.91 65.1201 197.93 65.1201C198.95 65.1201 199.77 65.9401 199.77 66.9601Z" fill="#C8C7E5"/>
</g>
<g opacity="0.28">
<path d="M232.45 66.9601C232.45 67.9701 231.63 68.8001 230.61 68.8001C229.59 68.8001 228.77 67.9801 228.77 66.9601C228.77 65.9401 229.59 65.1201 230.61 65.1201C231.63 65.1201 232.45 65.9401 232.45 66.9601Z" fill="#C8C7E5"/>
</g>
<g opacity="0.28">
<path d="M265.13 66.9601C265.13 67.9701 264.31 68.8001 263.29 68.8001C262.27 68.8001 261.45 67.9801 261.45 66.9601C261.45 65.9401 262.27 65.1201 263.29 65.1201C264.31 65.1201 265.13 65.9401 265.13 66.9601Z" fill="#C8C7E5"/>
</g>
<g opacity="0.28">
<path d="M297.81 66.9601C297.81 67.9701 296.99 68.8001 295.97 68.8001C294.95 68.8001 294.13 67.9801 294.13 66.9601C294.13 65.9401 294.95 65.1201 295.97 65.1201C296.99 65.1201 297.81 65.9401 297.81 66.9601Z" fill="#C8C7E5"/>
</g>
<g opacity="0.28">
<path d="M330.49 66.9601C330.49 67.9701 329.67 68.8001 328.65 68.8001C327.63 68.8001 326.81 67.9801 326.81 66.9601C326.81 65.9401 327.63 65.1201 328.65 65.1201C329.67 65.1201 330.49 65.9401 330.49 66.9601Z" fill="#C8C7E5"/>
</g>
<g opacity="0.28">
<path d="M3.68 34.4001C3.68 35.4101 2.86 36.2401 1.84 36.2401C0.82 36.2401 0 35.4201 0 34.4001C0 33.3801 0.82 32.5601 1.84 32.5601C2.86 32.5601 3.68 33.3801 3.68 34.4001Z" fill="#C8C7E5"/>
</g>
<g opacity="0.28">
<path d="M36.3602 34.4001C36.3602 35.4101 35.5402 36.2401 34.5202 36.2401C33.5002 36.2401 32.6802 35.4201 32.6802 34.4001C32.6802 33.3801 33.5002 32.5601 34.5202 32.5601C35.5402 32.5601 36.3602 33.3801 36.3602 34.4001Z" fill="#C8C7E5"/>
</g>
<g opacity="0.28">
<path d="M69.0399 34.4001C69.0399 35.4101 68.2199 36.2401 67.1999 36.2401C66.1799 36.2401 65.3599 35.4201 65.3599 34.4001C65.3599 33.3801 66.1799 32.5601 67.1999 32.5601C68.2199 32.5601 69.0399 33.3801 69.0399 34.4001Z" fill="#C8C7E5"/>
</g>
<g opacity="0.28">
<path d="M101.72 34.4001C101.72 35.4101 100.9 36.2401 99.88 36.2401C98.86 36.2401 98.04 35.4201 98.04 34.4001C98.04 33.3801 98.86 32.5601 99.88 32.5601C100.9 32.5601 101.72 33.3801 101.72 34.4001Z" fill="#C8C7E5"/>
</g>
<g opacity="0.28">
<path d="M134.4 34.4001C134.4 35.4101 133.58 36.2401 132.56 36.2401C131.54 36.2401 130.72 35.4201 130.72 34.4001C130.72 33.3801 131.54 32.5601 132.56 32.5601C133.58 32.5601 134.4 33.3801 134.4 34.4001Z" fill="#C8C7E5"/>
</g>
<g opacity="0.28">
<path d="M167.08 34.4001C167.08 35.4101 166.26 36.2401 165.24 36.2401C164.22 36.2401 163.4 35.4201 163.4 34.4001C163.4 33.3801 164.22 32.5601 165.24 32.5601C166.26 32.5601 167.08 33.3801 167.08 34.4001Z" fill="#C8C7E5"/>
</g>
<g opacity="0.28">
<path d="M199.77 34.4001C199.77 35.4101 198.95 36.2401 197.93 36.2401C196.91 36.2401 196.09 35.4201 196.09 34.4001C196.09 33.3801 196.91 32.5601 197.93 32.5601C198.95 32.5601 199.77 33.3801 199.77 34.4001Z" fill="#C8C7E5"/>
</g>
<g opacity="0.28">
<path d="M232.45 34.4001C232.45 35.4101 231.63 36.2401 230.61 36.2401C229.59 36.2401 228.77 35.4201 228.77 34.4001C228.77 33.3801 229.59 32.5601 230.61 32.5601C231.63 32.5601 232.45 33.3801 232.45 34.4001Z" fill="#C8C7E5"/>
</g>
<g opacity="0.28">
<path d="M265.13 34.4001C265.13 35.4101 264.31 36.2401 263.29 36.2401C262.27 36.2401 261.45 35.4201 261.45 34.4001C261.45 33.3801 262.27 32.5601 263.29 32.5601C264.31 32.5601 265.13 33.3801 265.13 34.4001Z" fill="#C8C7E5"/>
</g>
<g opacity="0.28">
<path d="M297.81 34.4001C297.81 35.4101 296.99 36.2401 295.97 36.2401C294.95 36.2401 294.13 35.4201 294.13 34.4001C294.13 33.3801 294.95 32.5601 295.97 32.5601C296.99 32.5601 297.81 33.3801 297.81 34.4001Z" fill="#C8C7E5"/>
</g>
<g opacity="0.28">
<path d="M330.49 34.4001C330.49 35.4101 329.67 36.2401 328.65 36.2401C327.63 36.2401 326.81 35.4201 326.81 34.4001C326.81 33.3801 327.63 32.5601 328.65 32.5601C329.67 32.5601 330.49 33.3801 330.49 34.4001Z" fill="#C8C7E5"/>
</g>
<g opacity="0.28">
<path d="M3.68 1.84C3.68 2.85 2.86 3.68 1.84 3.68C0.82 3.68 0 2.86 0 1.84C0 0.82 0.82 0 1.84 0C2.86 0 3.68 0.82 3.68 1.84Z" fill="#C8C7E5"/>
</g>
<g opacity="0.28">
<path d="M36.3602 1.84C36.3602 2.85 35.5402 3.68 34.5202 3.68C33.5002 3.68 32.6802 2.86 32.6802 1.84C32.6802 0.82 33.5002 0 34.5202 0C35.5402 0 36.3602 0.82 36.3602 1.84Z" fill="#C8C7E5"/>
</g>
<g opacity="0.28">
<path d="M69.0399 1.84C69.0399 2.85 68.2199 3.68 67.1999 3.68C66.1799 3.68 65.3599 2.86 65.3599 1.84C65.3599 0.82 66.1799 0 67.1999 0C68.2199 0 69.0399 0.82 69.0399 1.84Z" fill="#C8C7E5"/>
</g>
<g opacity="0.28">
<path d="M101.72 1.84C101.72 2.85 100.9 3.68 99.88 3.68C98.86 3.68 98.04 2.86 98.04 1.84C98.04 0.82 98.86 0 99.88 0C100.9 0 101.72 0.82 101.72 1.84Z" fill="#C8C7E5"/>
</g>
<g opacity="0.28">
<path d="M134.4 1.84C134.4 2.85 133.58 3.68 132.56 3.68C131.54 3.68 130.72 2.86 130.72 1.84C130.72 0.82 131.54 0 132.56 0C133.58 0 134.4 0.82 134.4 1.84Z" fill="#C8C7E5"/>
</g>
<g opacity="0.28">
<path d="M167.08 1.84C167.08 2.85 166.26 3.68 165.24 3.68C164.22 3.68 163.4 2.86 163.4 1.84C163.4 0.82 164.22 0 165.24 0C166.26 0 167.08 0.82 167.08 1.84Z" fill="#C8C7E5"/>
</g>
<g opacity="0.28">
<path d="M199.77 1.84C199.77 2.85 198.95 3.68 197.93 3.68C196.91 3.68 196.09 2.86 196.09 1.84C196.09 0.82 196.91 0 197.93 0C198.95 0 199.77 0.82 199.77 1.84Z" fill="#C8C7E5"/>
</g>
<g opacity="0.28">
<path d="M232.45 1.84C232.45 2.85 231.63 3.68 230.61 3.68C229.59 3.68 228.77 2.86 228.77 1.84C228.77 0.82 229.59 0 230.61 0C231.63 0 232.45 0.82 232.45 1.84Z" fill="#C8C7E5"/>
</g>
<g opacity="0.28">
<path d="M265.13 1.84C265.13 2.85 264.31 3.68 263.29 3.68C262.27 3.68 261.45 2.86 261.45 1.84C261.45 0.82 262.27 0 263.29 0C264.31 0 265.13 0.82 265.13 1.84Z" fill="#C8C7E5"/>
</g>
<g opacity="0.28">
<path d="M297.81 1.84C297.81 2.85 296.99 3.68 295.97 3.68C294.95 3.68 294.13 2.86 294.13 1.84C294.13 0.82 294.95 0 295.97 0C296.99 0 297.81 0.82 297.81 1.84Z" fill="#C8C7E5"/>
</g>
<g opacity="0.28">
<path d="M330.49 1.84C330.49 2.85 329.67 3.68 328.65 3.68C327.63 3.68 326.81 2.86 326.81 1.84C326.81 0.82 327.63 0 328.65 0C329.67 0 330.49 0.82 330.49 1.84Z" fill="#C8C7E5"/>
</g>
<g opacity="0.28">
<path d="M3.68 197.65C3.68 198.66 2.86 199.49 1.84 199.49C0.82 199.49 0 198.67 0 197.65C0 196.63 0.82 195.81 1.84 195.81C2.86 195.81 3.68 196.63 3.68 197.65Z" fill="#C8C7E5"/>
</g>
<g opacity="0.28">
<path d="M36.3602 197.65C36.3602 198.66 35.5402 199.49 34.5202 199.49C33.5002 199.49 32.6802 198.67 32.6802 197.65C32.6802 196.63 33.5002 195.81 34.5202 195.81C35.5402 195.81 36.3602 196.63 36.3602 197.65Z" fill="#C8C7E5"/>
</g>
<g opacity="0.28">
<path d="M69.0399 197.65C69.0399 198.66 68.2199 199.49 67.1999 199.49C66.1799 199.49 65.3599 198.67 65.3599 197.65C65.3599 196.63 66.1799 195.81 67.1999 195.81C68.2199 195.81 69.0399 196.63 69.0399 197.65Z" fill="#C8C7E5"/>
</g>
<g opacity="0.28">
<path d="M101.72 197.65C101.72 198.66 100.9 199.49 99.88 199.49C98.86 199.49 98.04 198.67 98.04 197.65C98.04 196.63 98.86 195.81 99.88 195.81C100.9 195.81 101.72 196.63 101.72 197.65Z" fill="#C8C7E5"/>
</g>
<g opacity="0.28">
<path d="M134.4 197.65C134.4 198.66 133.58 199.49 132.56 199.49C131.54 199.49 130.72 198.67 130.72 197.65C130.72 196.63 131.54 195.81 132.56 195.81C133.58 195.81 134.4 196.63 134.4 197.65Z" fill="#C8C7E5"/>
</g>
<g opacity="0.28">
<path d="M167.08 197.65C167.08 198.66 166.26 199.49 165.24 199.49C164.22 199.49 163.4 198.67 163.4 197.65C163.4 196.63 164.22 195.81 165.24 195.81C166.26 195.81 167.08 196.63 167.08 197.65Z" fill="#C8C7E5"/>
</g>
<g opacity="0.28">
<path d="M199.77 197.65C199.77 198.66 198.95 199.49 197.93 199.49C196.91 199.49 196.09 198.67 196.09 197.65C196.09 196.63 196.91 195.81 197.93 195.81C198.95 195.81 199.77 196.63 199.77 197.65Z" fill="#C8C7E5"/>
</g>
<g opacity="0.28">
<path d="M232.45 197.65C232.45 198.66 231.63 199.49 230.61 199.49C229.59 199.49 228.77 198.67 228.77 197.65C228.77 196.63 229.59 195.81 230.61 195.81C231.63 195.81 232.45 196.63 232.45 197.65Z" fill="#C8C7E5"/>
</g>
<g opacity="0.28">
<path d="M265.13 197.65C265.13 198.66 264.31 199.49 263.29 199.49C262.27 199.49 261.45 198.67 261.45 197.65C261.45 196.63 262.27 195.81 263.29 195.81C264.31 195.81 265.13 196.63 265.13 197.65Z" fill="#C8C7E5"/>
</g>
<g opacity="0.28">
<path d="M297.81 197.65C297.81 198.66 296.99 199.49 295.97 199.49C294.95 199.49 294.13 198.67 294.13 197.65C294.13 196.63 294.95 195.81 295.97 195.81C296.99 195.81 297.81 196.63 297.81 197.65Z" fill="#C8C7E5"/>
</g>
<g opacity="0.28">
<path d="M330.49 197.65C330.49 198.66 329.67 199.49 328.65 199.49C327.63 199.49 326.81 198.67 326.81 197.65C326.81 196.63 327.63 195.81 328.65 195.81C329.67 195.81 330.49 196.63 330.49 197.65Z" fill="#C8C7E5"/>
</g>
<g opacity="0.28">
<path d="M3.68 230.65C3.68 231.67 2.86 232.49 1.84 232.49C0.82 232.49 0 231.67 0 230.65C0 229.63 0.82 228.81 1.84 228.81C2.86 228.81 3.68 229.63 3.68 230.65Z" fill="#C8C7E5"/>
</g>
<g opacity="0.28">
<path d="M36.3602 230.65C36.3602 231.67 35.5402 232.49 34.5202 232.49C33.5002 232.49 32.6802 231.67 32.6802 230.65C32.6802 229.63 33.5002 228.81 34.5202 228.81C35.5402 228.81 36.3602 229.63 36.3602 230.65Z" fill="#C8C7E5"/>
</g>
<g opacity="0.28">
<path d="M69.0399 230.65C69.0399 231.67 68.2199 232.49 67.1999 232.49C66.1799 232.49 65.3599 231.67 65.3599 230.65C65.3599 229.63 66.1799 228.81 67.1999 228.81C68.2199 228.81 69.0399 229.63 69.0399 230.65Z" fill="#C8C7E5"/>
</g>
<g opacity="0.28">
<path d="M101.72 230.65C101.72 231.67 100.9 232.49 99.88 232.49C98.86 232.49 98.04 231.67 98.04 230.65C98.04 229.63 98.86 228.81 99.88 228.81C100.9 228.81 101.72 229.63 101.72 230.65Z" fill="#C8C7E5"/>
</g>
<g opacity="0.28">
<path d="M134.4 230.65C134.4 231.67 133.58 232.49 132.56 232.49C131.54 232.49 130.72 231.67 130.72 230.65C130.72 229.63 131.54 228.81 132.56 228.81C133.58 228.81 134.4 229.63 134.4 230.65Z" fill="#C8C7E5"/>
</g>
<g opacity="0.28">
<path d="M167.08 230.65C167.08 231.67 166.26 232.49 165.24 232.49C164.22 232.49 163.4 231.67 163.4 230.65C163.4 229.63 164.22 228.81 165.24 228.81C166.26 228.81 167.08 229.63 167.08 230.65Z" fill="#C8C7E5"/>
</g>
<g opacity="0.28">
<path d="M199.77 230.65C199.77 231.67 198.95 232.49 197.93 232.49C196.91 232.49 196.09 231.67 196.09 230.65C196.09 229.63 196.91 228.81 197.93 228.81C198.95 228.81 199.77 229.63 199.77 230.65Z" fill="#C8C7E5"/>
</g>
<g opacity="0.28">
<path d="M232.45 230.65C232.45 231.67 231.63 232.49 230.61 232.49C229.59 232.49 228.77 231.67 228.77 230.65C228.77 229.63 229.59 228.81 230.61 228.81C231.63 228.81 232.45 229.63 232.45 230.65Z" fill="#C8C7E5"/>
</g>
<g opacity="0.28">
<path d="M265.13 230.65C265.13 231.67 264.31 232.49 263.29 232.49C262.27 232.49 261.45 231.67 261.45 230.65C261.45 229.63 262.27 228.81 263.29 228.81C264.31 228.81 265.13 229.63 265.13 230.65Z" fill="#C8C7E5"/>
</g>
<g opacity="0.28">
<path d="M297.81 230.65C297.81 231.67 296.99 232.49 295.97 232.49C294.95 232.49 294.13 231.67 294.13 230.65C294.13 229.63 294.95 228.81 295.97 228.81C296.99 228.81 297.81 229.63 297.81 230.65Z" fill="#C8C7E5"/>
</g>
<g opacity="0.28">
<path d="M330.49 230.65C330.49 231.67 329.67 232.49 328.65 232.49C327.63 232.49 326.81 231.67 326.81 230.65C326.81 229.63 327.63 228.81 328.65 228.81C329.67 228.81 330.49 229.63 330.49 230.65Z" fill="#C8C7E5"/>
</g>
<g opacity="0.28">
<path d="M3.68 263.65C3.68 264.67 2.86 265.49 1.84 265.49C0.82 265.49 0 264.67 0 263.65C0 262.63 0.82 261.81 1.84 261.81C2.86 261.81 3.68 262.63 3.68 263.65Z" fill="#C8C7E5"/>
</g>
<g opacity="0.28">
<path d="M36.3602 263.65C36.3602 264.67 35.5402 265.49 34.5202 265.49C33.5002 265.49 32.6802 264.67 32.6802 263.65C32.6802 262.63 33.5002 261.81 34.5202 261.81C35.5402 261.81 36.3602 262.63 36.3602 263.65Z" fill="#C8C7E5"/>
</g>
<g opacity="0.28">
<path d="M69.0399 263.65C69.0399 264.67 68.2199 265.49 67.1999 265.49C66.1799 265.49 65.3599 264.67 65.3599 263.65C65.3599 262.63 66.1799 261.81 67.1999 261.81C68.2199 261.81 69.0399 262.63 69.0399 263.65Z" fill="#C8C7E5"/>
</g>
<g opacity="0.28">
<path d="M101.72 263.65C101.72 264.67 100.9 265.49 99.88 265.49C98.86 265.49 98.04 264.67 98.04 263.65C98.04 262.63 98.86 261.81 99.88 261.81C100.9 261.81 101.72 262.63 101.72 263.65Z" fill="#C8C7E5"/>
</g>
<g opacity="0.28">
<path d="M134.4 263.65C134.4 264.67 133.58 265.49 132.56 265.49C131.54 265.49 130.72 264.67 130.72 263.65C130.72 262.63 131.54 261.81 132.56 261.81C133.58 261.81 134.4 262.63 134.4 263.65Z" fill="#C8C7E5"/>
</g>
<g opacity="0.28">
<path d="M167.08 263.65C167.08 264.67 166.26 265.49 165.24 265.49C164.22 265.49 163.4 264.67 163.4 263.65C163.4 262.63 164.22 261.81 165.24 261.81C166.26 261.81 167.08 262.63 167.08 263.65Z" fill="#C8C7E5"/>
</g>
<g opacity="0.28">
<path d="M199.77 263.65C199.77 264.67 198.95 265.49 197.93 265.49C196.91 265.49 196.09 264.67 196.09 263.65C196.09 262.63 196.91 261.81 197.93 261.81C198.95 261.81 199.77 262.63 199.77 263.65Z" fill="#C8C7E5"/>
</g>
<g opacity="0.28">
<path d="M232.45 263.65C232.45 264.67 231.63 265.49 230.61 265.49C229.59 265.49 228.77 264.67 228.77 263.65C228.77 262.63 229.59 261.81 230.61 261.81C231.63 261.81 232.45 262.63 232.45 263.65Z" fill="#C8C7E5"/>
</g>
<g opacity="0.28">
<path d="M265.13 263.65C265.13 264.67 264.31 265.49 263.29 265.49C262.27 265.49 261.45 264.67 261.45 263.65C261.45 262.63 262.27 261.81 263.29 261.81C264.31 261.81 265.13 262.63 265.13 263.65Z" fill="#C8C7E5"/>
</g>
<g opacity="0.28">
<path d="M297.81 263.65C297.81 264.67 296.99 265.49 295.97 265.49C294.95 265.49 294.13 264.67 294.13 263.65C294.13 262.63 294.95 261.81 295.97 261.81C296.99 261.81 297.81 262.63 297.81 263.65Z" fill="#C8C7E5"/>
</g>
<g opacity="0.28">
<path d="M330.49 263.65C330.49 264.67 329.67 265.49 328.65 265.49C327.63 265.49 326.81 264.67 326.81 263.65C326.81 262.63 327.63 261.81 328.65 261.81C329.67 261.81 330.49 262.63 330.49 263.65Z" fill="#C8C7E5"/>
</g>
<g opacity="0.28">
<path d="M1.84 298.49C2.8562 298.49 3.68 297.666 3.68 296.65C3.68 295.634 2.8562 294.81 1.84 294.81C0.823796 294.81 0 295.634 0 296.65C0 297.666 0.823796 298.49 1.84 298.49Z" fill="#C8C7E5"/>
</g>
<g opacity="0.28">
<path d="M36.3602 296.65C36.3602 297.66 35.5402 298.49 34.5202 298.49C33.5002 298.49 32.6802 297.67 32.6802 296.65C32.6802 295.63 33.5002 294.81 34.5202 294.81C35.5402 294.81 36.3602 295.63 36.3602 296.65Z" fill="#C8C7E5"/>
</g>
<g opacity="0.28">
<path d="M69.0399 296.65C69.0399 297.66 68.2199 298.49 67.1999 298.49C66.1799 298.49 65.3599 297.67 65.3599 296.65C65.3599 295.63 66.1799 294.81 67.1999 294.81C68.2199 294.81 69.0399 295.63 69.0399 296.65Z" fill="#C8C7E5"/>
</g>
<g opacity="0.28">
<path d="M101.72 296.65C101.72 297.66 100.9 298.49 99.88 298.49C98.86 298.49 98.04 297.67 98.04 296.65C98.04 295.63 98.86 294.81 99.88 294.81C100.9 294.81 101.72 295.63 101.72 296.65Z" fill="#C8C7E5"/>
</g>
<g opacity="0.28">
<path d="M132.57 298.49C133.586 298.49 134.41 297.666 134.41 296.65C134.41 295.634 133.586 294.81 132.57 294.81C131.554 294.81 130.73 295.634 130.73 296.65C130.73 297.666 131.554 298.49 132.57 298.49Z" fill="#C8C7E5"/>
</g>
<g opacity="0.28">
<path d="M165.25 298.49C166.266 298.49 167.09 297.666 167.09 296.65C167.09 295.634 166.266 294.81 165.25 294.81C164.234 294.81 163.41 295.634 163.41 296.65C163.41 297.666 164.234 298.49 165.25 298.49Z" fill="#C8C7E5"/>
</g>
<g opacity="0.28">
<path d="M199.77 296.65C199.77 297.66 198.95 298.49 197.93 298.49C196.91 298.49 196.09 297.67 196.09 296.65C196.09 295.63 196.91 294.81 197.93 294.81C198.95 294.81 199.77 295.63 199.77 296.65Z" fill="#C8C7E5"/>
</g>
<g opacity="0.28">
<path d="M232.45 296.65C232.45 297.66 231.63 298.49 230.61 298.49C229.59 298.49 228.77 297.67 228.77 296.65C228.77 295.63 229.59 294.81 230.61 294.81C231.63 294.81 232.45 295.63 232.45 296.65Z" fill="#C8C7E5"/>
</g>
<g opacity="0.28">
<path d="M263.29 298.49C264.306 298.49 265.13 297.666 265.13 296.65C265.13 295.634 264.306 294.81 263.29 294.81C262.274 294.81 261.45 295.634 261.45 296.65C261.45 297.666 262.274 298.49 263.29 298.49Z" fill="#C8C7E5"/>
</g>
<g opacity="0.28">
<path d="M295.97 298.49C296.986 298.49 297.81 297.666 297.81 296.65C297.81 295.634 296.986 294.81 295.97 294.81C294.954 294.81 294.13 295.634 294.13 296.65C294.13 297.666 294.954 298.49 295.97 298.49Z" fill="#C8C7E5"/>
</g>
<g opacity="0.28">
<path d="M328.66 298.49C329.676 298.49 330.5 297.666 330.5 296.65C330.5 295.634 329.676 294.81 328.66 294.81C327.644 294.81 326.82 295.634 326.82 296.65C326.82 297.666 327.644 298.49 328.66 298.49Z" fill="#C8C7E5"/>
</g>
<g opacity="0.28">
<path d="M1.84 331.49C2.8562 331.49 3.68 330.666 3.68 329.65C3.68 328.634 2.8562 327.81 1.84 327.81C0.823796 327.81 0 328.634 0 329.65C0 330.666 0.823796 331.49 1.84 331.49Z" fill="#C8C7E5"/>
</g>
<g opacity="0.28">
<path d="M36.3602 329.65C36.3602 330.66 35.5402 331.49 34.5202 331.49C33.5002 331.49 32.6802 330.67 32.6802 329.65C32.6802 328.63 33.5002 327.81 34.5202 327.81C35.5402 327.81 36.3602 328.63 36.3602 329.65Z" fill="#C8C7E5"/>
</g>
<g opacity="0.28">
<path d="M69.0399 329.65C69.0399 330.66 68.2199 331.49 67.1999 331.49C66.1799 331.49 65.3599 330.67 65.3599 329.65C65.3599 328.63 66.1799 327.81 67.1999 327.81C68.2199 327.81 69.0399 328.63 69.0399 329.65Z" fill="#C8C7E5"/>
</g>
<g opacity="0.28">
<path d="M101.72 329.65C101.72 330.66 100.9 331.49 99.88 331.49C98.86 331.49 98.04 330.67 98.04 329.65C98.04 328.63 98.86 327.81 99.88 327.81C100.9 327.81 101.72 328.63 101.72 329.65Z" fill="#C8C7E5"/>
</g>
<g opacity="0.28">
<path d="M132.57 331.49C133.586 331.49 134.41 330.666 134.41 329.65C134.41 328.634 133.586 327.81 132.57 327.81C131.554 327.81 130.73 328.634 130.73 329.65C130.73 330.666 131.554 331.49 132.57 331.49Z" fill="#C8C7E5"/>
</g>
<g opacity="0.28">
<path d="M165.25 331.49C166.266 331.49 167.09 330.666 167.09 329.65C167.09 328.634 166.266 327.81 165.25 327.81C164.234 327.81 163.41 328.634 163.41 329.65C163.41 330.666 164.234 331.49 165.25 331.49Z" fill="#C8C7E5"/>
</g>
<g opacity="0.28">
<path d="M199.77 329.65C199.77 330.66 198.95 331.49 197.93 331.49C196.91 331.49 196.09 330.67 196.09 329.65C196.09 328.63 196.91 327.81 197.93 327.81C198.95 327.81 199.77 328.63 199.77 329.65Z" fill="#C8C7E5"/>
</g>
<g opacity="0.28">
<path d="M232.45 329.65C232.45 330.66 231.63 331.49 230.61 331.49C229.59 331.49 228.77 330.67 228.77 329.65C228.77 328.63 229.59 327.81 230.61 327.81C231.63 327.81 232.45 328.63 232.45 329.65Z" fill="#C8C7E5"/>
</g>
<g opacity="0.28">
<path d="M263.29 331.49C264.306 331.49 265.13 330.666 265.13 329.65C265.13 328.634 264.306 327.81 263.29 327.81C262.274 327.81 261.45 328.634 261.45 329.65C261.45 330.666 262.274 331.49 263.29 331.49Z" fill="#C8C7E5"/>
</g>
<g opacity="0.28">
<path d="M295.97 331.49C296.986 331.49 297.81 330.666 297.81 329.65C297.81 328.634 296.986 327.81 295.97 327.81C294.954 327.81 294.13 328.634 294.13 329.65C294.13 330.666 294.954 331.49 295.97 331.49Z" fill="#C8C7E5"/>
</g>
<g opacity="0.28">
<path d="M328.66 331.49C329.676 331.49 330.5 330.666 330.5 329.65C330.5 328.634 329.676 327.81 328.66 327.81C327.644 327.81 326.82 328.634 326.82 329.65C326.82 330.666 327.644 331.49 328.66 331.49Z" fill="#C8C7E5"/>
</g>
<g opacity="0.28">
<path d="M3.68 362.65C3.68 363.66 2.86 364.49 1.84 364.49C0.82 364.49 0 363.67 0 362.65C0 361.63 0.82 360.81 1.84 360.81C2.86 360.81 3.68 361.63 3.68 362.65Z" fill="#C8C7E5"/>
</g>
<g opacity="0.28">
<path d="M36.3602 362.65C36.3602 363.66 35.5402 364.49 34.5202 364.49C33.5002 364.49 32.6802 363.67 32.6802 362.65C32.6802 361.63 33.5002 360.81 34.5202 360.81C35.5402 360.81 36.3602 361.63 36.3602 362.65Z" fill="#C8C7E5"/>
</g>
<g opacity="0.28">
<path d="M69.0399 362.65C69.0399 363.66 68.2199 364.49 67.1999 364.49C66.1799 364.49 65.3599 363.67 65.3599 362.65C65.3599 361.63 66.1799 360.81 67.1999 360.81C68.2199 360.81 69.0399 361.63 69.0399 362.65Z" fill="#C8C7E5"/>
</g>
<g opacity="0.28">
<path d="M101.72 362.65C101.72 363.66 100.9 364.49 99.88 364.49C98.86 364.49 98.04 363.67 98.04 362.65C98.04 361.63 98.86 360.81 99.88 360.81C100.9 360.81 101.72 361.63 101.72 362.65Z" fill="#C8C7E5"/>
</g>
<g opacity="0.28">
<path d="M134.4 362.65C134.4 363.66 133.58 364.49 132.56 364.49C131.54 364.49 130.72 363.67 130.72 362.65C130.72 361.63 131.54 360.81 132.56 360.81C133.58 360.81 134.4 361.63 134.4 362.65Z" fill="#C8C7E5"/>
</g>
<g opacity="0.28">
<path d="M167.08 362.65C167.08 363.66 166.26 364.49 165.24 364.49C164.22 364.49 163.4 363.67 163.4 362.65C163.4 361.63 164.22 360.81 165.24 360.81C166.26 360.81 167.08 361.63 167.08 362.65Z" fill="#C8C7E5"/>
</g>
<g opacity="0.28">
<path d="M199.77 362.65C199.77 363.66 198.95 364.49 197.93 364.49C196.91 364.49 196.09 363.67 196.09 362.65C196.09 361.63 196.91 360.81 197.93 360.81C198.95 360.81 199.77 361.63 199.77 362.65Z" fill="#C8C7E5"/>
</g>
<g opacity="0.28">
<path d="M232.45 362.65C232.45 363.66 231.63 364.49 230.61 364.49C229.59 364.49 228.77 363.67 228.77 362.65C228.77 361.63 229.59 360.81 230.61 360.81C231.63 360.81 232.45 361.63 232.45 362.65Z" fill="#C8C7E5"/>
</g>
<g opacity="0.28">
<path d="M265.13 362.65C265.13 363.66 264.31 364.49 263.29 364.49C262.27 364.49 261.45 363.67 261.45 362.65C261.45 361.63 262.27 360.81 263.29 360.81C264.31 360.81 265.13 361.63 265.13 362.65Z" fill="#C8C7E5"/>
</g>
<g opacity="0.28">
<path d="M297.81 362.65C297.81 363.66 296.99 364.49 295.97 364.49C294.95 364.49 294.13 363.67 294.13 362.65C294.13 361.63 294.95 360.81 295.97 360.81C296.99 360.81 297.81 361.63 297.81 362.65Z" fill="#C8C7E5"/>
</g>
<g opacity="0.28">
<path d="M330.49 362.65C330.49 363.66 329.67 364.49 328.65 364.49C327.63 364.49 326.81 363.67 326.81 362.65C326.81 361.63 327.63 360.81 328.65 360.81C329.67 360.81 330.49 361.63 330.49 362.65Z" fill="#C8C7E5"/>
</g>
<g opacity="0.28">
<path d="M3.68 395.65C3.68 396.66 2.86 397.49 1.84 397.49C0.82 397.49 0 396.67 0 395.65C0 394.63 0.82 393.81 1.84 393.81C2.86 393.81 3.68 394.63 3.68 395.65Z" fill="#C8C7E5"/>
</g>
<g opacity="0.28">
<path d="M36.3602 395.65C36.3602 396.66 35.5402 397.49 34.5202 397.49C33.5002 397.49 32.6802 396.67 32.6802 395.65C32.6802 394.63 33.5002 393.81 34.5202 393.81C35.5402 393.81 36.3602 394.63 36.3602 395.65Z" fill="#C8C7E5"/>
</g>
<g opacity="0.28">
<path d="M69.0399 395.65C69.0399 396.66 68.2199 397.49 67.1999 397.49C66.1799 397.49 65.3599 396.67 65.3599 395.65C65.3599 394.63 66.1799 393.81 67.1999 393.81C68.2199 393.81 69.0399 394.63 69.0399 395.65Z" fill="#C8C7E5"/>
</g>
<g opacity="0.28">
<path d="M101.72 395.65C101.72 396.66 100.9 397.49 99.88 397.49C98.86 397.49 98.04 396.67 98.04 395.65C98.04 394.63 98.86 393.81 99.88 393.81C100.9 393.81 101.72 394.63 101.72 395.65Z" fill="#C8C7E5"/>
</g>
<g opacity="0.28">
<path d="M134.4 395.65C134.4 396.66 133.58 397.49 132.56 397.49C131.54 397.49 130.72 396.67 130.72 395.65C130.72 394.63 131.54 393.81 132.56 393.81C133.58 393.81 134.4 394.63 134.4 395.65Z" fill="#C8C7E5"/>
</g>
<g opacity="0.28">
<path d="M167.08 395.65C167.08 396.66 166.26 397.49 165.24 397.49C164.22 397.49 163.4 396.67 163.4 395.65C163.4 394.63 164.22 393.81 165.24 393.81C166.26 393.81 167.08 394.63 167.08 395.65Z" fill="#C8C7E5"/>
</g>
<g opacity="0.28">
<path d="M199.77 395.65C199.77 396.66 198.95 397.49 197.93 397.49C196.91 397.49 196.09 396.67 196.09 395.65C196.09 394.63 196.91 393.81 197.93 393.81C198.95 393.81 199.77 394.63 199.77 395.65Z" fill="#C8C7E5"/>
</g>
<g opacity="0.28">
<path d="M232.45 395.65C232.45 396.66 231.63 397.49 230.61 397.49C229.59 397.49 228.77 396.67 228.77 395.65C228.77 394.63 229.59 393.81 230.61 393.81C231.63 393.81 232.45 394.63 232.45 395.65Z" fill="#C8C7E5"/>
</g>
<g opacity="0.28">
<path d="M265.13 395.65C265.13 396.66 264.31 397.49 263.29 397.49C262.27 397.49 261.45 396.67 261.45 395.65C261.45 394.63 262.27 393.81 263.29 393.81C264.31 393.81 265.13 394.63 265.13 395.65Z" fill="#C8C7E5"/>
</g>
<g opacity="0.28">
<path d="M297.81 395.65C297.81 396.66 296.99 397.49 295.97 397.49C294.95 397.49 294.13 396.67 294.13 395.65C294.13 394.63 294.95 393.81 295.97 393.81C296.99 393.81 297.81 394.63 297.81 395.65Z" fill="#C8C7E5"/>
</g>
<g opacity="0.28">
<path d="M330.49 395.65C330.49 396.66 329.67 397.49 328.65 397.49C327.63 397.49 326.81 396.67 326.81 395.65C326.81 394.63 327.63 393.81 328.65 393.81C329.67 393.81 330.49 394.63 330.49 395.65Z" fill="#C8C7E5"/>
</g>
<g opacity="0.28">
<path d="M3.68 428.65C3.68 429.67 2.86 430.49 1.84 430.49C0.82 430.49 0 429.67 0 428.65C0 427.63 0.82 426.81 1.84 426.81C2.86 426.81 3.68 427.63 3.68 428.65Z" fill="#C8C7E5"/>
</g>
<g opacity="0.28">
<path d="M36.3602 428.65C36.3602 429.67 35.5402 430.49 34.5202 430.49C33.5002 430.49 32.6802 429.67 32.6802 428.65C32.6802 427.63 33.5002 426.81 34.5202 426.81C35.5402 426.81 36.3602 427.63 36.3602 428.65Z" fill="#C8C7E5"/>
</g>
<g opacity="0.28">
<path d="M69.0399 428.65C69.0399 429.67 68.2199 430.49 67.1999 430.49C66.1799 430.49 65.3599 429.67 65.3599 428.65C65.3599 427.63 66.1799 426.81 67.1999 426.81C68.2199 426.81 69.0399 427.63 69.0399 428.65Z" fill="#C8C7E5"/>
</g>
<g opacity="0.28">
<path d="M101.72 428.65C101.72 429.67 100.9 430.49 99.88 430.49C98.86 430.49 98.04 429.67 98.04 428.65C98.04 427.63 98.86 426.81 99.88 426.81C100.9 426.81 101.72 427.63 101.72 428.65Z" fill="#C8C7E5"/>
</g>
<g opacity="0.28">
<path d="M134.4 428.65C134.4 429.67 133.58 430.49 132.56 430.49C131.54 430.49 130.72 429.67 130.72 428.65C130.72 427.63 131.54 426.81 132.56 426.81C133.58 426.81 134.4 427.63 134.4 428.65Z" fill="#C8C7E5"/>
</g>
<g opacity="0.28">
<path d="M167.08 428.65C167.08 429.67 166.26 430.49 165.24 430.49C164.22 430.49 163.4 429.67 163.4 428.65C163.4 427.63 164.22 426.81 165.24 426.81C166.26 426.81 167.08 427.63 167.08 428.65Z" fill="#C8C7E5"/>
</g>
<g opacity="0.28">
<path d="M199.77 428.65C199.77 429.67 198.95 430.49 197.93 430.49C196.91 430.49 196.09 429.67 196.09 428.65C196.09 427.63 196.91 426.81 197.93 426.81C198.95 426.81 199.77 427.63 199.77 428.65Z" fill="#C8C7E5"/>
</g>
<g opacity="0.28">
<path d="M232.45 428.65C232.45 429.67 231.63 430.49 230.61 430.49C229.59 430.49 228.77 429.67 228.77 428.65C228.77 427.63 229.59 426.81 230.61 426.81C231.63 426.81 232.45 427.63 232.45 428.65Z" fill="#C8C7E5"/>
</g>
<g opacity="0.28">
<path d="M265.13 428.65C265.13 429.67 264.31 430.49 263.29 430.49C262.27 430.49 261.45 429.67 261.45 428.65C261.45 427.63 262.27 426.81 263.29 426.81C264.31 426.81 265.13 427.63 265.13 428.65Z" fill="#C8C7E5"/>
</g>
<g opacity="0.28">
<path d="M297.81 428.65C297.81 429.67 296.99 430.49 295.97 430.49C294.95 430.49 294.13 429.67 294.13 428.65C294.13 427.63 294.95 426.81 295.97 426.81C296.99 426.81 297.81 427.63 297.81 428.65Z" fill="#C8C7E5"/>
</g>
<g opacity="0.28">
<path d="M330.49 428.65C330.49 429.67 329.67 430.49 328.65 430.49C327.63 430.49 326.81 429.67 326.81 428.65C326.81 427.63 327.63 426.81 328.65 426.81C329.67 426.81 330.49 427.63 330.49 428.65Z" fill="#C8C7E5"/>
</g>
</g>
</svg>
