<svg width="133" height="25" viewBox="0 0 133 25" fill="none" xmlns="http://www.w3.org/2000/svg">
<g clip-path="url(#clip0_156_5843)">
<path d="M39.2617 4.54073H32.7252V11.5333H39.2374C40.177 11.5333 40.9059 11.1857 41.4244 10.4904C41.9427 9.77926 42.2019 8.94964 42.2019 8.00148C42.2019 7.03752 41.9427 6.2237 41.4244 5.56C40.9221 4.88049 40.2013 4.54073 39.2617 4.54073ZM41.9345 19L38.9701 13.074H32.7252V19H31V3H39.3832C40.7601 3 41.8698 3.48987 42.7122 4.46963C43.5708 5.44938 44 6.61087 44 7.95408C44 9.04444 43.7085 10.0637 43.1252 11.0119C42.542 11.9442 41.7402 12.5684 40.7196 12.8844L43.7814 19H41.9345Z" fill="white"/>
<path d="M47.0201 5.44587C46.7267 5.44587 46.4867 5.32479 46.3 5.08263C46.1001 4.84045 46 4.54986 46 4.21082C46 3.88794 46.1001 3.60542 46.3 3.36324C46.4867 3.12108 46.7267 3 47.0201 3C47.2866 3 47.52 3.12108 47.72 3.36324C47.9067 3.62156 48 3.90408 48 4.21082C48 4.53371 47.9067 4.82431 47.72 5.08263C47.52 5.32479 47.2866 5.44587 47.0201 5.44587ZM46.28 20V8.01282H47.64V20H46.28Z" fill="white"/>
<path d="M57.8777 8.51181C56.2254 8.51181 54.8012 9.40945 53.6052 11.2047V19H52V7.30708H53.1566L53.44 9.48031C54.6674 7.82677 56.2254 7 58.1137 7C59.5931 7 60.7733 7.45669 61.6546 8.37007C62.5515 9.26772 63 10.4409 63 11.8898V19H61.4184V12.0787C61.4184 11.0079 61.088 10.1496 60.427 9.50394C59.7819 8.84252 58.932 8.51181 57.8777 8.51181Z" fill="white"/>
<path d="M75.2126 9.84903C74.3465 8.9229 73.2913 8.45983 72.0472 8.45983C70.8031 8.45983 69.7637 8.93075 68.9292 9.87258C68.0946 10.7987 67.6772 11.8818 67.6772 13.122C67.6772 14.3776 68.0946 15.4765 68.9292 16.4184C69.7637 17.3445 70.8031 17.8075 72.0472 17.8075C73.3071 17.8075 74.3622 17.3445 75.2126 16.4184C76.0787 15.4765 76.5118 14.3776 76.5118 13.122C76.5118 11.8504 76.0787 10.7595 75.2126 9.84903ZM72.2127 24C70.4331 24 68.5985 23.5998 66.7088 22.7992L67.2284 21.5278C68.8504 22.2341 70.4725 22.5873 72.0945 22.5873C73.4016 22.5873 74.441 22.2498 75.2126 21.5748C76 20.8998 76.3937 19.9344 76.3937 18.6787V17.1718C75.8426 17.8153 75.1654 18.3255 74.3622 18.7023C73.5749 19.0789 72.7638 19.2674 71.9291 19.2674C70.2442 19.2674 68.8346 18.663 67.7008 17.4543C66.5669 16.2456 66 14.8015 66 13.122C66 11.4423 66.5749 10.006 67.7244 8.81303C68.874 7.60433 70.2834 7 71.9528 7C73.7796 7 75.3229 7.74561 76.5826 9.23684L76.9134 7.30609H78V18.6787C78 20.4211 77.4725 21.7396 76.4173 22.6344C75.3623 23.5448 73.9607 24 72.2127 24Z" fill="white"/>
<path d="M91.2587 18.1536C90.098 19.3845 88.6706 20 86.9765 20C85.2824 20 83.8628 19.3762 82.7176 18.1285C81.5725 16.8809 81 15.3589 81 13.5624C81 11.7325 81.5725 10.1855 82.7176 8.9213C83.8628 7.64043 85.2824 7 86.9765 7C88.7019 7 90.1372 7.64043 91.2822 8.9213C92.4274 10.2022 93 11.7492 93 13.5624C93 15.3755 92.4196 16.9059 91.2587 18.1536ZM86.9765 18.4529C88.247 18.4529 89.2901 17.9788 90.1058 17.0307C90.9215 16.0658 91.3294 14.9098 91.3294 13.5624C91.3294 12.5643 91.0941 11.6577 90.6235 10.8426C90.1686 10.0109 89.5255 9.37043 88.6941 8.9213C88.1607 8.67177 87.5882 8.54701 86.9765 8.54701C85.7215 8.54701 84.6862 9.04606 83.8706 10.0441C83.0706 11.0422 82.6706 12.215 82.6706 13.5624C82.6706 14.5438 82.898 15.4587 83.3529 16.307C83.8235 17.1555 84.4745 17.7459 85.3059 18.0786C85.8235 18.3282 86.3803 18.4529 86.9765 18.4529Z" fill="white"/>
<path d="M95 18.2783L95.651 16.9808C97.2322 17.9788 98.9296 18.4779 100.743 18.4779C101.627 18.4779 102.286 18.2948 102.72 17.9289C103.169 17.563 103.379 17.1138 103.347 16.5816C103.332 16.2821 103.247 16.0077 103.092 15.7581C102.952 15.5086 102.797 15.3173 102.627 15.1842C102.456 15.0512 102.208 14.918 101.883 14.785C101.573 14.6519 101.325 14.5688 101.138 14.5354C100.968 14.4855 100.712 14.419 100.371 14.3359C99.7667 14.1862 99.2473 14.0364 98.8133 13.8867C98.3948 13.737 97.922 13.5208 97.3949 13.238C96.8679 12.9552 96.4571 12.5892 96.1626 12.1401C95.8836 11.6743 95.744 11.142 95.744 10.5432C95.744 9.34548 96.1704 8.45553 97.023 7.87332C97.8911 7.2911 98.9142 7 100.092 7C100.48 7 100.883 7.02495 101.301 7.07485C102.107 7.22457 102.913 7.44913 103.72 7.74856C104.138 7.94817 104.471 8.13947 104.719 8.32245L104.115 9.595C102.952 8.87971 101.658 8.52207 100.232 8.52207C99.3791 8.52207 98.6816 8.68841 98.1391 9.0211C97.5964 9.38706 97.333 9.87778 97.3484 10.4933C97.3795 11.0089 97.5964 11.4248 97.9996 11.7409C98.418 12.0736 99.1854 12.373 100.301 12.6391C100.89 12.7722 101.402 12.9136 101.836 13.0633C102.286 13.213 102.774 13.4375 103.301 13.737C103.844 14.0198 104.262 14.394 104.557 14.8599C104.851 15.309 104.998 15.833 104.998 16.4319C105.014 16.9642 104.921 17.4383 104.719 17.8541C104.006 19.2847 102.603 20 100.511 20C98.4956 20 96.6586 19.4261 95 18.2783Z" fill="white"/>
<path d="M113 18.5279V20C112.008 20 111.102 19.823 110.283 19.4691C109.48 19.099 108.937 18.4957 108.654 17.6591C108.465 17.2086 108.37 16.6857 108.37 16.0905V9.18853H107V7.74056H108.37V4.69984L109.976 4V7.74056H112.787V8.82653L112.551 9.18853H109.976V16.0422C109.961 16.7662 110.181 17.3615 110.638 17.828C111.095 18.2946 111.882 18.5279 113 18.5279Z" fill="white"/>
<path d="M116.383 17.9289C116.866 18.3282 117.489 18.5278 118.252 18.5278C119.016 18.5278 119.701 18.3614 120.308 18.0287C120.916 17.696 121.625 17.2054 122.435 16.5566V13.2629L118.907 13.6123C118.579 13.6455 118.159 13.7121 117.645 13.8119C116.336 14.1446 115.682 14.918 115.682 16.1324C115.682 16.9308 115.916 17.5296 116.383 17.9289ZM122.925 19.6756L122.551 17.904C120.838 19.3012 119.273 20 117.855 20C116.594 20 115.636 19.6257 114.981 18.8772C114.327 18.2284 114 17.3384 114 16.2072C114 14.9264 114.421 13.9782 115.262 13.3627C116.118 12.7473 117.178 12.3896 118.439 12.2898L122.435 11.9904V11.0173C122.435 9.33716 121.344 8.49711 119.164 8.49711C117.746 8.49711 116.445 8.74664 115.262 9.24567L114.841 7.84836C116.243 7.28279 117.723 7 119.28 7C120.667 7 121.796 7.30773 122.668 7.92321C123.556 8.5387 124 9.54509 124 10.9424V19.6756H122.925Z" fill="white"/>
<path d="M133 18.5279V20C132.008 20 131.102 19.823 130.283 19.4691C129.48 19.099 128.937 18.4957 128.654 17.6591C128.465 17.2086 128.37 16.6857 128.37 16.0905V9.18853H127V7.74056H128.37V4.69984L129.976 4V7.74056H132.787V8.82653L132.551 9.18853H129.976V16.0422C129.961 16.7662 130.181 17.3615 130.638 17.828C131.095 18.2946 131.882 18.5279 133 18.5279Z" fill="white"/>
<path d="M0 0H15.9684C19.8518 0 23 3.10357 23 6.93202V20.0805C23 22.7975 20.7658 25 18.0099 25H7.93885C3.55434 25 0 21.496 0 17.1735V0Z" fill="white"/>
<path d="M2.00003 1.54235C2.43089 1.54235 2.84271 1.54235 3.25281 1.54235C3.92135 1.53417 4.58907 1.59157 5.24618 1.71373C5.84856 1.81974 6.41713 2.06517 6.9056 2.43002C7.2277 2.68228 7.48774 3.0037 7.66608 3.37002C7.84444 3.73633 7.93645 4.13798 7.93517 4.54466C7.95971 5.02011 7.89518 5.49594 7.74482 5.94813C7.50618 6.57816 7.09444 7.12957 6.55607 7.54009C5.86013 8.09361 5.07033 8.52009 4.22355 8.79962C4.09895 8.84075 4.07992 8.91787 4.1699 9.0224C4.80668 9.74384 5.43999 10.4653 6.07329 11.185C7.15304 12.4017 8.23452 13.6167 9.31773 14.8299C9.97007 15.56 10.6311 16.2814 11.2869 17.0063C11.3088 17.0355 11.3285 17.0665 11.3457 17.0988L12.9653 15.7776C12.9238 15.7296 12.8892 15.685 12.8494 15.6438C11.7489 14.5026 10.6363 13.3716 9.55133 12.2166C8.67057 11.2776 7.82096 10.3076 6.95579 9.35485C6.87445 9.26573 6.91425 9.22975 6.99557 9.18348C7.82996 8.65239 8.57452 7.99426 9.20179 7.23336C9.765 6.5422 10.0819 5.68617 10.1033 4.79827C10.1604 3.75467 9.94239 2.78818 9.28831 1.94507C8.74909 1.24411 8.01471 0.714579 7.17554 0.421638C6.72217 0.260556 6.25672 0.133748 5.79125 0.0103651H5.96428C9.52017 0.0103651 13.0743 -0.0187667 16.6355 0.020647C19.2743 0.0480652 21.2001 1.28874 22.3924 3.61929C22.8002 4.43623 23.0082 5.33673 22.9997 6.24802C22.9997 6.69013 22.9997 7.13225 22.9997 7.57266V7.68919H21.8663C21.1396 7.68919 20.4111 7.64806 19.686 7.6772C18.6333 7.69845 17.593 7.90683 16.6147 8.29239C15.5865 8.69605 14.7249 9.42983 14.1679 10.3762C13.4619 11.5911 13.4291 13.6972 14.9778 15.0493C15.6076 15.5735 16.306 16.011 17.0541 16.3499C17.7739 16.6927 18.5094 17.0148 19.231 17.3609C19.7884 17.6071 20.3015 17.9418 20.7502 18.3514C21.6154 19.1979 21.6984 20.3187 20.9596 21.2801C20.6822 21.6053 20.3452 21.8757 19.9663 22.0769C18.989 22.68 17.8597 22.9984 16.7081 22.9954C13.8825 22.9954 11.055 23.0057 8.22933 22.9954C6.96917 22.9763 5.74355 22.5847 4.70975 21.8708C3.67595 21.157 2.88118 20.1534 2.42742 18.989C2.14262 18.2527 1.99772 17.4707 2.00003 16.6824C2.00003 11.698 2.00003 6.71298 2.00003 1.72743V1.54235Z" fill="#12B878"/>
<path d="M23 9.11618V17C22.9028 16.8954 22.8265 16.8132 22.7485 16.7274C22.3767 16.3222 21.9444 15.9755 21.4666 15.6992C20.5979 15.206 19.7047 14.7564 18.7903 14.352C18.27 14.107 17.7756 13.8242 17.283 13.5328C16.8927 13.3083 16.5598 12.9981 16.3099 12.6262C16.0737 12.2548 15.9677 11.8169 16.0086 11.3802C16.0492 10.9434 16.2344 10.532 16.5355 10.2096C17.0558 9.6389 17.7375 9.36982 18.4746 9.19844C19.329 9.01773 20.2053 8.96001 21.0763 9.02705C21.51 9.04934 21.9437 9.06476 22.3755 9.08704C22.5767 9.0819 22.7797 9.10075 23 9.11618Z" fill="#EA6862"/>
<path d="M17 16C22.4716 16.5272 23.8456 21.2289 19.1452 23" stroke="white" stroke-width="1.23778"/>
</g>
<defs>
<clipPath id="clip0_156_5843">
<rect width="133" height="25" fill="white"/>
</clipPath>
</defs>
</svg>
