<svg width="250" height="55" viewBox="0 0 250 55" fill="none" xmlns="http://www.w3.org/2000/svg">
<mask id="mask0_156_5618" style="mask-type:luminance" maskUnits="userSpaceOnUse" x="0" y="0" width="250" height="55">
<path d="M250 0H0V55H250V0Z" fill="white"/>
</mask>
<g mask="url(#mask0_156_5618)">
<path d="M21.5234 12C16.4716 12 13.5424 13.9683 12.1414 15.2804C11.9716 14.114 11.0801 12.6196 7.59902 12.6196H0V19.399H3.09904C3.60848 19.399 3.77828 19.5449 3.77828 19.9823V51H12.7782V39.4093V38.5345C14.1792 39.628 16.8537 41.1589 21.0565 41.1589C29.8442 41.1589 35.9998 35.1813 35.9998 26.5795C36.0423 17.8682 30.1838 12 21.5234 12ZM19.698 34.4159C14.8584 34.4159 12.6509 30.443 12.6509 26.7252C12.6509 20.8934 16.3443 18.8158 19.8254 18.8158C24.0706 18.8158 26.9574 21.9504 26.9574 26.6524C26.915 32.0468 23.264 34.4159 19.698 34.4159Z" fill="#017737"/>
<path d="M46.3581 33.6702V17.1414C46.3581 14.3561 44.844 13 41.7749 13H34V19.8167H36.9872C37.4783 19.8167 37.6419 19.9634 37.6419 20.4032V36.8586C37.6419 39.6806 39.1151 41 42.2251 41H50V34.2199H47.0128C46.5627 34.2566 46.3581 34.0733 46.3581 33.6702Z" fill="#017737"/>
<path d="M70.4729 12C65.4329 12 62.5106 13.9683 61.0705 15.2804C60.9012 14.114 60.0118 12.6196 56.5389 12.6196H49V19.399H52.0917C52.6001 19.399 52.7694 19.5449 52.7694 19.9823V51H61.833V39.4093V38.5345C63.2306 39.628 65.9412 41.1589 70.0918 41.1589C78.8588 41.1589 85 35.1813 85 26.5795C85 17.8682 79.1553 12 70.4729 12ZM68.6518 34.4159C63.8235 34.4159 61.6212 30.443 61.6212 26.7252C61.6212 20.8934 65.3059 18.8158 68.7789 18.8158C73.0141 18.8158 75.8941 21.9504 75.8941 26.6524C75.8941 32.0468 72.2518 34.4159 68.6518 34.4159Z" fill="#017737"/>
<path d="M101.499 12C91.7614 12 85 17.9812 85 26.5C85 34.9099 92.3141 41 102.435 41C110.387 41 115.235 36.9762 115.447 36.8312L115.83 36.5412L111.918 30.995L111.322 31.4662C111.28 31.5025 107.708 34.2937 102.988 34.2937C98.4801 34.2937 95.1632 31.9375 94.3552 28.24H115.745L115.787 27.7325C115.787 27.6599 116 26.0287 116 25.2312C116 17.3288 110.174 12 101.499 12ZM94.6955 22.5125C95.6736 19.7937 98.1399 18.235 101.499 18.235C104.221 18.235 106.305 20.0113 106.687 22.5125H94.6955Z" fill="#017737"/>
<path d="M148.311 33.0252V6.11484C148.311 3.34733 146.742 2 143.519 2H135.462V8.77311H138.558C139.067 8.77311 139.236 8.91876 139.236 9.35574V14.2353C137.922 13.2156 135.336 11.8683 130.841 11.8683C122.106 11.8683 116 17.8767 116 26.4342C116 35.1372 121.851 41 130.502 41C135.462 41 138.346 39.0336 139.745 37.6498C139.915 38.8515 140.847 40.3809 144.198 40.3809H152V33.6442H148.99C148.481 33.6078 148.311 33.4257 148.311 33.0252ZM132.24 34.2269C127.957 34.2269 125.201 31.168 125.201 26.3977C125.201 21.7731 128.085 18.6778 132.368 18.6778C137.244 18.6778 139.407 22.5378 139.407 26.3613C139.407 32.1876 135.717 34.2269 132.24 34.2269Z" fill="#017737"/>
<path d="M171.033 12C167.424 12 164.062 13.8425 162.095 16.769V16.1548C162.095 13.6619 160.537 12.3613 157.461 12.3613H150V19.0813H152.993C153.485 19.0813 153.649 19.2258 153.649 19.6594V40H162.341V28.9446C162.341 27.4994 162.546 26.0904 162.955 24.7896C164.267 20.96 167.752 19.6232 170.54 19.6232C171.523 19.6232 172.262 19.7316 172.262 19.7316L173 19.84V12.2167L172.467 12.1446C172.467 12.1084 171.73 12 171.033 12Z" fill="#017737"/>
<path d="M187.182 33.6702V17.1414C187.182 14.3561 185.594 13 182.378 13H175V19.8167H177.359C177.874 19.8167 178.045 19.9634 178.045 20.4032V36.8586C178.045 39.6806 179.59 41 182.85 41H191V34.2199H187.869C187.397 34.2566 187.182 34.0733 187.182 33.6702Z" fill="#017737"/>
<path d="M219.958 13H215.195C212.413 13 210.897 13.8419 210.012 15.8915L204.196 30.0196C203.984 30.532 203.816 31.1177 203.648 31.7033C203.479 31.1542 203.269 30.532 203.057 30.0196L197.241 15.8915C196.356 13.8053 194.923 13 192.058 13H187V19.8078H188.307C189.024 19.8078 189.234 20.0275 189.403 20.3935L198.421 41H208.494L217.513 20.3935C217.682 20.0275 217.893 19.8078 218.609 19.8078H220V13H219.958Z" fill="#017737"/>
<path d="M235.5 12C225.761 12 219 17.9812 219 26.5C219 34.9099 226.314 41 236.435 41C244.387 41 249.235 36.9762 249.448 36.8312L249.83 36.5412L245.918 30.995L245.322 31.4662C245.28 31.5025 241.707 34.2937 237.03 34.2937C232.522 34.2937 229.206 31.9375 228.398 28.24H249.787L249.83 27.7325C249.83 27.6599 250 26.0287 250 25.2312C250 17.3288 244.174 12 235.5 12ZM228.696 22.5125C229.674 19.7937 232.14 18.235 235.5 18.235C238.221 18.235 240.304 20.0113 240.688 22.5125H228.696Z" fill="#017737"/>
<path d="M46 2H39V9H46V2Z" fill="#017737"/>
<path d="M184 2H177V9H184V2Z" fill="#017737"/>
<path d="M248 12.7659H249.455V16H250.545V12.7659H252V12H248V12.7659Z" fill="#017737"/>
</g>
</svg>
