<svg width="208" height="56" viewBox="0 0 208 56" fill="none" xmlns="http://www.w3.org/2000/svg">
<g clip-path="url(#clip0_175_5817)">
<mask id="mask0_175_5817" style="mask-type:luminance" maskUnits="userSpaceOnUse" x="0" y="0" width="208" height="56">
<path d="M208 0H0V56H208V0Z" fill="white"/>
</mask>
<g mask="url(#mask0_175_5817)">
<path d="M125.894 56H11.5382C8.47919 55.9965 5.54641 54.7609 3.38333 52.5645C1.22024 50.368 0.00349009 47.3901 0 44.2838V11.7162C0.00349009 8.60994 1.22024 5.63195 3.38333 3.4355C5.54641 1.23906 8.47919 0.00354391 11.5382 0H125.894C128.953 0.00354391 131.886 1.23906 134.049 3.4355C136.212 5.63195 137.429 8.60994 137.432 11.7162V44.2821C137.429 47.3887 136.212 50.3671 134.049 52.5639C131.886 54.7607 128.953 55.9965 125.894 56ZM73.8646 21.5812V46.068H78.5161V37.7311C79.0477 38.3421 79.7059 38.8259 80.4435 39.148C81.181 39.4701 81.9796 39.6224 82.782 39.594C83.7394 39.6226 84.6892 39.4134 85.549 38.9846C86.4087 38.5558 87.1524 37.9204 87.7154 37.1336C89.0121 35.2128 89.6536 32.9136 89.5417 30.5876V30.3416C89.6709 27.9812 89.044 25.6419 87.755 23.6734C87.1776 22.8861 86.4192 22.2542 85.5461 21.833C84.6729 21.4117 83.7115 21.2138 82.7457 21.2565C81.9043 21.2336 81.069 21.4074 80.3042 21.7643C79.5394 22.1213 78.8656 22.6519 78.3348 23.3152L78.17 21.5829L73.8646 21.5812ZM63.5461 21.2465C62.0564 21.2227 60.5891 21.6159 59.3049 22.3829C58.0566 23.1541 57.0579 24.2793 56.4319 25.6199C55.7388 27.1084 55.392 28.7388 55.4182 30.3851V30.8437C55.3672 32.0149 55.5545 33.1842 55.9686 34.2785C56.3827 35.3728 57.0145 36.3687 57.8248 37.2039C58.6554 38.004 59.6353 38.6274 60.7067 39.0373C61.7782 39.4472 62.9195 39.6353 64.0636 39.5906C65.4266 39.6079 66.7768 39.3223 68.0196 38.7538C69.1508 38.2397 70.1283 37.4314 70.8531 36.4105L68.5702 33.8096C68.0764 34.4561 67.4372 34.9731 66.7062 35.3174C65.9752 35.6616 65.1736 35.8229 64.3686 35.7879C63.3143 35.8242 62.2863 35.4493 61.4956 34.7402C60.7255 34.0121 60.2422 33.0247 60.1357 31.9617H71.224V30.0319C71.369 27.6837 70.6361 25.3663 69.1718 23.5428C68.4514 22.7731 67.5758 22.1703 66.6049 21.7757C65.6339 21.3811 64.5906 21.204 63.5461 21.2565V21.2465ZM45.7277 21.2465C44.238 21.2223 42.7706 21.6156 41.4866 22.3829C40.2375 23.1531 39.2386 24.2787 38.6136 25.6199C37.9192 27.1081 37.5718 28.7386 37.5982 30.3851V30.8437C37.5472 32.0149 37.7345 33.1842 38.1486 34.2785C38.5627 35.3728 39.1945 36.3687 40.0048 37.2039C40.8356 38.0038 41.8155 38.627 42.8869 39.0369C43.9583 39.4467 45.0996 39.635 46.2436 39.5906C47.6066 39.6079 48.9568 39.3222 50.1996 38.7538C51.3312 38.2402 52.3088 37.4318 53.0331 36.4105L50.7485 33.8096C50.2547 34.4561 49.6156 34.9731 48.8846 35.3174C48.1536 35.6616 47.352 35.8229 46.5469 35.7879C45.4926 35.824 44.4647 35.4491 43.6739 34.7402C42.9045 34.0116 42.4214 33.0244 42.314 31.9617H53.4056V30.0319C53.5506 27.6837 52.8178 25.3663 51.3534 23.5428C50.6335 22.7724 49.758 22.1691 48.787 21.7745C47.816 21.3798 46.7723 21.2031 45.7277 21.2565V21.2465ZM108.666 25.0961C109.049 25.0574 109.435 25.0966 109.803 25.2116C110.171 25.3265 110.513 25.5149 110.808 25.7656C111.288 26.3812 111.519 27.1593 111.453 27.9414V39.2526H116.104V27.8427C116.208 26.0855 115.72 24.3447 114.72 22.9068C114.2 22.3335 113.56 21.8872 112.846 21.6014C112.132 21.3156 111.364 21.1976 110.599 21.2565C109.64 21.2246 108.686 21.4227 107.816 21.8347C106.946 22.2468 106.184 22.8612 105.591 23.6282L105.448 21.5846H101.067V39.2676H105.718V26.7966C106.005 26.2625 106.433 25.8202 106.953 25.5197C107.474 25.2193 108.067 25.0725 108.666 25.0961ZM92.6653 21.5812V39.2676H97.3334V21.5812H92.6653ZM25.3644 29.7223L31.3824 39.2626H37.1284L28.5654 26.04L36.8894 15.4687H30.9555L24.977 23.2985L22.8523 26.2576V15.4687H18.0244V39.2676H22.8523V32.4706L25.3627 29.7256L25.3644 29.7223ZM94.9993 14.5615C94.6526 14.5428 94.3057 14.5938 93.9784 14.7116C93.6511 14.8293 93.35 15.0115 93.0922 15.2478C92.6414 15.7193 92.3906 16.3515 92.3937 17.0086C92.3968 17.6658 92.6535 18.2955 93.1087 18.7626C93.6419 19.2069 94.3104 19.4497 95.0002 19.4497C95.6899 19.4497 96.3584 19.2069 96.8916 18.7626C97.3474 18.2948 97.603 17.6633 97.603 17.0052C97.603 16.3471 97.3474 15.7156 96.8916 15.2478C96.3747 14.7744 95.6946 14.5278 94.9993 14.5615ZM151.042 39.5873C149.409 39.6163 147.804 39.1558 146.427 38.2634C145.061 37.3413 143.986 36.0391 143.33 34.5125C142.575 32.7638 142.196 30.8716 142.219 28.9624V25.881C142.184 23.9486 142.558 22.0311 143.313 20.2573C143.976 18.7083 145.074 17.392 146.47 16.4729C147.884 15.5714 149.526 15.1063 151.196 15.134C153.367 15.0166 155.498 15.7581 157.143 17.2027C158.66 18.7253 159.563 20.7675 159.676 22.9302H157.682C157.573 21.2209 156.867 19.6073 155.689 18.381C154.436 17.3117 152.828 16.7692 151.194 16.8646C150.219 16.832 149.251 17.0341 148.368 17.4545C147.485 17.8749 146.712 18.5015 146.114 19.2832C144.759 21.2291 144.095 23.5839 144.228 25.9631V28.872C144.112 31.209 144.761 33.5194 146.073 35.4431C146.646 36.23 147.399 36.8641 148.266 37.2908C149.134 37.7176 150.09 37.9244 151.054 37.8935C152.748 38.0199 154.425 37.4806 155.738 36.3871C156.889 35.1513 157.578 33.5464 157.687 31.8496H159.683C159.558 34.0413 158.61 36.101 157.034 37.6039C155.349 38.9948 153.218 39.7042 151.049 39.5957L151.042 39.5873ZM187.389 39.2626H185.411V15.4687H188.036L196.679 36.4725L205.354 15.4687H207.992V39.2659H206.014V28.9038L206.179 18.2789L197.454 39.2676H195.924L187.231 18.3626L187.396 28.8402V39.2693L187.389 39.2626ZM166.431 39.2626H164.441V15.4687H172.055C174.163 15.3431 176.245 15.9971 177.915 17.3098C178.623 17.9567 179.18 18.7562 179.545 19.6499C179.91 20.5437 180.073 21.5089 180.023 22.475C180.043 23.9329 179.578 25.3552 178.704 26.512C177.81 27.684 176.568 28.5321 175.162 28.9306L181.022 39.0484V39.2592H178.914L173.239 29.3624H166.429V39.2676L166.431 39.2626ZM166.431 17.1776V27.6401H172.5C173.97 27.7086 175.408 27.1922 176.509 26.2007C177.007 25.7241 177.4 25.1452 177.661 24.5025C177.922 23.8598 178.045 23.1681 178.022 22.4733C178.061 21.7439 177.94 21.0148 177.667 20.339C177.394 19.6633 176.975 19.0578 176.443 18.5668C175.182 17.5726 173.609 17.0782 172.015 17.1759L166.431 17.1776ZM81.5573 35.7862C80.9359 35.8379 80.3136 35.6986 79.7712 35.3864C79.2289 35.0741 78.7915 34.6035 78.5161 34.0355V26.7966C78.7911 26.2386 79.2255 25.7778 79.7625 25.4744C80.2994 25.171 80.914 25.0392 81.526 25.0961C82.0223 25.0754 82.5151 25.1884 82.9545 25.4236C83.394 25.6587 83.7643 26.0077 84.0281 26.4351C84.6656 27.596 84.9641 28.9174 84.8885 30.2445C84.8885 33.9217 83.7693 35.7862 81.5573 35.7862ZM66.6532 28.7415H60.1819C60.2683 27.7441 60.6531 26.7974 61.2846 26.0283C61.57 25.7156 61.9184 25.469 62.3061 25.3053C62.6938 25.1415 63.1116 25.0644 63.5312 25.0793C63.9499 25.0531 64.3694 25.1159 64.7628 25.2637C65.1562 25.4116 65.5148 25.6412 65.8158 25.938C66.3868 26.6105 66.686 27.4775 66.6532 28.3649V28.7398V28.7415ZM48.8332 28.7415H42.3619C42.4483 27.7441 42.8331 26.7974 43.4646 26.0283C43.75 25.7156 44.0984 25.469 44.4861 25.3053C44.8737 25.1415 45.2916 25.0644 45.7112 25.0793C46.1302 25.0533 46.5498 25.1161 46.9435 25.264C47.3371 25.4118 47.6961 25.6414 47.9975 25.938C48.5685 26.6105 48.8676 27.4775 48.8348 28.3649V28.7398L48.8332 28.7415Z" fill="#00CC99"/>
</g>
</g>
<defs>
<clipPath id="clip0_175_5817">
<rect width="208" height="56" fill="white"/>
</clipPath>
</defs>
</svg>
