<svg width="208" height="60" viewBox="0 0 208 60" fill="none" xmlns="http://www.w3.org/2000/svg">
<g clip-path="url(#clip0_175_5892)">
<mask id="mask0_175_5892" style="mask-type:luminance" maskUnits="userSpaceOnUse" x="0" y="0" width="208" height="60">
<path d="M208 0H0V60H208V0Z" fill="white"/>
</mask>
<g mask="url(#mask0_175_5892)">
<mask id="mask1_175_5892" style="mask-type:luminance" maskUnits="userSpaceOnUse" x="2" y="12" width="213" height="36">
<path d="M215 12H2V47.7773H215V12Z" fill="white"/>
</mask>
<g mask="url(#mask1_175_5892)">
<path d="M131.352 29.2232C131.352 24.3974 131.352 19.6548 131.352 14.829C131.352 13.2482 131.269 13.2482 132.933 13.3314C138.091 13.3314 143.25 13.2482 148.325 13.4146C150.322 13.4978 152.319 13.7474 154.149 14.829C158.393 17.4083 158.642 24.4806 155.481 27.2263C155.148 27.4759 154.898 27.8087 154.565 28.0583C153.983 28.4743 154.149 28.8072 154.732 29.14C158.393 31.1368 159.89 35.713 158.31 40.0396C157.394 42.6189 155.397 44.2829 152.735 45.0318C151.57 45.3646 150.322 45.4478 149.074 45.4478C143.832 45.531 138.507 45.4478 133.265 45.4478C132.933 45.4478 132.6 45.4478 132.267 45.4478C131.601 45.531 131.269 45.2814 131.269 44.5325C131.352 43.5341 131.269 42.6189 131.269 41.6204C131.352 37.4603 131.352 33.3001 131.352 29.2232ZM143.583 39.5404C144.914 39.5404 146.162 39.6236 147.493 39.5404C149.656 39.4572 151.071 37.7931 151.154 35.713C151.237 33.6329 149.906 31.9689 147.16 31.8025C144.664 31.6361 142.085 31.8025 139.589 31.7193C139.006 31.7193 138.674 31.8857 138.757 32.5513C138.757 34.6314 138.757 36.6283 138.757 38.7083C138.757 39.4572 139.09 39.6236 139.755 39.6236C141.003 39.5404 142.335 39.5404 143.583 39.5404ZM143.083 25.9783C144.331 25.9783 145.579 26.0615 146.744 25.9783C149.407 25.8118 150.988 23.399 149.823 21.0693C149.157 19.6548 147.909 19.0724 146.495 19.0724C144.165 18.9892 141.835 19.0724 139.506 19.0724C138.757 19.0724 138.59 19.4884 138.59 20.0708C138.59 21.6517 138.59 23.2325 138.59 24.8134C138.59 25.9783 138.59 25.9783 139.922 25.9783C141.087 25.9783 142.085 25.9783 143.083 25.9783Z" fill="#373C42"/>
<path d="M49.6462 30.0549C49.563 25.0628 50.9775 20.9858 54.472 17.6577C56.8849 15.4112 59.8802 14.1631 63.1251 13.5807C66.6197 12.9983 69.8646 13.2479 73.1095 14.496C78.4345 16.4096 81.7626 20.237 82.9275 25.8116C83.9259 30.5542 83.4267 35.2135 80.5978 39.2905C78.1017 42.8682 74.7736 45.0315 70.447 45.8635C66.9525 46.5292 63.5411 46.446 60.213 45.3643C53.8896 43.2842 49.6462 37.5432 49.563 30.887C49.6462 30.471 49.6462 30.1381 49.6462 30.0549ZM75.6056 29.7221C75.6888 28.1413 75.4392 26.5604 74.7736 25.0628C73.3591 21.7346 69.8646 19.3217 66.4532 19.4881C63.4579 19.6546 60.9618 20.9026 59.2146 23.3987C57.8001 25.4788 57.4673 27.7253 57.4673 30.2214C57.4673 33.2999 58.5489 35.796 60.7954 37.876C63.7907 40.7049 69.1157 40.7049 72.1943 38.0424C74.6071 35.796 75.772 33.0503 75.6056 29.7221Z" fill="#373C42"/>
<path d="M122.283 36.2956C119.953 36.2956 117.623 36.2956 115.294 36.2956C115.044 36.2956 114.545 36.462 114.462 36.6284C114.378 36.878 114.545 37.294 114.711 37.5436C115.959 39.0413 117.623 39.7901 119.537 39.9565C121.451 40.1229 123.531 40.2061 125.278 39.0413C125.777 38.7085 126.027 39.0413 126.276 39.2909C127.108 40.1229 127.94 40.955 128.772 41.787C129.272 42.2862 129.272 42.5358 128.689 43.0351C126.859 44.6159 124.695 45.4479 122.449 45.6976C119.953 45.9472 117.457 45.864 114.961 45.0319C110.634 43.6175 107.223 39.6237 106.973 34.4651C106.89 31.2202 107.556 28.2249 109.802 25.7288C111.633 23.7319 113.796 22.5671 116.458 22.1511C118.622 21.8183 120.619 21.9847 122.699 22.5671C126.942 23.8983 129.355 26.8936 130.104 31.137C130.353 32.4683 130.353 33.8827 130.437 35.214C130.52 35.9628 130.187 36.2124 129.438 36.2124C127.025 36.2956 124.612 36.2956 122.283 36.2956ZM118.538 31.3866C119.87 31.3866 121.284 31.3866 122.615 31.3866C123.447 31.3866 123.531 30.8874 123.364 30.305C123.198 29.8058 122.948 29.3065 122.615 28.8905C121.284 27.2265 118.206 27.2265 116.542 28.0585C115.626 28.4745 114.794 29.1401 114.378 30.1386C113.879 31.137 113.962 31.3034 115.044 31.3866C116.209 31.4698 117.374 31.3866 118.538 31.3866Z" fill="#373C42"/>
<path d="M159.225 33.2171C159.142 29.3897 161.055 26.0616 164.799 23.8151C166.463 22.8167 168.294 22.4839 170.208 22.1511C173.12 21.735 175.949 22.1511 178.445 23.5655C183.187 26.1448 185.184 30.9706 184.269 36.2124C183.187 42.5358 177.529 45.7807 172.288 45.7807C168.71 45.7807 165.465 44.9487 162.803 42.4526C160.223 40.1229 159.058 37.2108 159.225 33.2171ZM177.03 33.7995C177.03 33.5499 177.03 33.1339 177.03 32.6347C176.864 30.4714 175.533 28.7241 173.536 28.0585C171.372 27.3097 169.542 27.7257 167.961 29.3897C166.214 31.3034 165.964 34.3819 166.963 37.0444C168.377 40.5389 173.536 41.1214 175.782 38.2925C176.781 36.9612 177.113 35.63 177.03 33.7995Z" fill="#373C42"/>
<path d="M83.9258 33.9656C83.9258 30.5543 83.9258 27.143 83.9258 23.6484C83.9258 22.8996 84.0922 22.5668 84.9243 22.5668C86.5051 22.65 88.086 22.5668 89.6668 22.5668C90.0829 22.5668 90.4989 22.5668 90.4989 23.1492C90.4989 23.898 90.8317 23.9812 91.4141 23.5652C93.1614 22.234 95.2415 21.9844 97.2383 21.9844C101.898 21.9844 105.642 24.8965 106.224 29.7223C106.807 34.6312 106.058 39.5402 106.308 44.4492C106.391 45.198 105.892 45.3645 105.309 45.3645C103.812 45.3645 102.314 45.2812 100.816 45.3645C99.9008 45.3645 99.6512 45.1148 99.6512 44.1996C99.7344 40.5387 99.6512 36.9609 99.6512 33.3C99.6512 32.8008 99.6512 32.3016 99.6512 31.8855C99.4848 29.6391 97.8207 27.8086 95.9071 27.6422C93.2446 27.3926 91.5805 28.4742 90.9149 31.1367C90.7485 31.8855 90.6653 32.6344 90.6653 33.3832C90.6653 36.7113 90.6653 40.1227 90.6653 43.4508C90.6653 43.8668 90.6653 44.2828 90.6653 44.6988C90.6653 45.198 90.4157 45.4477 89.9164 45.4477C88.4188 45.4477 86.9211 45.4477 85.4235 45.4477C84.009 45.4477 84.009 45.4477 84.009 44.1164C83.9258 40.7051 83.9258 37.2937 83.9258 33.9656Z" fill="#373C42"/>
<path d="M203.156 45.3644C202.241 45.3644 201.325 45.2812 200.493 45.3644C199.495 45.4476 198.996 45.0315 198.497 44.2827C197.415 42.5354 196.416 40.7882 195.252 39.0409C194.669 38.1257 194.503 38.1257 193.92 39.1241C192.922 40.7882 191.84 42.5354 190.925 44.1995C190.426 45.0315 189.843 45.4476 188.762 45.3644C186.848 45.2812 184.934 45.3644 183.021 45.3644C182.438 45.3644 182.272 45.1979 182.688 44.6987C184.518 42.1194 186.432 39.4569 188.263 36.8776C188.679 36.2952 189.095 35.796 189.427 35.2136C190.509 33.6327 190.509 33.6327 189.344 32.0519C187.514 29.4726 185.6 26.8101 183.77 24.2308C183.603 23.9812 183.437 23.6483 183.27 23.3987C183.021 22.9827 183.27 22.7331 183.686 22.7331C185.85 22.7331 187.93 22.7331 190.093 22.7331C190.675 22.7331 190.925 22.9827 191.175 23.4819C192.09 25.146 193.088 26.8101 194.087 28.3909C194.586 29.2229 194.836 29.2229 195.335 28.3909C196.333 26.8101 197.249 25.3124 198.247 23.6483C198.58 22.9827 198.996 22.6499 199.828 22.6499C201.741 22.7331 203.655 22.6499 205.569 22.6499C206.484 22.6499 206.567 22.8995 206.068 23.5651C204.487 25.8948 202.906 28.1413 201.242 30.471C200.743 31.1366 200.327 31.8022 199.828 32.4679C199.079 33.3831 199.245 34.1319 199.828 34.964C201.991 37.8761 204.071 40.8714 206.151 43.7835C206.401 44.1163 206.567 44.4491 206.817 44.7819C207.15 45.198 206.983 45.3644 206.484 45.3644C205.319 45.3644 204.238 45.3644 203.156 45.3644Z" fill="#373C42"/>
<path d="M2 45.2812C2 46.6957 3.08164 47.7773 4.49609 47.7773H35.2812C36.6957 47.7773 37.7773 46.6957 37.7773 45.2812V14.4961C37.7773 13.0816 36.6957 12 35.2812 12H4.49609C3.08164 12 2 13.0816 2 14.4961V45.2812Z" fill="#019EF8"/>
<path d="M15.949 37.2343L8.79756 28.0395C7.48986 26.078 9.81922 24.566 11.4538 26.2006L18.401 32.9434C21.7383 29.1293 28.5765 21.3376 29.2304 20.6837C29.7816 20.1325 30.7292 19.3559 31.6823 20.0707C32.4996 20.6837 32.1591 21.7054 31.8866 22.114L22.0789 36.0083C19.2183 40.2992 16.8344 38.256 15.949 37.2343Z" fill="white"/>
</g>
</g>
</g>
<defs>
<clipPath id="clip0_175_5892">
<rect width="208" height="60" fill="white"/>
</clipPath>
</defs>
</svg>
