<svg width="205" height="60" viewBox="0 0 205 60" fill="none" xmlns="http://www.w3.org/2000/svg">
<path d="M23.7707 10.4365V26.5085H9.0053V10.4365H2V48.8026H9.0072V33.2521H23.7688V48.8026H30.7779V10.4365H23.7707ZM53.2066 36.402C53.2066 37.9398 52.5957 39.4146 51.5083 40.502C50.421 41.5894 48.9461 42.2002 47.4084 42.2002C45.8706 42.2002 44.3958 41.5894 43.3084 40.502C42.221 39.4146 41.6101 37.9398 41.6101 36.402V19.9678H34.9632V36.402C34.9632 39.6994 36.2731 42.8617 38.6047 45.1933C40.9363 47.5249 44.0986 48.8348 47.396 48.8348C50.6934 48.8348 53.8557 47.5249 56.1873 45.1933C58.519 42.8617 59.8288 39.6994 59.8288 36.402V19.9678H53.2066V36.402ZM102.458 21.6613C102.458 18.2914 104.686 17.2237 107.127 17.2237C109.095 17.2237 111.693 18.7219 113.395 20.5386L117.747 15.407C115.574 12.4675 111.166 10.4365 107.557 10.4365C100.345 10.4365 95.1303 14.6598 95.1303 21.6613C95.1303 34.6516 111.007 30.5288 111.007 37.7996C111.007 40.0412 108.83 42.021 106.338 42.021C102.407 42.021 101.132 40.1 99.3271 38.067L94.495 43.0906C97.5862 46.8834 101.398 48.8101 105.963 48.8101C112.814 48.8101 118.325 44.5357 118.325 37.8527C118.325 23.4325 102.447 27.9137 102.447 21.6613M200.68 42.6734C196.753 42.6734 195.636 40.9742 195.636 38.3724V26.8517H201.742V21.0146H195.636V13.3133L188.896 16.3381V39.8041C188.896 45.8062 193.038 48.831 198.716 48.831C199.607 48.8462 200.498 48.7741 201.374 48.6186L203.018 42.5653C202.277 42.6165 201.425 42.6677 200.68 42.6677M78.5084 20.1593C75.2162 20.1593 72.9178 21.1151 70.6952 23.2941V10.6659H64.0388V34.0732C64.0388 42.8346 70.3728 48.8386 77.4919 48.8386C85.3885 48.8386 92.335 42.7284 92.335 34.5018C92.335 26.3776 85.9423 20.165 78.5084 20.165M78.4667 42.1386C77.4746 42.1386 76.4923 41.9432 75.5757 41.5636C74.6592 41.1839 73.8264 40.6275 73.125 39.926C72.4235 39.2245 71.867 38.3917 71.4874 37.4752C71.1077 36.5587 70.9123 35.5763 70.9123 34.5843C70.9123 33.5923 71.1077 32.6099 71.4874 31.6934C71.867 30.7769 72.4235 29.9441 73.125 29.2426C73.8264 28.5411 74.6592 27.9847 75.5757 27.605C76.4923 27.2254 77.4746 27.03 78.4667 27.03C80.4702 27.03 82.3917 27.8259 83.8084 29.2426C85.2251 30.6593 86.021 32.5808 86.021 34.5843C86.021 36.5878 85.2251 38.5093 83.8084 39.926C82.3917 41.3427 80.4702 42.1386 78.4667 42.1386ZM150.799 34.1529C150.799 25.9111 143.868 19.8161 135.956 19.8161C128.839 19.8161 122.503 25.8182 122.503 34.5815V58.002H129.159V45.3568C131.378 47.532 133.68 48.4916 136.969 48.4916C144.403 48.4916 150.799 42.2789 150.799 34.1529ZM144.496 34.0694C144.496 36.073 143.7 37.9944 142.283 39.4111C140.866 40.8278 138.945 41.6237 136.941 41.6237C134.938 41.6237 133.016 40.8278 131.599 39.4111C130.183 37.9944 129.387 36.073 129.387 34.0694C129.387 32.0659 130.183 30.1444 131.599 28.7277C133.016 27.311 134.938 26.5151 136.941 26.5151C138.945 26.5151 140.866 27.311 142.283 28.7277C143.7 30.1444 144.496 32.0659 144.496 34.0694Z" fill="#33475B"/>
<path d="M172.308 19.4937V12.8051C173.192 12.392 173.94 11.7364 174.466 10.9145C174.992 10.0926 175.273 9.13834 175.278 8.1627V8.00909C175.278 5.16449 172.972 2.85847 170.127 2.85847H169.974C168.608 2.85847 167.298 3.40112 166.332 4.36705C165.366 5.33298 164.823 6.64306 164.823 8.00909V8.1627C164.828 9.13834 165.109 10.0926 165.635 10.9145C166.161 11.7364 166.909 12.392 167.793 12.8051V19.4937C165.252 19.8827 162.86 20.9359 160.858 22.5469L142.514 8.25942C142.645 7.78721 142.713 7.30174 142.72 6.81436C142.723 5.66648 142.384 4.54372 141.749 3.58809C141.113 2.63247 140.208 1.88691 139.148 1.44573C138.088 1.00455 136.921 0.887563 135.795 1.10957C134.669 1.33158 133.634 1.88261 132.821 2.69296C132.008 3.5033 131.453 4.53657 131.228 5.66204C131.002 6.78752 131.115 7.95465 131.553 9.0158C131.991 10.077 132.733 10.9844 133.687 11.6235C134.64 12.2626 135.762 12.6045 136.91 12.606C137.914 12.6012 138.9 12.3331 139.768 11.8284L157.831 25.8846C156.208 28.336 155.362 31.2194 155.402 34.1589C155.442 37.0985 156.366 39.9578 158.055 42.3643L152.561 47.8601C152.117 47.718 151.654 47.6426 151.188 47.6363C150.246 47.637 149.325 47.9171 148.542 48.441C147.759 48.965 147.148 49.7093 146.788 50.5799C146.428 51.4506 146.334 52.4085 146.518 53.3326C146.702 54.2567 147.156 55.1055 147.822 55.7718C148.488 56.438 149.337 56.8918 150.261 57.0758C151.185 57.2598 152.143 57.1658 153.014 56.8055C153.884 56.4453 154.629 55.8351 155.153 55.0519C155.677 54.2688 155.957 53.348 155.957 52.4057C155.951 51.9395 155.876 51.4768 155.734 51.0327L161.169 45.5957C162.941 46.9602 165.002 47.9009 167.194 48.3457C169.386 48.7906 171.651 48.7278 173.815 48.1621C175.979 47.5965 177.985 46.543 179.679 45.0824C181.373 43.6218 182.71 41.7928 183.588 39.7356C184.466 37.6784 184.861 35.4475 184.744 33.2138C184.627 30.9802 183.999 28.803 182.911 26.8492C181.822 24.8953 180.3 23.2166 178.463 21.9417C176.625 20.6667 174.52 19.8293 172.308 19.4937ZM170.055 41.4919C169.051 41.5196 168.051 41.3456 167.115 40.9803C166.179 40.615 165.325 40.0658 164.605 39.3651C163.885 38.6644 163.312 37.8264 162.921 36.9007C162.531 35.9751 162.329 34.9804 162.329 33.9756C162.329 32.9707 162.531 31.9761 162.921 31.0504C163.312 30.1247 163.885 29.2867 164.605 28.586C165.325 27.8853 166.179 27.3361 167.115 26.9708C168.051 26.6055 169.051 26.4315 170.055 26.4592C172.002 26.5273 173.846 27.3484 175.2 28.7494C176.553 30.1504 177.31 32.022 177.311 33.97C177.312 35.918 176.557 37.7904 175.205 39.1927C173.853 40.5951 172.01 41.418 170.063 41.4881" fill="#FF7A59"/>
</svg>
