<svg width="62" height="62" viewBox="0 0 62 62" fill="none" xmlns="http://www.w3.org/2000/svg">
<path d="M61.5751 39.6122L56.3051 36.5655C57.1471 32.8997 57.1471 29.0907 56.3051 25.4248L61.5751 22.3781C61.6323 22.3469 61.6827 22.3045 61.7231 22.2534C61.7635 22.2022 61.7932 22.1435 61.8104 22.0806C61.8276 22.0178 61.8319 21.9521 61.8231 21.8875C61.8143 21.823 61.7926 21.7608 61.7592 21.7048C53.9656 8.23438 54.5614 9.12563 54.2756 9.04813C53.9898 8.97062 54.2756 8.87859 48.6278 12.1433C45.86 9.59911 42.5681 7.69274 38.9839 6.55844V0.484375C38.9839 0.355911 38.9328 0.232708 38.842 0.14187C38.7512 0.0510322 38.628 0 38.4995 0L24.1329 0C24.0045 0 23.8813 0.0510322 23.7904 0.14187C23.6996 0.232708 23.6486 0.355911 23.6486 0.484375V6.55844C20.0609 7.69145 16.7655 9.59789 13.995 12.1433L8.72012 9.09656C8.66444 9.063 8.60257 9.04098 8.5382 9.03184C8.47383 9.02269 8.40828 9.02659 8.34545 9.04332C8.28262 9.06004 8.22381 9.08924 8.1725 9.12918C8.1212 9.16912 8.07846 9.21898 8.04684 9.27578C0.253244 22.7656 0.737619 21.7969 0.795744 22.0875C0.853869 22.3781 0.645588 22.1698 6.30309 25.4345C5.45633 29.0998 5.45633 32.9099 6.30309 36.5752C0.616526 39.8592 0.892619 39.6267 0.795744 39.9125C0.698869 40.1983 0.209651 39.152 8.06137 52.7242C8.09299 52.781 8.13573 52.8309 8.18703 52.8708C8.23834 52.9108 8.29716 52.94 8.35998 52.9567C8.42281 52.9734 8.48836 52.9773 8.55273 52.9682C8.6171 52.959 8.67897 52.937 8.73465 52.9034L14.0095 49.8567C16.7773 52.4009 20.0692 54.3073 23.6534 55.4416V61.5156C23.6534 61.6441 23.7044 61.7673 23.7953 61.8581C23.8861 61.949 24.0093 62 24.1378 62H38.4898C38.6183 62 38.7415 61.949 38.8323 61.8581C38.9231 61.7673 38.9742 61.6441 38.9742 61.5156V55.4416C42.5584 54.3073 45.8503 52.4009 48.6181 49.8567C54.324 53.1505 53.985 53.0294 54.2659 52.9519C54.5468 52.8744 53.9123 53.8577 61.7495 40.2855C61.7833 40.2301 61.8055 40.1685 61.815 40.1043C61.8245 40.0401 61.8211 39.9747 61.8048 39.9119C61.7885 39.8491 61.7598 39.7902 61.7204 39.7388C61.6809 39.6873 61.6315 39.6442 61.5751 39.6122ZM53.9656 51.7991L48.8022 48.8202C48.7106 48.7653 48.6036 48.7423 48.4976 48.7545C48.3916 48.7668 48.2926 48.8137 48.2161 48.888C45.4167 51.535 42.0382 53.4921 38.3493 54.6036C38.2446 54.6329 38.1527 54.6966 38.0886 54.7845C38.0244 54.8723 37.9917 54.9793 37.9957 55.088V61.0312H24.627V55.0783C24.631 54.9696 24.5983 54.8627 24.5342 54.7748C24.47 54.6869 24.3782 54.6232 24.2734 54.5939C20.5846 53.4824 17.206 51.5253 14.4067 48.8783C14.3301 48.804 14.2311 48.7571 14.1252 48.7448C14.0192 48.7326 13.9121 48.7556 13.8206 48.8105L8.65715 51.7894L1.96793 40.2031L7.13137 37.2194C7.22448 37.1672 7.29775 37.0857 7.33979 36.9876C7.38184 36.8895 7.3903 36.7803 7.36387 36.6769C6.44838 32.9346 6.44838 29.0267 7.36387 25.2844C7.3903 25.181 7.38184 25.0717 7.33979 24.9736C7.29775 24.8755 7.22448 24.7941 7.13137 24.7419L1.96793 21.7969L8.65715 10.2203L13.8206 13.1992C13.9121 13.254 14.0192 13.2771 14.1252 13.2648C14.2311 13.2526 14.3301 13.2057 14.4067 13.1314C17.206 10.4844 20.5846 8.52729 24.2734 7.41578C24.3782 7.38648 24.47 7.32276 24.5342 7.2349C24.5983 7.14703 24.631 7.04012 24.627 6.93141V0.96875H37.9957V6.92172C37.9917 7.03044 38.0244 7.13734 38.0886 7.22521C38.1527 7.31308 38.2446 7.37679 38.3493 7.40609C42.0373 8.51478 45.4157 10.4685 48.2161 13.112C48.2926 13.1863 48.3916 13.2332 48.4976 13.2455C48.6036 13.2577 48.7106 13.2347 48.8022 13.1798L53.9656 10.2009L60.6548 21.7969L55.4914 24.7806C54.76 25.202 55.9467 26.1756 55.9467 31.0194C55.9467 35.8631 54.76 36.8319 55.4914 37.2581L60.6548 40.2031L53.9656 51.7991Z" fill="#913AFF"/>
<path d="M31.6548 17.2922C31.6098 17.2468 31.5562 17.2108 31.4972 17.1862C31.4382 17.1616 31.3748 17.1489 31.3109 17.1489C31.247 17.1489 31.1836 17.1616 31.1246 17.1862C31.0656 17.2108 31.012 17.2468 30.967 17.2922L21.7639 26.287C21.6921 26.3542 21.6424 26.4416 21.6215 26.5376C21.6005 26.6336 21.6093 26.7338 21.6466 26.8247C21.6839 26.9156 21.748 26.9931 21.8304 27.0467C21.9128 27.1003 22.0095 27.1276 22.1078 27.125H26.4672V36.3281C26.4672 36.4566 26.5182 36.5798 26.609 36.6706C26.6999 36.7615 26.8231 36.8125 26.9515 36.8125H35.6703C35.7987 36.8125 35.9219 36.7615 36.0128 36.6706C36.1036 36.5798 36.1547 36.4566 36.1547 36.3281V27.125C40.8434 27.125 40.7901 27.2364 40.9645 26.815C41.1389 26.3936 41.6184 27.0281 31.6548 17.2922ZM35.6703 26.1562C35.5418 26.1562 35.4186 26.2073 35.3278 26.2981C35.2369 26.389 35.1859 26.5122 35.1859 26.6406V35.8438H27.4359V26.6406C27.4359 26.5122 27.3849 26.389 27.294 26.2981C27.2032 26.2073 27.08 26.1562 26.9515 26.1562H23.3187L31.3109 18.3384L39.3031 26.1562H35.6703Z" fill="#FFC703"/>
<path d="M31.3115 13.5625C27.8627 13.5625 24.4914 14.5852 21.6238 16.5012C18.7562 18.4173 16.5212 21.1407 15.2014 24.327C13.8816 27.5132 13.5363 31.0193 14.2091 34.4019C14.8819 37.7844 16.5427 40.8915 18.9814 43.3302C21.42 45.7689 24.5271 47.4296 27.9096 48.1024C31.2922 48.7753 34.7983 48.43 37.9846 47.1101C41.1709 45.7903 43.8942 43.5553 45.8103 40.6878C47.7263 37.8202 48.749 34.4488 48.749 31C48.7413 26.3776 46.9017 21.9468 43.6332 18.6783C40.3647 15.4098 35.9339 13.5702 31.3115 13.5625ZM31.3115 47.4688C28.0543 47.4688 24.8703 46.5029 22.162 44.6933C19.4537 42.8837 17.3429 40.3116 16.0964 37.3023C14.8499 34.293 14.5238 30.9817 15.1592 27.7871C15.7947 24.5925 17.3632 21.658 19.6664 19.3548C21.9696 17.0516 24.904 15.4831 28.0986 14.8477C31.2933 14.2122 34.6046 14.5384 37.6138 15.7849C40.6231 17.0313 43.1952 19.1422 45.0048 21.8505C46.8144 24.5587 47.7803 27.7428 47.7803 31C47.7803 35.3678 46.0452 39.5567 42.9567 42.6452C39.8682 45.7337 35.6793 47.4688 31.3115 47.4688Z" fill="#913AFF"/>
<path d="M35.6709 39.2344H26.9521C26.8237 39.2344 26.7005 39.2854 26.6096 39.3762C26.5188 39.4671 26.4678 39.5903 26.4678 39.7188V43.1094C26.4678 43.2378 26.5188 43.361 26.6096 43.4519C26.7005 43.5427 26.8237 43.5938 26.9521 43.5938H35.6709C35.7994 43.5938 35.9226 43.5427 36.0134 43.4519C36.1042 43.361 36.1553 43.2378 36.1553 43.1094V39.7188C36.1553 39.5903 36.1042 39.4671 36.0134 39.3762C35.9226 39.2854 35.7994 39.2344 35.6709 39.2344ZM35.1865 42.625H27.4365V40.2031H35.1865V42.625Z" fill="#FFC703"/>
</svg>
