<svg width="50" height="63" viewBox="0 0 50 63" fill="none" xmlns="http://www.w3.org/2000/svg">
<path d="M42.3314 31.0312C44.1322 30.9836 45.8433 30.2347 47.1002 28.9441C48.3571 27.6535 49.0605 25.9231 49.0605 24.1216C49.0605 22.3201 48.3571 20.5898 47.1002 19.2992C45.8433 18.0086 44.1322 17.2597 42.3314 17.212H41.7259C42.1263 15.9952 42.1806 14.691 41.8828 13.4451C41.585 12.1992 40.9468 11.0605 40.0395 10.1562C39.1322 9.25189 37.9914 8.61751 36.7445 8.32387C35.4976 8.03024 34.1936 8.08889 32.9781 8.49328C31.7613 5.84087 29.6825 3.67839 27.0802 2.3578C24.4779 1.03722 21.5052 0.636282 18.646 1.22025C15.7868 1.80421 13.2095 3.3387 11.3334 5.57396C9.45733 7.80922 8.39303 10.6136 8.31372 13.5308C6.12837 13.8652 4.1489 15.0097 2.76892 16.7369C1.38893 18.4641 0.70952 20.6474 0.865774 22.8527C1.02203 25.0579 2.0025 27.1236 3.61224 28.639C5.22198 30.1543 7.34306 31.0084 9.55373 31.0312H21.1254V32.9688C18.0545 32.9688 17.9431 32.867 17.7736 33.2739C17.604 33.6808 17.7736 33.6905 19.9436 35.875H10.9536C10.8251 35.875 10.7019 35.926 10.6111 36.0169C10.5202 36.1077 10.4692 36.2309 10.4692 36.3594V40.7188H7.07857C6.9501 40.7188 6.8269 40.7698 6.73606 40.8606C6.64523 40.9515 6.59419 41.0747 6.59419 41.2031V60.5781C6.59419 61.2204 6.84935 61.8365 7.30354 62.2906C7.75773 62.7448 8.37375 63 9.01607 63H40.9848C41.6271 63 42.2432 62.7448 42.6973 62.2906C43.1515 61.8365 43.4067 61.2204 43.4067 60.5781V36.3594C43.4067 36.2309 43.3557 36.1077 43.2648 36.0169C43.174 35.926 43.0508 35.875 42.9223 35.875H30.067C32.2661 33.6759 32.2661 33.7438 32.2661 33.4531C32.2661 33.3247 32.215 33.2015 32.1242 33.1106C32.0334 33.0198 31.9102 32.9688 31.7817 32.9688H28.8754V31.0312H42.3314ZM9.55373 30.0625C7.51151 30.1127 5.53094 29.3606 4.03684 27.9675C2.54274 26.5743 1.65412 24.6511 1.56159 22.6104C1.46906 20.5697 2.17999 18.5739 3.54188 17.0513C4.90377 15.5287 6.80816 14.6004 8.84654 14.4656C8.97274 14.4469 9.0879 14.3831 9.17071 14.2861C9.25352 14.189 9.29839 14.0652 9.29701 13.9377C9.2859 11.1706 10.2366 8.48569 11.9864 6.34218C13.7363 4.19867 16.1766 2.72978 18.8898 2.18679C21.6031 1.64379 24.4207 2.06044 26.8607 3.36544C29.3007 4.67045 31.2115 6.78273 32.2661 9.34093C32.2904 9.40088 32.3266 9.45535 32.3723 9.5011C32.4181 9.54686 32.4725 9.58298 32.5325 9.60734C32.9781 9.7914 33.4043 9.15203 35.182 9.15203C36.1694 9.15669 37.1401 9.40811 38.0056 9.88343C38.8711 10.3587 39.6041 11.0429 40.1379 11.8736C40.6717 12.7044 40.9893 13.6554 41.0619 14.6402C41.1346 15.625 40.9599 16.6123 40.5537 17.5123C40.5177 17.5859 40.5009 17.6674 40.5049 17.7492C40.5089 17.831 40.5336 17.9105 40.5767 17.9801C40.6197 18.0498 40.6797 18.1074 40.7511 18.1476C40.8225 18.1878 40.9029 18.2092 40.9848 18.2098H42.312C43.8532 18.2539 45.3164 18.8971 46.3909 20.0028C47.4654 21.1085 48.0665 22.5895 48.0665 24.1313C48.0665 25.6731 47.4654 27.1542 46.3909 28.2598C45.3164 29.3655 43.8532 30.0087 42.312 30.0528H28.8754V20.8594C28.8754 20.7309 28.8244 20.6077 28.7336 20.5169C28.6427 20.426 28.5195 20.375 28.3911 20.375H21.6098C21.4814 20.375 21.3582 20.426 21.2673 20.5169C21.1765 20.6077 21.1254 20.7309 21.1254 20.8594V30.0625H9.55373ZM9.01607 62.0312C8.63068 62.0312 8.26107 61.8782 7.98855 61.6056C7.71604 61.3331 7.56294 60.9635 7.56294 60.5781V41.6875H15.5309L17.3231 44.3758C17.5508 44.7148 16.519 44.5938 38.5533 44.5938C38.5533 61.697 38.3934 60.985 38.9214 61.8375C39.0764 62.0991 42.3508 62.0312 9.01607 62.0312ZM42.4379 36.8438V60.5781C42.4183 60.9242 42.2757 61.2518 42.0357 61.5019C41.7957 61.7521 41.4743 61.9082 41.1293 61.9421C40.7844 61.976 40.4386 61.8855 40.1546 61.6869C39.8705 61.4883 39.6668 61.1947 39.5801 60.8591C39.5317 60.6508 39.5317 61.7213 39.5317 44.1094C39.5317 43.9809 39.4807 43.8577 39.3898 43.7669C39.299 43.676 39.1758 43.625 39.0473 43.625H18.0012C16.0637 40.7188 16.1558 40.7188 15.7973 40.7188H11.4379V36.8438H20.922L24.6517 40.5734C24.6969 40.6203 24.751 40.6576 24.811 40.6831C24.8709 40.7085 24.9353 40.7217 25.0004 40.7217C25.0656 40.7217 25.13 40.7085 25.1899 40.6831C25.2498 40.6576 25.304 40.6203 25.3492 40.5734L29.0789 36.8438H42.4379ZM30.5901 33.9375L25.0004 39.5369L19.4108 33.9375H21.6098C21.7383 33.9375 21.8615 33.8865 21.9523 33.7956C22.0432 33.7048 22.0942 33.5816 22.0942 33.4531V21.3437H27.9067V33.4531C27.9067 33.5816 27.9577 33.7048 28.0486 33.7956C28.1394 33.8865 28.2626 33.9375 28.3911 33.9375H30.5901Z" fill="#903AFF"/>
<path d="M30.5901 33.9375L25.0004 39.5369L19.4108 33.9375H21.6098C21.7383 33.9375 21.8615 33.8865 21.9523 33.7956C22.0432 33.7048 22.0942 33.5816 22.0942 33.4531V21.3437H27.9067V33.4531C27.9067 33.5816 27.9577 33.7048 28.0486 33.7956C28.1394 33.8865 28.2626 33.9375 28.3911 33.9375H30.5901Z" fill="#FBC306"/>
</svg>
