<svg width="50" height="64" viewBox="0 0 50 64" fill="none" xmlns="http://www.w3.org/2000/svg">
<path d="M25 23.2813C23.6588 23.2813 22.3477 23.679 21.2325 24.4241C20.1174 25.1692 19.2482 26.2283 18.7349 27.4674C18.2217 28.7065 18.0874 30.07 18.3491 31.3855C18.6107 32.7009 19.2566 33.9092 20.2049 34.8576C21.1533 35.8059 22.3616 36.4518 23.677 36.7135C24.9925 36.9751 26.356 36.8408 27.5951 36.3276C28.8342 35.8143 29.8933 34.9451 30.6384 33.83C31.3835 32.7148 31.7813 31.4037 31.7813 30.0625C31.7813 28.264 31.0668 26.5392 29.7951 25.2674C28.5233 23.9957 26.7985 23.2813 25 23.2813ZM25 35.875C23.8504 35.875 22.7266 35.5341 21.7708 34.8954C20.8149 34.2567 20.0699 33.3489 19.63 32.2868C19.19 31.2248 19.0749 30.0561 19.2992 28.9285C19.5235 27.801 20.0771 26.7653 20.8899 25.9524C21.7028 25.1395 22.7385 24.586 23.866 24.3617C24.9936 24.1374 26.1623 24.2525 27.2244 24.6925C28.2864 25.1324 29.1942 25.8774 29.8329 26.8332C30.4716 27.7891 30.8125 28.9129 30.8125 30.0625C30.8125 31.6041 30.2001 33.0825 29.1101 34.1726C28.02 35.2626 26.5416 35.875 25 35.875Z" fill="#FFC703"/>
<path d="M49.5284 37.7302L36.1403 26.9189V18.9219C36.1403 11.8645 32.614 7.02078 32.7496 7.29688C32.7496 7.29688 32.7496 7.27266 32.7496 7.25812C31.4101 5.17672 29.7012 3.35784 27.7073 1.89125C26.9268 1.30604 25.9776 0.989707 25.0021 0.989707C24.0265 0.989707 23.0773 1.30604 22.2968 1.89125C19.6607 3.87628 17.525 6.44989 16.06 9.40678C14.595 12.3637 13.8413 15.622 13.859 18.9219V26.9189L0.470898 37.7302C0.21418 37.9433 0.286836 37.7011 0.286836 43.625C0.286836 43.7535 0.337868 43.8767 0.428706 43.9675C0.519544 44.0583 0.642747 44.1094 0.771211 44.1094H13.859C13.81 44.9583 14.0997 45.7919 14.6645 46.4275C15.2293 47.0631 16.0231 47.4488 16.8718 47.5L17.734 51.0117C17.7596 51.1201 17.8217 51.2163 17.9099 51.2843C17.9982 51.3522 18.1071 51.3877 18.2184 51.3847H20.742C20.358 52.0133 20.1551 52.7357 20.1559 53.4723C20.1559 57.483 24.4475 62.6173 24.6315 62.8353C24.6769 62.8919 24.7344 62.9375 24.7998 62.9689C24.8652 63.0003 24.9368 63.0166 25.0093 63.0166C25.0819 63.0166 25.1535 63.0003 25.2189 62.9689C25.2842 62.9375 25.3418 62.8919 25.3871 62.8353C25.5712 62.6173 29.8628 57.5072 29.8628 53.4723C29.8595 52.7306 29.6499 52.0044 29.2573 51.375H31.7809C31.8922 51.378 32.0011 51.3425 32.0894 51.2746C32.1776 51.2066 32.2397 51.1104 32.2653 51.002L33.1371 47.5C34.6871 47.4516 36.1403 46.168 36.1403 44.1094H49.2184C49.3469 44.1094 49.4701 44.0583 49.5609 43.9675C49.6517 43.8767 49.7028 43.7535 49.7028 43.625C49.7028 37.7011 49.7851 37.9433 49.5284 37.7302ZM22.8878 2.68562C23.4991 2.22698 24.2427 1.97904 25.0069 1.97904C25.7711 1.97904 26.5147 2.22698 27.1261 2.68562C28.8503 3.96314 30.347 5.52205 31.5532 7.29688C27.3458 8.97773 22.6535 8.97773 18.4461 7.29688C19.6533 5.51967 21.1536 3.96041 22.8829 2.68562H22.8878ZM1.26527 43.1406V38.355L13.859 28.1831V43.1406H1.26527ZM28.8746 53.482C28.8746 56.4755 26.0507 60.3941 24.9996 61.7164C23.9582 60.3747 21.1246 56.4561 21.1246 53.482C21.131 52.6978 21.4338 51.9451 21.9723 51.375H28.027C28.5632 51.9426 28.8659 52.6915 28.8746 53.4723V53.482ZM31.3934 50.4062H18.6059L17.8842 47.5H32.1151L31.3934 50.4062ZM35.1715 44.2498C35.1819 44.5405 35.1346 44.8303 35.0324 45.1026C34.9302 45.3749 34.7751 45.6243 34.5761 45.8363C34.3771 46.0484 34.1381 46.219 33.8728 46.3383C33.6075 46.4575 33.3213 46.5231 33.0306 46.5312H16.9687C16.678 46.5231 16.3918 46.4575 16.1265 46.3383C15.8612 46.219 15.6222 46.0484 15.4232 45.8363C15.2242 45.6243 15.0691 45.3749 14.9669 45.1026C14.8647 44.8303 14.8174 44.5405 14.8278 44.2498V18.9219C14.8228 15.109 15.8848 11.3707 17.8939 8.13C22.4418 10.0068 27.5478 10.0068 32.0957 8.13C35.8884 14.1992 35.1715 19.4353 35.1715 27.1563V44.2498ZM48.734 43.1406H36.1403V28.1928L48.734 38.3647V43.1406Z" fill="#903AFF"/>
</svg>
