<svg width="63" height="63" viewBox="0 0 63 63" fill="none" xmlns="http://www.w3.org/2000/svg">
<path d="M23.2656 6.3294C23.6488 6.3294 24.0234 6.21577 24.342 6.00287C24.6607 5.78998 24.909 5.48738 25.0556 5.13335C25.2023 4.77932 25.2407 4.38975 25.1659 4.01391C25.0911 3.63808 24.9066 3.29285 24.6356 3.02188C24.3647 2.75092 24.0195 2.56639 23.6436 2.49163C23.2678 2.41687 22.8782 2.45524 22.5242 2.60189C22.1701 2.74853 21.8675 2.99686 21.6547 3.31548C21.4418 3.6341 21.3281 4.0087 21.3281 4.3919C21.3281 4.90576 21.5323 5.39857 21.8956 5.76192C22.259 6.12527 22.7518 6.3294 23.2656 6.3294ZM23.2656 3.42315C23.4572 3.42315 23.6445 3.47997 23.8038 3.58642C23.9631 3.69286 24.0873 3.84416 24.1606 4.02118C24.234 4.19819 24.2531 4.39298 24.2158 4.5809C24.1784 4.76881 24.0861 4.94143 23.9506 5.07691C23.8152 5.21239 23.6425 5.30466 23.4546 5.34204C23.2667 5.37942 23.0719 5.36023 22.8949 5.28691C22.7179 5.21359 22.5666 5.08942 22.4601 4.93011C22.3537 4.7708 22.2969 4.5835 22.2969 4.3919C22.2969 4.13497 22.3989 3.88857 22.5806 3.70689C22.7623 3.52522 23.0087 3.42315 23.2656 3.42315Z" fill="#903AFF"/>
<path d="M46.0312 29.6569V7.29815C46.0312 6.78429 45.8271 6.29148 45.4638 5.92813C45.1004 5.56478 44.6076 5.36065 44.0938 5.36065H33.4375V3.90753C33.4375 3.77906 33.3865 3.65586 33.2956 3.56502C33.2048 3.47418 33.0816 3.42315 32.9531 3.42315H27.5233C27.3099 2.45281 26.7715 1.58445 25.9972 0.961913C25.2229 0.339374 24.2592 0 23.2656 0C22.2721 0 21.3084 0.339374 20.5341 0.961913C19.7598 1.58445 19.2213 2.45281 19.008 3.42315H13.5781C13.4497 3.42315 13.3265 3.47418 13.2356 3.56502C13.1448 3.65586 13.0938 3.77906 13.0938 3.90753V5.36065H2.4375C1.92364 5.36065 1.43083 5.56478 1.06748 5.92813C0.704129 6.29148 0.5 6.78429 0.5 7.29815L0.5 60.095C0.5 60.6089 0.704129 61.1017 1.06748 61.465C1.43083 61.8284 1.92364 62.0325 2.4375 62.0325H44.0938C44.6076 62.0325 45.1004 61.8284 45.4638 61.465C45.8271 61.1017 46.0312 60.6089 46.0312 60.095V50.8144C47.8021 51.6212 49.7472 51.9706 51.6881 51.8305C53.629 51.6904 55.5037 51.0652 57.1404 50.0124C58.777 48.9596 60.1231 47.5128 61.0553 45.8047C61.9876 44.0965 62.4761 42.1816 62.4761 40.2357C62.4761 38.2897 61.9876 36.3748 61.0553 34.6666C60.1231 32.9585 58.777 31.5117 57.1404 30.4589C55.5037 29.4061 53.629 28.7809 51.6881 28.6408C49.7472 28.5007 47.8021 28.8501 46.0312 29.6569ZM44.0938 6.3294C44.3507 6.3294 44.5971 6.43147 44.7788 6.61314C44.9604 6.79482 45.0625 7.04122 45.0625 7.29815V30.1703C43.7516 30.9223 42.5999 31.9226 41.6719 33.1153V9.23565C41.6719 9.10719 41.6208 8.98398 41.53 8.89315C41.4392 8.80231 41.316 8.75128 41.1875 8.75128H33.4375V6.3294H44.0938ZM13.5781 12.1419H32.9531C33.0816 12.1419 33.2048 12.0909 33.2956 12C33.3865 11.9092 33.4375 11.786 33.4375 11.6575V9.72003H40.7031V34.6121C39.7515 36.3337 39.2524 38.2686 39.2524 40.2357C39.2524 42.2027 39.7515 44.1376 40.7031 45.8592V57.1888H5.82812V9.72003H13.0938V11.6575C13.0938 11.786 13.1448 11.9092 13.2356 12C13.3265 12.0909 13.4497 12.1419 13.5781 12.1419ZM14.0625 4.3919H19.4245C19.5443 4.39263 19.66 4.34897 19.7495 4.26936C19.8389 4.18975 19.8957 4.07983 19.9089 3.96081C20.0311 3.1594 20.4364 2.4283 21.0513 1.90005C21.6663 1.37179 22.4501 1.08133 23.2608 1.08133C24.0715 1.08133 24.8553 1.37179 25.4702 1.90005C26.0851 2.4283 26.4904 3.1594 26.6127 3.96081C26.6258 4.07983 26.6826 4.18975 26.7721 4.26936C26.8615 4.34897 26.9773 4.39263 27.097 4.3919H32.4688V11.1732H14.0625V4.3919ZM45.0625 60.095C45.0625 60.352 44.9604 60.5984 44.7788 60.78C44.5971 60.9617 44.3507 61.0638 44.0938 61.0638H2.4375C2.18057 61.0638 1.93417 60.9617 1.75249 60.78C1.57081 60.5984 1.46875 60.352 1.46875 60.095V7.29815C1.46875 7.04122 1.57081 6.79482 1.75249 6.61314C1.93417 6.43147 2.18057 6.3294 2.4375 6.3294H13.0938V8.75128H5.34375C5.21529 8.75128 5.09208 8.80231 5.00125 8.89315C4.91041 8.98398 4.85938 9.10719 4.85938 9.23565V57.6732C4.85938 57.8016 4.91041 57.9248 5.00125 58.0157C5.09208 58.1065 5.21529 58.1575 5.34375 58.1575H41.1875C41.316 58.1575 41.4392 58.1065 41.53 58.0157C41.6208 57.9248 41.6719 57.8016 41.6719 57.6732V47.356C42.5999 48.5487 43.7516 49.549 45.0625 50.301V60.095ZM50.875 50.8919C48.7674 50.8919 46.7071 50.2669 44.9547 49.096C43.2023 47.9251 41.8365 46.2608 41.0299 44.3136C40.2234 42.3664 40.0123 40.2238 40.4235 38.1567C40.8347 36.0896 41.8496 34.1908 43.3399 32.7005C44.8302 31.2102 46.729 30.1953 48.7961 29.7842C50.8632 29.373 53.0058 29.584 54.953 30.3906C56.9001 31.1971 58.5644 32.5629 59.7353 34.3154C60.9063 36.0678 61.5312 38.128 61.5312 40.2357C61.5312 43.0619 60.4085 45.7723 58.4101 47.7708C56.4117 49.7692 53.7012 50.8919 50.875 50.8919Z" fill="#903AFF"/>
<path d="M56.3388 36.0119L48.9375 43.4132L45.4113 39.8869C45.3188 39.7944 45.1933 39.7424 45.0625 39.7424C44.9317 39.7424 44.8063 39.7944 44.7138 39.8869C44.6213 39.9794 44.5693 40.1048 44.5693 40.2357C44.5693 40.3665 44.6213 40.4919 44.7138 40.5844C48.8939 44.7646 48.6469 44.595 48.9375 44.595C49.2282 44.595 48.55 45.186 57.0363 36.6997C57.1275 36.6072 57.1782 36.4823 57.1773 36.3524C57.1764 36.2225 57.1239 36.0983 57.0314 36.0071C56.939 35.9158 56.814 35.8651 56.6841 35.866C56.5542 35.8669 56.43 35.9194 56.3388 36.0119Z" fill="#FFC703"/>
<path d="M8.73438 16.9857V23.2825C8.73438 23.411 8.78541 23.5342 8.87624 23.625C8.96708 23.7159 9.09029 23.7669 9.21875 23.7669H37.3125C37.441 23.7669 37.5642 23.7159 37.655 23.625C37.7458 23.5342 37.7969 23.411 37.7969 23.2825V16.9857C37.7969 16.8572 37.7458 16.734 37.655 16.6431C37.5642 16.5523 37.441 16.5013 37.3125 16.5013H9.21875C9.09029 16.5013 8.96708 16.5523 8.87624 16.6431C8.78541 16.734 8.73438 16.8572 8.73438 16.9857ZM9.70312 17.47H36.8281V22.7982H9.70312V17.47Z" fill="#FFC703"/>
<path d="M37.3125 28.1263H12.125C11.9965 28.1263 11.8733 28.1773 11.7825 28.2681C11.6917 28.359 11.6406 28.4822 11.6406 28.6107C11.6406 28.7391 11.6917 28.8623 11.7825 28.9532C11.8733 29.044 11.9965 29.095 12.125 29.095H37.3125C37.441 29.095 37.5642 29.044 37.655 28.9532C37.7458 28.8623 37.7969 28.7391 37.7969 28.6107C37.7969 28.4822 37.7458 28.359 37.655 28.2681C37.5642 28.1773 37.441 28.1263 37.3125 28.1263Z" fill="#FFC703"/>
<path d="M37.3125 32.0013H9.21875C9.09029 32.0013 8.96708 32.0523 8.87624 32.1431C8.78541 32.234 8.73438 32.3572 8.73438 32.4857C8.73438 32.6141 8.78541 32.7373 8.87624 32.8282C8.96708 32.919 9.09029 32.97 9.21875 32.97H37.3125C37.441 32.97 37.5642 32.919 37.655 32.8282C37.7458 32.7373 37.7969 32.6141 37.7969 32.4857C37.7969 32.3572 37.7458 32.234 37.655 32.1431C37.5642 32.0523 37.441 32.0013 37.3125 32.0013Z" fill="#FFC703"/>
<path d="M37.3125 35.8763H9.21875C9.09029 35.8763 8.96708 35.9273 8.87624 36.0181C8.78541 36.109 8.73438 36.2322 8.73438 36.3607C8.73438 36.4891 8.78541 36.6123 8.87624 36.7032C8.96708 36.794 9.09029 36.845 9.21875 36.845H37.3125C37.441 36.845 37.5642 36.794 37.655 36.7032C37.7458 36.6123 37.7969 36.4891 37.7969 36.3607C37.7969 36.2322 37.7458 36.109 37.655 36.0181C37.5642 35.9273 37.441 35.8763 37.3125 35.8763Z" fill="#FFC703"/>
<path d="M9.21875 40.72H23.75C23.8785 40.72 24.0017 40.669 24.0925 40.5782C24.1833 40.4873 24.2344 40.3641 24.2344 40.2357C24.2344 40.1072 24.1833 39.984 24.0925 39.8931C24.0017 39.8023 23.8785 39.7513 23.75 39.7513H9.21875C9.09029 39.7513 8.96708 39.8023 8.87624 39.8931C8.78541 39.984 8.73438 40.1072 8.73438 40.2357C8.73438 40.3641 8.78541 40.4873 8.87624 40.5782C8.96708 40.669 9.09029 40.72 9.21875 40.72Z" fill="#FFC703"/>
<path d="M37.3125 43.6263H12.125C11.9965 43.6263 11.8733 43.6773 11.7825 43.7681C11.6917 43.859 11.6406 43.9822 11.6406 44.1107C11.6406 44.2391 11.6917 44.3623 11.7825 44.4532C11.8733 44.544 11.9965 44.595 12.125 44.595H37.3125C37.441 44.595 37.5642 44.544 37.655 44.4532C37.7458 44.3623 37.7969 44.2391 37.7969 44.1107C37.7969 43.9822 37.7458 43.859 37.655 43.7681C37.5642 43.6773 37.441 43.6263 37.3125 43.6263Z" fill="#FFC703"/>
<path d="M37.3125 47.5013H9.21875C9.09029 47.5013 8.96708 47.5523 8.87624 47.6431C8.78541 47.734 8.73438 47.8572 8.73438 47.9857C8.73438 48.1141 8.78541 48.2373 8.87624 48.3282C8.96708 48.419 9.09029 48.47 9.21875 48.47H37.3125C37.441 48.47 37.5642 48.419 37.655 48.3282C37.7458 48.2373 37.7969 48.1141 37.7969 47.9857C37.7969 47.8572 37.7458 47.734 37.655 47.6431C37.5642 47.5523 37.441 47.5013 37.3125 47.5013Z" fill="#FFC703"/>
<path d="M31.5 51.3763H9.21875C9.09029 51.3763 8.96708 51.4273 8.87624 51.5181C8.78541 51.609 8.73438 51.7322 8.73438 51.8607C8.73438 51.9891 8.78541 52.1123 8.87624 52.2032C8.96708 52.294 9.09029 52.345 9.21875 52.345H31.5C31.6285 52.345 31.7517 52.294 31.8425 52.2032C31.9333 52.1123 31.9844 51.9891 31.9844 51.8607C31.9844 51.7322 31.9333 51.609 31.8425 51.5181C31.7517 51.4273 31.6285 51.3763 31.5 51.3763Z" fill="#FFC703"/>
</svg>
